<svg id="Layer_1" data-name="Layer 1" xmlns="http://www.w3.org/2000/svg" viewBox="0 0 95.76 257.34"><defs><style>.cls-1{fill:none;stroke:#000;stroke-linecap:round;stroke-linejoin:round;stroke-width:0.72px;}.cls-2{fill:#f7941d;}</style></defs><title>Untitled-3</title><polyline class="cls-1" points="0.36 256.98 95.4 256.98 95.4 0.36 0.36 0.36 0.36 256.98"/><polyline class="cls-2" points="47.16 228.48 48.6 228.48 48.6 214.26 47.16 214.26 47.16 228.48"/><polyline class="cls-2" points="43.02 214.26 52.74 214.26 52.74 195.24 43.02 195.24 43.02 214.26"/><polyline class="cls-2" points="47.16 176.22 47.16 195.24 48.6 195.24 48.6 176.22 47.16 176.22"/><polyline class="cls-2" points="37.62 176.22 58.14 176.22 58.14 157.2 37.62 157.2 37.62 176.22"/><polyline class="cls-2" points="36 138.18 59.76 138.18 59.76 119.16 36 119.16 36 138.18"/><polyline class="cls-2" points="37.62 100.14 58.14 100.14 58.14 81.12 37.62 81.12 37.62 100.14"/><polyline class="cls-2" points="43.02 62.16 52.74 62.16 52.74 43.14 43.02 43.14 43.02 62.16"/><polyline class="cls-2" points="47.16 138.18 47.16 157.2 48.6 157.2 48.6 138.18 47.16 138.18"/><polyline class="cls-2" points="47.16 100.14 47.16 119.16 48.6 119.16 48.6 100.14 47.16 100.14"/><polyline class="cls-2" points="47.16 62.16 47.16 81.12 48.6 81.12 48.6 62.16 47.16 62.16"/><polyline class="cls-2" points="49.26 239.4 49.26 228.48 46.5 228.48 46.5 239.4 49.26 239.4"/><polyline class="cls-2" points="49.56 256.98 49.56 239.4 46.2 239.4 46.2 256.98 49.56 256.98"/></svg>