<svg id="Layer_1" data-name="Layer 1" xmlns="http://www.w3.org/2000/svg" viewBox="0 0 613.26 613.26"><defs><style>.cls-1{fill:none;stroke:#000;stroke-linecap:round;stroke-linejoin:round;stroke-width:1.5px;}.cls-2{fill:#f7941d;}</style></defs><title>24G_2x2Patch_EdgeFed_RO3006</title><g id="LWPOLYLINE"><rect class="cls-1" x="0.75" y="0.75" width="611.76" height="611.76"/></g><g id="LWPOLYLINE-2" data-name="LWPOLYLINE"><polygon class="cls-2" points="175.43 233.78 175.43 199.9 202.54 199.9 202.54 233.78 252.99 233.78 252.99 144.19 124.98 144.19 124.98 233.78 175.43 233.78"/></g><g id="LWPOLYLINE-3" data-name="LWPOLYLINE"><polygon class="cls-2" points="410.73 233.78 410.73 199.9 437.83 199.9 437.83 233.78 488.28 233.78 488.28 144.19 360.28 144.19 360.28 233.78 410.73 233.78"/></g><g id="LWPOLYLINE-4" data-name="LWPOLYLINE"><polygon class="cls-2" points="175.43 413.36 175.43 379.48 124.98 379.48 124.98 469.08 252.99 469.08 252.99 379.48 202.54 379.48 202.54 413.36 175.43 413.36"/></g><g id="LWPOLYLINE-5" data-name="LWPOLYLINE"><polygon class="cls-2" points="410.73 413.36 410.73 379.48 360.28 379.48 360.28 469.08 488.28 469.08 488.28 379.48 437.83 379.48 437.83 413.36 410.73 413.36"/></g><g id="LWPOLYLINE-6" data-name="LWPOLYLINE"><polygon class="cls-2" points="179.95 269.93 195.01 254.87 195.01 199.9 182.96 199.9 182.96 257.88 156.61 257.88 141.55 272.94 141.55 284.99 156.61 300.04 182.96 300.04 182.96 413.36 195.01 413.36 195.01 303.06 179.95 288 153.6 288 153.6 269.93 179.95 269.93"/></g><g id="LWPOLYLINE-7" data-name="LWPOLYLINE"><polygon class="cls-2" points="456.66 300.04 471.71 284.99 471.71 272.94 456.66 257.88 430.3 257.88 430.3 199.9 418.26 199.9 418.26 254.87 433.31 269.93 459.67 269.93 459.67 288 433.31 288 418.26 303.06 418.26 413.36 430.3 413.36 430.3 300.04 456.66 300.04"/></g><g id="LWPOLYLINE-8" data-name="LWPOLYLINE"><rect class="cls-2" x="188.99" y="323.2" width="235.29" height="12.05"/></g><g id="LWPOLYLINE-9" data-name="LWPOLYLINE"><rect class="cls-2" x="300.61" y="329.22" width="12.05" height="283.29"/></g><g id="LWPOLYLINE-10" data-name="LWPOLYLINE"><rect class="cls-2" x="188.99" y="317.93" width="60.24" height="22.59"/></g><g id="LWPOLYLINE-11" data-name="LWPOLYLINE"><rect class="cls-2" x="364.04" y="317.93" width="60.24" height="22.59"/></g><g id="LWPOLYLINE-12" data-name="LWPOLYLINE"><rect class="cls-2" x="295.34" y="329.22" width="22.59" height="60.24"/></g></svg>