<svg id="Layer_1" data-name="Layer 1" xmlns="http://www.w3.org/2000/svg" viewBox="0 0 613.26 453.9"><defs><style>.cls-1{fill:none;stroke:#000;stroke-linecap:round;stroke-linejoin:round;stroke-width:1.5px;}.cls-2{fill:#f7941d;}</style></defs><title>24G_2x4Patch_EdgeFed_RT5880</title><g id="LWPOLYLINE"><rect class="cls-1" x="0.75" y="0.75" width="611.76" height="452.4"/></g><g id="LWPOLYLINE-2" data-name="LWPOLYLINE"><polygon class="cls-2" points="240.44 231.64 240.44 221.36 254.58 221.36 254.58 231.64 282.21 231.64 282.21 181.13 212.81 181.13 212.81 231.64 240.44 231.64"/></g><g id="LWPOLYLINE-3" data-name="LWPOLYLINE"><rect class="cls-2" x="245.58" y="221.36" width="3.86" height="49.48"/></g><g id="LWPOLYLINE-4" data-name="LWPOLYLINE"><polygon class="cls-2" points="240.44 309.65 240.44 299.37 212.81 299.37 212.81 349.88 282.21 349.88 282.21 299.37 254.58 299.37 254.58 309.65 240.44 309.65"/></g><g id="LWPOLYLINE-5" data-name="LWPOLYLINE"><rect class="cls-2" x="129.27" y="253.62" width="29.56" height="7.45"/></g><g id="LWPOLYLINE-6" data-name="LWPOLYLINE"><rect class="cls-2" x="270.9" y="255.42" width="71.46" height="3.86"/></g><g id="LWPOLYLINE-7" data-name="LWPOLYLINE"><polygon class="cls-2" points="245.58 274.69 249.44 270.84 223.74 270.84 219.88 274.69 219.88 283.69 223.74 287.55 249.44 287.55 245.58 283.69 223.74 283.69 223.74 274.69 245.58 274.69"/></g><g id="LWPOLYLINE-8" data-name="LWPOLYLINE"><rect class="cls-2" x="245.58" y="287.55" width="3.86" height="22.11"/></g><g id="LWPOLYLINE-9" data-name="LWPOLYLINE"><polygon class="cls-2" points="372.82 221.36 372.82 231.64 400.45 231.64 400.45 181.13 331.05 181.13 331.05 231.64 358.68 231.64 358.68 221.36 372.82 221.36"/></g><g id="LWPOLYLINE-10" data-name="LWPOLYLINE"><polygon class="cls-2" points="372.82 299.37 372.82 309.65 358.68 309.65 358.68 299.37 331.05 299.37 331.05 349.88 400.45 349.88 400.45 299.37 372.82 299.37"/></g><g id="LWPOLYLINE-11" data-name="LWPOLYLINE"><rect class="cls-2" x="363.82" y="221.36" width="3.86" height="49.48"/></g><g id="LWPOLYLINE-12" data-name="LWPOLYLINE"><rect class="cls-2" x="454.43" y="253.62" width="29.56" height="7.45"/></g><g id="LWPOLYLINE-13" data-name="LWPOLYLINE"><polygon class="cls-2" points="363.82 270.84 367.68 274.69 389.53 274.69 389.53 283.69 367.68 283.69 363.82 287.55 389.53 287.55 393.38 283.69 393.38 274.69 389.53 270.84 363.82 270.84"/></g><g id="LWPOLYLINE-14" data-name="LWPOLYLINE"><rect class="cls-2" x="363.82" y="287.55" width="3.86" height="22.11"/></g><g id="LWPOLYLINE-15" data-name="LWPOLYLINE"><rect class="cls-2" x="301.49" y="227.78" width="10.28" height="29.56"/></g><g id="LWPOLYLINE-16" data-name="LWPOLYLINE"><rect class="cls-2" x="302.13" y="0.75" width="9" height="227.03"/></g><g id="LWPOLYLINE-17" data-name="LWPOLYLINE"><polygon class="cls-2" points="122.2 231.64 122.2 221.36 136.34 221.36 136.34 231.64 163.97 231.64 163.97 181.13 94.57 181.13 94.57 231.64 122.2 231.64"/></g><g id="LWPOLYLINE-18" data-name="LWPOLYLINE"><polygon class="cls-2" points="122.2 309.65 122.2 299.37 94.57 299.37 94.57 349.88 163.97 349.88 163.97 299.37 136.34 299.37 136.34 309.65 122.2 309.65"/></g><g id="LWPOLYLINE-19" data-name="LWPOLYLINE"><rect class="cls-2" x="127.34" y="221.36" width="3.86" height="49.48"/></g><g id="LWPOLYLINE-20" data-name="LWPOLYLINE"><polygon class="cls-2" points="127.34 274.69 131.2 270.84 105.5 270.84 101.64 274.69 101.64 283.69 105.5 287.55 131.2 287.55 127.34 283.69 105.5 283.69 105.5 274.69 127.34 274.69"/></g><g id="LWPOLYLINE-21" data-name="LWPOLYLINE"><rect class="cls-2" x="127.34" y="287.55" width="3.86" height="22.11"/></g><g id="LWPOLYLINE-22" data-name="LWPOLYLINE"><polygon class="cls-2" points="491.06 299.37 491.06 309.65 476.92 309.65 476.92 299.37 449.29 299.37 449.29 349.88 518.69 349.88 518.69 299.37 491.06 299.37"/></g><g id="LWPOLYLINE-23" data-name="LWPOLYLINE"><polygon class="cls-2" points="491.06 221.36 491.06 231.64 518.69 231.64 518.69 181.13 449.29 181.13 449.29 231.64 476.92 231.64 476.92 221.36 491.06 221.36"/></g><g id="LWPOLYLINE-24" data-name="LWPOLYLINE"><rect class="cls-2" x="482.06" y="221.36" width="3.86" height="49.48"/></g><g id="LWPOLYLINE-25" data-name="LWPOLYLINE"><polygon class="cls-2" points="482.06 270.84 485.92 274.69 507.77 274.69 507.77 283.69 485.92 283.69 482.06 287.55 507.77 287.55 511.63 283.69 511.63 274.69 507.77 270.84 482.06 270.84"/></g><g id="LWPOLYLINE-26" data-name="LWPOLYLINE"><rect class="cls-2" x="482.06" y="287.55" width="3.86" height="22.11"/></g><g id="LWPOLYLINE-27" data-name="LWPOLYLINE"><rect class="cls-2" x="395.31" y="255.42" width="88.68" height="3.86"/></g><g id="LWPOLYLINE-28" data-name="LWPOLYLINE"><rect class="cls-2" x="129.27" y="255.42" width="88.68" height="3.86"/></g><g id="LWPOLYLINE-29" data-name="LWPOLYLINE"><rect class="cls-2" x="365.75" y="253.62" width="29.56" height="7.45"/></g><g id="LWPOLYLINE-30" data-name="LWPOLYLINE"><rect class="cls-2" x="217.95" y="253.62" width="29.56" height="7.45"/></g><g id="LWPOLYLINE-31" data-name="LWPOLYLINE"><rect class="cls-2" x="342.36" y="250.92" width="23.39" height="12.85"/></g><g id="LWPOLYLINE-32" data-name="LWPOLYLINE"><rect class="cls-2" x="247.51" y="250.92" width="23.39" height="12.85"/></g></svg>