<svg id="Layer_1" data-name="Layer 1" xmlns="http://www.w3.org/2000/svg" viewBox="0 0 492.51 793.66"><defs><style>.cls-1{fill:none;stroke:#000;stroke-linecap:round;stroke-linejoin:round;stroke-width:1.5px;}.cls-2{fill:#f7941d;}</style></defs><title>24G_1x2Patch_EdgeFed_RT5880</title><g id="LWPOLYLINE"><rect class="cls-1" x="0.75" y="0.75" width="491.01" height="792.16"/></g><g id="LWPOLYLINE-2" data-name="LWPOLYLINE"><polygon class="cls-2" points="228.25 310.9 228.25 284.71 264.26 284.71 264.26 310.9 339.54 310.9 339.54 181.6 152.96 181.6 152.96 310.9 228.25 310.9"/></g><g id="LWPOLYLINE-3" data-name="LWPOLYLINE"><rect class="cls-2" x="241.34" y="284.72" width="9.82" height="126.02"/></g><g id="LWPOLYLINE-4" data-name="LWPOLYLINE"><polygon class="cls-2" points="228.25 508.94 228.25 482.75 152.96 482.75 152.96 612.05 339.54 612.05 339.54 482.75 264.26 482.75 264.26 508.94 228.25 508.94"/></g><g id="LWPOLYLINE-5" data-name="LWPOLYLINE"><rect class="cls-2" x="246.25" y="366.88" width="75.29" height="18.99"/></g><g id="LWPOLYLINE-6" data-name="LWPOLYLINE"><rect class="cls-2" x="321.54" y="371.46" width="170.22" height="9.82"/></g><g id="LWPOLYLINE-7" data-name="LWPOLYLINE"><polygon class="cls-2" points="241.34 420.56 251.16 410.74 185.7 410.74 175.88 420.56 175.88 443.47 185.7 453.29 251.16 453.29 241.34 443.47 185.7 443.47 185.7 420.56 241.34 420.56"/></g><g id="LWPOLYLINE-8" data-name="LWPOLYLINE"><rect class="cls-2" x="241.34" y="453.29" width="9.82" height="55.65"/></g></svg>