<svg id="Layer_1" data-name="Layer 1" xmlns="http://www.w3.org/2000/svg" viewBox="0 0 388.86 793.66"><defs><style>.cls-1{fill:none;stroke:#000;stroke-linecap:round;stroke-linejoin:round;stroke-width:1.5px;}.cls-2{fill:#f7941d;}</style></defs><title>24G_1x3Series_EdgeFed_RO3006</title><g id="LWPOLYLINE"><rect class="cls-1" x="0.75" y="0.75" width="387.36" height="792.16"/></g><g id="LWPOLYLINE-2" data-name="LWPOLYLINE"><rect class="cls-2" x="188.23" y="615.11" width="12.4" height="177.8"/></g><g id="LWPOLYLINE-3" data-name="LWPOLYLINE"><polygon class="cls-2" points="180.49 637.96 180.49 615.11 208.38 615.11 208.38 637.96 228.33 637.96 228.33 541.51 160.54 541.51 160.54 637.96 180.49 637.96"/></g><g id="LWPOLYLINE-4" data-name="LWPOLYLINE"><rect class="cls-2" x="188.23" y="422.2" width="12.4" height="119.31"/></g><g id="LWPOLYLINE-5" data-name="LWPOLYLINE"><polygon class="cls-2" points="180.49 445.06 180.49 422.2 208.38 422.2 208.38 445.06 262.22 445.06 262.22 348.6 126.64 348.6 126.64 445.06 180.49 445.06"/></g><g id="LWPOLYLINE-6" data-name="LWPOLYLINE"><rect class="cls-2" x="188.23" y="229.29" width="12.4" height="119.31"/></g><g id="LWPOLYLINE-7" data-name="LWPOLYLINE"><polygon class="cls-2" points="180.49 252.15 180.49 229.29 208.38 229.29 208.38 252.15 228.33 252.15 228.33 155.69 160.54 155.69 160.54 252.15 180.49 252.15"/></g></svg>