<svg id="Layer_1" data-name="Layer 1" xmlns="http://www.w3.org/2000/svg" viewBox="0 0 613.26 613.26"><defs><style>.cls-1{fill:none;stroke:#000;stroke-linecap:round;stroke-linejoin:round;stroke-width:1.5px;}.cls-2{fill:#f7941d;}</style></defs><title>24G_4x4Patch_EdgeFed_RO3006</title><g id="LWPOLYLINE"><rect class="cls-1" x="0.75" y="0.75" width="611.76" height="611.76"/></g><g id="LWPOLYLINE-2" data-name="LWPOLYLINE"><polygon class="cls-2" points="243.99 160.4 243.99 143.86 257.21 143.86 257.21 160.4 281.83 160.4 281.83 116.67 219.37 116.67 219.37 160.4 243.99 160.4"/></g><g id="LWPOLYLINE-3" data-name="LWPOLYLINE"><polygon class="cls-2" points="356.05 160.4 356.05 143.86 369.28 143.86 369.28 160.4 393.9 160.4 393.9 116.67 331.43 116.67 331.43 160.4 356.05 160.4"/></g><g id="LWPOLYLINE-4" data-name="LWPOLYLINE"><polygon class="cls-2" points="243.99 245.27 243.99 228.74 219.37 228.74 219.37 272.46 281.83 272.46 281.83 228.74 257.21 228.74 257.21 245.27 243.99 245.27"/></g><g id="LWPOLYLINE-5" data-name="LWPOLYLINE"><polygon class="cls-2" points="356.05 245.27 356.05 228.74 331.43 228.74 331.43 272.46 393.9 272.46 393.9 228.74 369.28 228.74 369.28 245.27 356.05 245.27"/></g><g id="LWPOLYLINE-6" data-name="LWPOLYLINE"><polygon class="cls-2" points="246.19 178.03 253.54 170.69 253.54 143.86 247.66 143.86 247.66 172.15 234.8 172.15 227.45 179.5 227.45 185.38 234.8 192.73 247.66 192.73 247.66 245.27 253.54 245.27 253.54 194.2 246.19 186.85 233.33 186.85 233.33 178.03 246.19 178.03"/></g><g id="LWPOLYLINE-7" data-name="LWPOLYLINE"><polygon class="cls-2" points="378.46 192.73 385.81 185.38 385.81 179.5 378.46 172.15 365.6 172.15 365.6 143.86 359.73 143.86 359.73 170.69 367.07 178.03 379.93 178.03 379.93 186.85 367.07 186.85 359.73 194.2 359.73 245.27 365.6 245.27 365.6 192.73 378.46 192.73"/></g><g id="LWPOLYLINE-8" data-name="LWPOLYLINE"><rect class="cls-2" x="138.53" y="202.65" width="336.2" height="5.88"/></g><g id="LWPOLYLINE-9" data-name="LWPOLYLINE"><rect class="cls-2" x="250.6" y="196.13" width="30.5" height="18.92"/></g><g id="LWPOLYLINE-10" data-name="LWPOLYLINE"><rect class="cls-2" x="332.17" y="196.13" width="30.5" height="18.92"/></g><g id="LWPOLYLINE-11" data-name="LWPOLYLINE"><rect class="cls-2" x="301.12" y="205.59" width="11.02" height="25.72"/></g><g id="LWPOLYLINE-12" data-name="LWPOLYLINE"><polygon class="cls-2" points="131.92 160.4 131.92 143.86 145.15 143.86 145.15 160.4 169.77 160.4 169.77 116.67 107.3 116.67 107.3 160.4 131.92 160.4"/></g><g id="LWPOLYLINE-13" data-name="LWPOLYLINE"><polygon class="cls-2" points="131.92 245.27 131.92 228.74 107.3 228.74 107.3 272.46 169.77 272.46 169.77 228.74 145.15 228.74 145.15 245.27 131.92 245.27"/></g><g id="LWPOLYLINE-14" data-name="LWPOLYLINE"><polygon class="cls-2" points="134.13 178.03 141.47 170.69 141.47 143.86 135.59 143.86 135.59 172.15 122.74 172.15 115.39 179.5 115.39 185.38 122.74 192.73 135.59 192.73 135.59 245.27 141.47 245.27 141.47 194.2 134.13 186.85 121.27 186.85 121.27 178.03 134.13 178.03"/></g><g id="LWPOLYLINE-15" data-name="LWPOLYLINE"><polygon class="cls-2" points="468.12 160.4 468.12 143.86 481.34 143.86 481.34 160.4 505.96 160.4 505.96 116.67 443.5 116.67 443.5 160.4 468.12 160.4"/></g><g id="LWPOLYLINE-16" data-name="LWPOLYLINE"><polygon class="cls-2" points="468.12 245.27 468.12 228.74 443.5 228.74 443.5 272.46 505.96 272.46 505.96 228.74 481.34 228.74 481.34 245.27 468.12 245.27"/></g><g id="LWPOLYLINE-17" data-name="LWPOLYLINE"><polygon class="cls-2" points="490.53 192.73 497.88 185.38 497.88 179.5 490.53 172.15 477.67 172.15 477.67 143.86 471.79 143.86 471.79 170.69 479.14 178.03 492 178.03 492 186.85 479.14 186.85 471.79 194.2 471.79 245.27 477.67 245.27 477.67 192.73 490.53 192.73"/></g><g id="LWPOLYLINE-18" data-name="LWPOLYLINE"><rect class="cls-2" x="224.88" y="200.08" width="25.72" height="11.02"/></g><g id="LWPOLYLINE-19" data-name="LWPOLYLINE"><rect class="cls-2" x="138.53" y="200.08" width="25.72" height="11.02"/></g><g id="LWPOLYLINE-20" data-name="LWPOLYLINE"><rect class="cls-2" x="362.66" y="200.08" width="25.72" height="11.02"/></g><g id="LWPOLYLINE-21" data-name="LWPOLYLINE"><rect class="cls-2" x="449.01" y="200.08" width="25.72" height="11.02"/></g><g id="LWPOLYLINE-22" data-name="LWPOLYLINE"><rect class="cls-2" x="301.12" y="381.95" width="11.02" height="25.72"/></g><g id="LWPOLYLINE-23" data-name="LWPOLYLINE"><rect class="cls-2" x="224.88" y="402.16" width="25.72" height="11.02"/></g><g id="LWPOLYLINE-24" data-name="LWPOLYLINE"><rect class="cls-2" x="362.66" y="402.16" width="25.72" height="11.02"/></g><g id="LWPOLYLINE-25" data-name="LWPOLYLINE"><rect class="cls-2" x="138.53" y="402.16" width="25.72" height="11.02"/></g><g id="LWPOLYLINE-26" data-name="LWPOLYLINE"><rect class="cls-2" x="449.01" y="402.16" width="25.72" height="11.02"/></g><g id="LWPOLYLINE-27" data-name="LWPOLYLINE"><polygon class="cls-2" points="243.99 469.4 243.99 452.87 219.37 452.87 219.37 496.59 281.83 496.59 281.83 452.87 257.21 452.87 257.21 469.4 243.99 469.4"/></g><g id="LWPOLYLINE-28" data-name="LWPOLYLINE"><polygon class="cls-2" points="356.05 469.4 356.05 452.87 331.43 452.87 331.43 496.59 393.9 496.59 393.9 452.87 369.28 452.87 369.28 469.4 356.05 469.4"/></g><g id="LWPOLYLINE-29" data-name="LWPOLYLINE"><polygon class="cls-2" points="356.05 384.53 356.05 367.99 369.28 367.99 369.28 384.53 393.9 384.53 393.9 340.8 331.43 340.8 331.43 384.53 356.05 384.53"/></g><g id="LWPOLYLINE-30" data-name="LWPOLYLINE"><polygon class="cls-2" points="468.12 384.53 468.12 367.99 481.34 367.99 481.34 384.53 505.96 384.53 505.96 340.8 443.5 340.8 443.5 384.53 468.12 384.53"/></g><g id="LWPOLYLINE-31" data-name="LWPOLYLINE"><polygon class="cls-2" points="468.12 469.4 468.12 452.87 443.5 452.87 443.5 496.59 505.96 496.59 505.96 452.87 481.34 452.87 481.34 469.4 468.12 469.4"/></g><g id="LWPOLYLINE-32" data-name="LWPOLYLINE"><polygon class="cls-2" points="243.99 384.53 243.99 367.99 257.21 367.99 257.21 384.53 281.83 384.53 281.83 340.8 219.37 340.8 219.37 384.53 243.99 384.53"/></g><g id="LWPOLYLINE-33" data-name="LWPOLYLINE"><polygon class="cls-2" points="131.92 384.53 131.92 367.99 145.15 367.99 145.15 384.53 169.77 384.53 169.77 340.8 107.3 340.8 107.3 384.53 131.92 384.53"/></g><g id="LWPOLYLINE-34" data-name="LWPOLYLINE"><polygon class="cls-2" points="131.92 469.4 131.92 452.87 107.3 452.87 107.3 496.59 169.77 496.59 169.77 452.87 145.15 452.87 145.15 469.4 131.92 469.4"/></g><g id="LWPOLYLINE-35" data-name="LWPOLYLINE"><polygon class="cls-2" points="253.54 442.58 246.19 435.23 233.33 435.23 233.33 426.41 246.19 426.41 253.54 419.06 253.54 367.99 247.66 367.99 247.66 420.53 234.8 420.53 227.45 427.88 227.45 433.76 234.8 441.11 247.66 441.11 247.66 469.4 253.54 469.4 253.54 442.58"/></g><g id="LWPOLYLINE-36" data-name="LWPOLYLINE"><polygon class="cls-2" points="141.47 442.58 134.13 435.23 121.27 435.23 121.27 426.41 134.13 426.41 141.47 419.06 141.47 367.99 135.59 367.99 135.59 420.53 122.74 420.53 115.39 427.88 115.39 433.76 122.74 441.11 135.59 441.11 135.59 469.4 141.47 469.4 141.47 442.58"/></g><g id="LWPOLYLINE-37" data-name="LWPOLYLINE"><polygon class="cls-2" points="385.81 427.88 378.46 420.53 365.6 420.53 365.6 367.99 359.73 367.99 359.73 419.06 367.07 426.41 379.93 426.41 379.93 435.23 367.07 435.23 359.73 442.58 359.73 469.4 365.6 469.4 365.6 441.11 378.46 441.11 385.81 433.76 385.81 427.88"/></g><g id="LWPOLYLINE-38" data-name="LWPOLYLINE"><polygon class="cls-2" points="497.88 427.88 490.53 420.53 477.67 420.53 477.67 367.99 471.79 367.99 471.79 419.06 479.14 426.41 492 426.41 492 435.23 479.14 435.23 471.79 442.58 471.79 469.4 477.67 469.4 477.67 441.11 490.53 441.11 497.88 433.76 497.88 427.88"/></g><g id="LWPOLYLINE-39" data-name="LWPOLYLINE"><rect class="cls-2" x="138.53" y="404.74" width="336.2" height="5.88"/></g><g id="LWPOLYLINE-40" data-name="LWPOLYLINE"><rect class="cls-2" x="250.6" y="398.21" width="30.5" height="18.92"/></g><g id="LWPOLYLINE-41" data-name="LWPOLYLINE"><rect class="cls-2" x="332.17" y="398.21" width="30.5" height="18.92"/></g><g id="LWPOLYLINE-42" data-name="LWPOLYLINE"><rect class="cls-2" x="306.63" y="296.44" width="305.88" height="5.88"/></g><g id="LWPOLYLINE-43" data-name="LWPOLYLINE"><rect class="cls-2" x="306.63" y="293.86" width="25.72" height="11.02"/></g><g id="LWPOLYLINE-44" data-name="LWPOLYLINE"><polygon class="cls-2" points="302.22 313.34 309.57 305.99 309.57 205.59 303.69 205.59 303.69 307.46 289 307.46 281.65 314.81 281.65 318.85 289 326.2 303.69 326.2 303.69 407.86 309.57 407.86 309.57 327.67 302.22 320.32 287.53 320.32 287.53 313.34 302.22 313.34"/></g></svg>