<svg id="Layer_1" data-name="Layer 1" xmlns="http://www.w3.org/2000/svg" viewBox="0 0 613.26 719.3"><defs><style>.cls-1{fill:none;stroke:#000;stroke-linecap:round;stroke-linejoin:round;stroke-width:1.5px;}.cls-2{fill:#f7941d;}</style></defs><title>24G_2x2Patch_EdgeFed_RT5880</title><g id="LWPOLYLINE"><rect class="cls-1" x="0.75" y="0.75" width="611.76" height="717.8"/></g><g id="LWPOLYLINE-2" data-name="LWPOLYLINE"><polygon class="cls-2" points="193.46 367.1 193.46 350.78 215.89 350.78 215.89 367.1 259.73 367.1 259.73 286.95 149.61 286.95 149.61 367.1 193.46 367.1"/></g><g id="LWPOLYLINE-3" data-name="LWPOLYLINE"><rect class="cls-2" x="201.61" y="350.78" width="6.12" height="78.51"/></g><g id="LWPOLYLINE-4" data-name="LWPOLYLINE"><polygon class="cls-2" points="193.46 490.88 193.46 474.56 149.61 474.56 149.61 554.7 259.73 554.7 259.73 474.56 215.89 474.56 215.89 490.88 193.46 490.88"/></g><g id="LWPOLYLINE-5" data-name="LWPOLYLINE"><rect class="cls-2" x="204.67" y="401.97" width="46.9" height="11.83"/></g><g id="LWPOLYLINE-6" data-name="LWPOLYLINE"><rect class="cls-2" x="251.57" y="404.82" width="110.12" height="6.12"/></g><g id="LWPOLYLINE-7" data-name="LWPOLYLINE"><polygon class="cls-2" points="201.61 435.41 207.73 429.29 166.95 429.29 160.83 435.41 160.83 449.68 166.95 455.8 207.73 455.8 201.61 449.68 166.95 449.68 166.95 435.41 201.61 435.41"/></g><g id="LWPOLYLINE-8" data-name="LWPOLYLINE"><rect class="cls-2" x="201.61" y="455.8" width="6.12" height="35.07"/></g><g id="LWPOLYLINE-9" data-name="LWPOLYLINE"><polygon class="cls-2" points="419.81 350.78 419.81 367.1 463.65 367.1 463.65 286.95 353.53 286.95 353.53 367.1 397.38 367.1 397.38 350.78 419.81 350.78"/></g><g id="LWPOLYLINE-10" data-name="LWPOLYLINE"><polygon class="cls-2" points="419.81 474.56 419.81 490.88 397.38 490.88 397.38 474.56 353.53 474.56 353.53 554.7 463.65 554.7 463.65 474.56 419.81 474.56"/></g><g id="LWPOLYLINE-11" data-name="LWPOLYLINE"><rect class="cls-2" x="405.53" y="350.78" width="6.12" height="78.51"/></g><g id="LWPOLYLINE-12" data-name="LWPOLYLINE"><rect class="cls-2" x="361.69" y="401.97" width="46.9" height="11.83"/></g><g id="LWPOLYLINE-13" data-name="LWPOLYLINE"><polygon class="cls-2" points="405.53 429.29 411.65 435.41 446.32 435.41 446.32 449.68 411.65 449.68 405.53 455.8 446.32 455.8 452.44 449.68 452.44 435.41 446.32 429.29 405.53 429.29"/></g><g id="LWPOLYLINE-14" data-name="LWPOLYLINE"><rect class="cls-2" x="405.53" y="455.8" width="6.12" height="35.07"/></g><g id="LWPOLYLINE-15" data-name="LWPOLYLINE"><rect class="cls-2" x="298.48" y="360.98" width="16.31" height="46.9"/></g><g id="LWPOLYLINE-16" data-name="LWPOLYLINE"><rect class="cls-2" x="299.5" y="0.75" width="14.27" height="360.23"/></g></svg>