<svg id="Layer_1" data-name="Layer 1" xmlns="http://www.w3.org/2000/svg" viewBox="0 0 262.77 793.66"><defs><style>.cls-1{fill:none;stroke:#000;stroke-linecap:round;stroke-linejoin:round;stroke-width:1.5px;}.cls-2{fill:#f7941d;}</style></defs><title>24G_1x5Series_EdgeFed_RO3006</title><g id="LWPOLYLINE"><rect class="cls-1" x="0.75" y="0.75" width="261.27" height="792.16"/></g><g id="LWPOLYLINE-2" data-name="LWPOLYLINE"><rect class="cls-2" x="127.2" y="679.52" width="8.36" height="113.39"/></g><g id="LWPOLYLINE-3" data-name="LWPOLYLINE"><polygon class="cls-2" points="121.98 688.4 121.98 679.52 140.79 679.52 140.79 688.4 150.05 688.4 150.05 623.61 112.72 623.61 112.72 688.4 121.98 688.4"/></g><g id="LWPOLYLINE-4" data-name="LWPOLYLINE"><rect class="cls-2" x="127.2" y="549.93" width="8.36" height="73.68"/></g><g id="LWPOLYLINE-5" data-name="LWPOLYLINE"><polygon class="cls-2" points="121.98 558.81 121.98 549.93 140.79 549.93 140.79 558.81 170.83 558.81 170.83 494.02 91.93 494.02 91.93 558.81 121.98 558.81"/></g><g id="LWPOLYLINE-6" data-name="LWPOLYLINE"><rect class="cls-2" x="127.2" y="420.34" width="8.36" height="73.68"/></g><g id="LWPOLYLINE-7" data-name="LWPOLYLINE"><polygon class="cls-2" points="121.98 429.23 121.98 420.34 140.79 420.34 140.79 429.23 177.1 429.23 177.1 364.43 85.66 364.43 85.66 429.23 121.98 429.23"/></g><g id="LWPOLYLINE-8" data-name="LWPOLYLINE"><rect class="cls-2" x="127.2" y="290.75" width="8.36" height="73.68"/></g><g id="LWPOLYLINE-9" data-name="LWPOLYLINE"><polygon class="cls-2" points="121.98 299.64 121.98 290.75 140.79 290.75 140.79 299.64 170.83 299.64 170.83 234.84 91.93 234.84 91.93 299.64 121.98 299.64"/></g><g id="LWPOLYLINE-10" data-name="LWPOLYLINE"><rect class="cls-2" x="127.2" y="161.17" width="8.36" height="73.68"/></g><g id="LWPOLYLINE-11" data-name="LWPOLYLINE"><polygon class="cls-2" points="121.98 170.05 121.98 161.17 140.79 161.17 140.79 170.05 150.05 170.05 150.05 105.26 112.72 105.26 112.72 170.05 121.98 170.05"/></g></svg>