<svg id="Layer_1" data-name="Layer 1" xmlns="http://www.w3.org/2000/svg" viewBox="0 0 613.26 349.54"><defs><style>.cls-1{fill:none;stroke:#000;stroke-linecap:round;stroke-linejoin:round;stroke-width:1.5px;}.cls-2{fill:#f7941d;}</style></defs><title>24G_2x4Patch_EdgeFed_RO3006</title><g id="LWPOLYLINE"><rect class="cls-1" x="0.75" y="0.75" width="611.76" height="348.04"/></g><g id="LWPOLYLINE-2" data-name="LWPOLYLINE"><polygon class="cls-2" points="232.92 134.56 232.92 115.11 248.48 115.11 248.48 134.56 277.45 134.56 277.45 83.11 203.95 83.11 203.95 134.56 232.92 134.56"/></g><g id="LWPOLYLINE-3" data-name="LWPOLYLINE"><polygon class="cls-2" points="364.78 134.56 364.78 115.11 380.35 115.11 380.35 134.56 409.31 134.56 409.31 83.11 335.81 83.11 335.81 134.56 364.78 134.56"/></g><g id="LWPOLYLINE-4" data-name="LWPOLYLINE"><polygon class="cls-2" points="232.92 234.43 232.92 214.98 203.95 214.98 203.95 266.42 277.45 266.42 277.45 214.98 248.48 214.98 248.48 234.43 232.92 234.43"/></g><g id="LWPOLYLINE-5" data-name="LWPOLYLINE"><polygon class="cls-2" points="364.78 234.43 364.78 214.98 335.81 214.98 335.81 266.42 409.31 266.42 409.31 214.98 380.35 214.98 380.35 234.43 364.78 234.43"/></g><g id="LWPOLYLINE-6" data-name="LWPOLYLINE"><polygon class="cls-2" points="235.51 155.31 244.16 146.67 244.16 115.11 237.24 115.11 237.24 148.4 222.11 148.4 213.46 157.04 213.46 163.96 222.11 172.61 237.24 172.61 237.24 234.43 244.16 234.43 244.16 174.34 235.51 165.69 220.38 165.69 220.38 155.31 235.51 155.31"/></g><g id="LWPOLYLINE-7" data-name="LWPOLYLINE"><polygon class="cls-2" points="391.15 172.61 399.8 163.96 399.8 157.04 391.15 148.4 376.02 148.4 376.02 115.11 369.11 115.11 369.11 146.67 377.75 155.31 392.88 155.31 392.88 165.69 377.75 165.69 369.11 174.34 369.11 234.43 376.02 234.43 376.02 172.61 391.15 172.61"/></g><g id="LWPOLYLINE-8" data-name="LWPOLYLINE"><rect class="cls-2" x="108.84" y="184.28" width="395.59" height="6.92"/></g><g id="LWPOLYLINE-9" data-name="LWPOLYLINE"><rect class="cls-2" x="303.17" y="187.74" width="6.92" height="161.05"/></g><g id="LWPOLYLINE-10" data-name="LWPOLYLINE"><rect class="cls-2" x="240.7" y="176.61" width="34.59" height="22.27"/></g><g id="LWPOLYLINE-11" data-name="LWPOLYLINE"><rect class="cls-2" x="337.98" y="176.61" width="34.59" height="22.27"/></g><g id="LWPOLYLINE-12" data-name="LWPOLYLINE"><rect class="cls-2" x="300.15" y="187.74" width="12.97" height="34.59"/></g><g id="LWPOLYLINE-13" data-name="LWPOLYLINE"><polygon class="cls-2" points="101.05 134.56 101.05 115.11 116.62 115.11 116.62 134.56 145.59 134.56 145.59 83.11 72.09 83.11 72.09 134.56 101.05 134.56"/></g><g id="LWPOLYLINE-14" data-name="LWPOLYLINE"><polygon class="cls-2" points="101.05 234.43 101.05 214.98 72.09 214.98 72.09 266.42 145.59 266.42 145.59 214.98 116.62 214.98 116.62 234.43 101.05 234.43"/></g><g id="LWPOLYLINE-15" data-name="LWPOLYLINE"><polygon class="cls-2" points="103.65 155.31 112.29 146.67 112.29 115.11 105.38 115.11 105.38 148.4 90.25 148.4 81.6 157.04 81.6 163.96 90.25 172.61 105.38 172.61 105.38 234.43 112.29 234.43 112.29 174.34 103.65 165.69 88.52 165.69 88.52 155.31 103.65 155.31"/></g><g id="LWPOLYLINE-16" data-name="LWPOLYLINE"><polygon class="cls-2" points="496.65 134.56 496.65 115.11 512.21 115.11 512.21 134.56 541.18 134.56 541.18 83.11 467.68 83.11 467.68 134.56 496.65 134.56"/></g><g id="LWPOLYLINE-17" data-name="LWPOLYLINE"><polygon class="cls-2" points="496.65 234.43 496.65 214.98 467.68 214.98 467.68 266.42 541.18 266.42 541.18 214.98 512.21 214.98 512.21 234.43 496.65 234.43"/></g><g id="LWPOLYLINE-18" data-name="LWPOLYLINE"><polygon class="cls-2" points="523.02 172.61 531.67 163.96 531.67 157.04 523.02 148.4 507.89 148.4 507.89 115.11 500.97 115.11 500.97 146.67 509.62 155.31 524.75 155.31 524.75 165.69 509.62 165.69 500.97 174.34 500.97 234.43 507.89 234.43 507.89 172.61 523.02 172.61"/></g><g id="LWPOLYLINE-19" data-name="LWPOLYLINE"><rect class="cls-2" x="206.11" y="181.25" width="34.59" height="12.97"/></g><g id="LWPOLYLINE-20" data-name="LWPOLYLINE"><rect class="cls-2" x="108.84" y="181.25" width="34.59" height="12.97"/></g><g id="LWPOLYLINE-21" data-name="LWPOLYLINE"><rect class="cls-2" x="372.56" y="181.25" width="34.59" height="12.97"/></g><g id="LWPOLYLINE-22" data-name="LWPOLYLINE"><rect class="cls-2" x="469.84" y="181.25" width="34.59" height="12.97"/></g></svg>