<svg id="Layer_1" data-name="Layer 1" xmlns="http://www.w3.org/2000/svg" viewBox="0 0 254.22 254.22"><defs><style>.cls-1{fill:none;stroke:#000;stroke-linecap:round;stroke-linejoin:round;stroke-width:0.72px;}.cls-2{fill:#f7941d;}</style></defs><title>6G_2x2Patch_EdgeFed_FR4</title><polyline class="cls-1" points="0.36 0.36 0.36 253.86 253.86 253.86 253.86 0.36 0.36 0.36"/><polyline class="cls-2" points="164.16 62.76 175.86 62.76 175.86 74.46 164.16 74.46 164.16 99.78 207.06 99.78 207.06 37.38 164.16 37.38 164.16 62.76"/><polyline class="cls-2" points="164.16 179.76 175.86 179.76 175.86 191.46 164.16 191.46 164.16 216.78 207.06 216.78 207.06 154.38 164.16 154.38 164.16 179.76"/><polyline class="cls-2" points="175.86 70.56 175.86 66.66 156.36 66.66 150.54 72.48 150.54 181.68 156.36 187.56 175.86 187.56 175.86 183.66 154.44 183.66 154.44 70.56 175.86 70.56"/><polyline class="cls-2" points="117.36 131.94 152.46 131.94 152.46 122.22 117.36 122.22 117.36 131.94"/><polyline class="cls-2" points="47.16 62.76 58.86 62.76 58.86 74.46 47.16 74.46 47.16 99.78 90.06 99.78 90.06 37.38 47.16 37.38 47.16 62.76"/><polyline class="cls-2" points="47.16 179.76 58.86 179.76 58.86 191.46 47.16 191.46 47.16 216.78 90.06 216.78 90.06 154.38 47.16 154.38 47.16 179.76"/><polyline class="cls-2" points="33.54 181.68 39.36 187.56 58.86 187.56 58.86 183.66 37.44 183.66 37.44 70.56 58.86 70.56 58.86 66.66 39.36 66.66 33.54 72.48 33.54 181.68"/><polyline class="cls-2" points="70.56 122.22 35.46 122.22 35.46 131.94 70.56 131.94 70.56 122.22"/><polyline class="cls-2" points="70.56 125.16 70.56 129.06 117.36 129.06 117.36 125.16 70.56 125.16"/><polyline class="cls-2" points="100.62 127.08 89.46 127.08 98.4 148.68 109.26 159.54 118.62 150.18 100.62 132.12 100.62 127.08"/><polyline class="cls-2" points="116.94 151.92 110.1 158.76 115.8 164.46 115.8 253.86 126.72 253.86 126.72 175.5 116.94 151.92"/></svg>