<svg id="Layer_1" data-name="Layer 1" xmlns="http://www.w3.org/2000/svg" viewBox="0 0 147.06 147.06"><defs><style>.cls-1{fill:none;stroke:#000;stroke-linecap:round;stroke-linejoin:round;stroke-width:0.72px;}.cls-2{fill:#f7941d;}</style></defs><title>6G_4x4Patch_EdgeFed_FR4</title><polyline class="cls-1" points="0.36 146.7 146.7 146.7 146.7 0.36 0.36 0.36 0.36 146.7"/><polyline class="cls-2" points="49.38 19.08 52.92 19.08 52.92 22.62 49.38 22.62 49.38 29.64 62.52 29.64 62.52 12.06 49.38 12.06 49.38 19.08"/><polyline class="cls-2" points="49.38 54.24 52.92 54.24 52.92 57.72 49.38 57.72 49.38 64.74 62.52 64.74 62.52 47.22 49.38 47.22 49.38 54.24"/><polyline class="cls-2" points="46.5 21.42 55.98 21.42 55.98 20.28 47.04 20.28 45.3 22.02 45.3 54.78 47.04 56.58 55.98 56.58 55.98 55.38 46.5 55.38 46.5 21.42"/><polyline class="cls-2" points="35.16 40.02 45.9 40.02 45.9 36.84 35.16 36.84 35.16 40.02"/><polyline class="cls-2" points="14.28 19.08 17.82 19.08 17.82 22.62 14.28 22.62 14.28 29.64 27.42 29.64 27.42 12.06 14.28 12.06 14.28 19.08"/><polyline class="cls-2" points="14.28 54.24 17.82 54.24 17.82 57.72 14.28 57.72 14.28 64.74 27.42 64.74 27.42 47.22 14.28 47.22 14.28 54.24"/><polyline class="cls-2" points="11.34 21.42 20.82 21.42 20.82 20.28 11.94 20.28 10.2 22.02 10.2 54.78 11.94 56.58 20.82 56.58 20.82 55.38 11.34 55.38 11.34 21.42"/><polyline class="cls-2" points="21.48 36.84 10.8 36.84 10.8 40.02 21.48 40.02 21.48 36.84"/><polyline class="cls-2" points="10.8 39 45.9 39 45.9 37.8 10.8 37.8 10.8 39"/><polyline class="cls-2" points="29.88 38.4 27.42 38.4 30.06 44.7 30.72 45.36 32.94 43.14 29.88 40.08 29.88 38.4"/><polyline class="cls-2" points="37.08 50.46 35.88 47.46 28.92 40.5 28.92 38.4 27.72 38.4 27.72 38.64 29.4 42.66 35.94 49.2 35.94 76.44 37.08 76.44 37.08 50.46"/><polyline class="cls-2" points="52.92 127.98 49.38 127.98 49.38 135 62.52 135 62.52 117.42 49.38 117.42 49.38 124.44 52.92 124.44 52.92 127.98"/><polyline class="cls-2" points="52.92 92.88 49.38 92.88 49.38 99.9 62.52 99.9 62.52 82.32 49.38 82.32 49.38 89.34 52.92 89.34 52.92 92.88"/><polyline class="cls-2" points="55.98 125.64 46.5 125.64 46.5 91.68 55.98 91.68 55.98 90.54 47.04 90.54 45.3 92.28 45.3 125.04 47.04 126.78 55.98 126.78 55.98 125.64"/><polyline class="cls-2" points="45.9 107.1 35.16 107.1 35.16 110.22 45.9 110.22 45.9 107.1"/><polyline class="cls-2" points="17.82 127.98 14.28 127.98 14.28 135 27.42 135 27.42 117.42 14.28 117.42 14.28 124.44 17.82 124.44 17.82 127.98"/><polyline class="cls-2" points="17.82 92.88 14.28 92.88 14.28 99.9 27.42 99.9 27.42 82.32 14.28 82.32 14.28 89.34 17.82 89.34 17.82 92.88"/><polyline class="cls-2" points="20.82 125.64 11.34 125.64 11.34 91.68 20.82 91.68 20.82 90.54 11.94 90.54 10.2 92.28 10.2 125.04 11.94 126.78 20.82 126.78 20.82 125.64"/><polyline class="cls-2" points="10.8 110.22 21.48 110.22 21.48 107.1 10.8 107.1 10.8 110.22"/><polyline class="cls-2" points="45.9 108.06 10.8 108.06 10.8 109.26 45.9 109.26 45.9 108.06"/><polyline class="cls-2" points="27.42 108.66 29.88 108.66 29.88 106.98 32.94 103.92 30.72 101.7 30.06 102.36 27.42 108.66"/><polyline class="cls-2" points="35.88 99.6 37.08 96.6 37.08 70.62 35.94 70.62 35.94 97.86 29.4 104.4 27.72 108.42 27.72 108.66 28.92 108.66 28.92 106.56 35.88 99.6"/><polyline class="cls-2" points="119.64 19.08 123.12 19.08 123.12 22.62 119.64 22.62 119.64 29.64 132.72 29.64 132.72 12.06 119.64 12.06 119.64 19.08"/><polyline class="cls-2" points="119.64 54.24 123.12 54.24 123.12 57.72 119.64 57.72 119.64 64.74 132.72 64.74 132.72 47.22 119.64 47.22 119.64 54.24"/><polyline class="cls-2" points="116.7 21.42 126.18 21.42 126.18 20.28 117.3 20.28 115.56 22.02 115.56 54.78 117.3 56.58 126.18 56.58 126.18 55.38 116.7 55.38 116.7 21.42"/><polyline class="cls-2" points="105.36 40.02 116.1 40.02 116.1 36.84 105.36 36.84 105.36 40.02"/><polyline class="cls-2" points="84.54 19.08 88.02 19.08 88.02 22.62 84.54 22.62 84.54 29.64 97.62 29.64 97.62 12.06 84.54 12.06 84.54 19.08"/><polyline class="cls-2" points="84.54 54.24 88.02 54.24 88.02 57.72 84.54 57.72 84.54 64.74 97.62 64.74 97.62 47.22 84.54 47.22 84.54 54.24"/><polyline class="cls-2" points="81.6 21.42 91.08 21.42 91.08 20.28 82.2 20.28 80.4 22.02 80.4 54.78 82.2 56.58 91.08 56.58 91.08 55.38 81.6 55.38 81.6 21.42"/><polyline class="cls-2" points="91.74 36.84 81 36.84 81 40.02 91.74 40.02 91.74 36.84"/><polyline class="cls-2" points="81 39 116.1 39 116.1 37.8 81 37.8 81 39"/><polyline class="cls-2" points="100.14 38.4 97.68 38.4 100.32 44.7 100.98 45.36 103.2 43.14 100.14 40.08 100.14 38.4"/><polyline class="cls-2" points="107.34 50.46 106.08 47.46 99.12 40.5 99.12 38.4 97.98 38.4 97.98 38.64 99.66 42.66 106.2 49.2 106.2 76.44 107.34 76.44 107.34 50.46"/><polyline class="cls-2" points="123.12 127.98 119.64 127.98 119.64 135 132.72 135 132.72 117.42 119.64 117.42 119.64 124.44 123.12 124.44 123.12 127.98"/><polyline class="cls-2" points="123.12 92.88 119.64 92.88 119.64 99.9 132.72 99.9 132.72 82.32 119.64 82.32 119.64 89.34 123.12 89.34 123.12 92.88"/><polyline class="cls-2" points="126.18 125.64 116.7 125.64 116.7 91.68 126.18 91.68 126.18 90.54 117.3 90.54 115.56 92.28 115.56 125.04 117.3 126.78 126.18 126.78 126.18 125.64"/><polyline class="cls-2" points="116.1 107.1 105.36 107.1 105.36 110.22 116.1 110.22 116.1 107.1"/><polyline class="cls-2" points="88.02 127.98 84.54 127.98 84.54 135 97.62 135 97.62 117.42 84.54 117.42 84.54 124.44 88.02 124.44 88.02 127.98"/><polyline class="cls-2" points="88.02 92.88 84.54 92.88 84.54 99.9 97.62 99.9 97.62 82.32 84.54 82.32 84.54 89.34 88.02 89.34 88.02 92.88"/><polyline class="cls-2" points="91.08 125.64 81.6 125.64 81.6 91.68 91.08 91.68 91.08 90.54 82.2 90.54 80.4 92.28 80.4 125.04 82.2 126.78 91.08 126.78 91.08 125.64"/><polyline class="cls-2" points="81 110.22 91.74 110.22 91.74 107.1 81 107.1 81 110.22"/><polyline class="cls-2" points="116.1 108.06 81 108.06 81 109.26 116.1 109.26 116.1 108.06"/><polyline class="cls-2" points="97.68 108.66 100.14 108.66 100.14 106.98 103.2 103.92 100.98 101.7 100.32 102.36 97.68 108.66"/><polyline class="cls-2" points="106.08 99.6 107.34 96.6 107.34 70.62 106.2 70.62 106.2 97.86 99.66 104.4 97.98 108.42 97.98 108.66 99.12 108.66 99.12 106.56 106.08 99.6"/><polyline class="cls-2" points="106.74 72.96 36.54 72.96 36.54 74.1 106.74 74.1 106.74 72.96"/><polyline class="cls-2" points="47.28 71.94 36.54 71.94 36.54 75.12 47.28 75.12 47.28 71.94"/><polyline class="cls-2" points="96 75.12 106.74 75.12 106.74 71.94 96 71.94 96 75.12"/><polyline class="cls-2" points="73.26 146.7 73.26 73.56 70.02 73.56 70.02 146.7 73.26 146.7"/><polyline class="cls-2" points="73.68 84.06 73.68 73.56 69.6 73.56 69.6 84.06 73.68 84.06"/></svg>