<?xml version="1.0" encoding="utf-8"?>
<!-- Generator: Adobe Illustrator 21.0.0, SVG Export Plug-In . SVG Version: 6.00 Build 0)  -->
<svg version="1.1" id="Layer_1" xmlns="http://www.w3.org/2000/svg" xmlns:xlink="http://www.w3.org/1999/xlink" x="0px" y="0px"
	 viewBox="0 0 201.1 199.1" style="enable-background:new 0 0 201.1 199.1;" xml:space="preserve">
<style type="text/css">
	.st0{fill:none;stroke:#010101;stroke-width:0.62;stroke-linecap:round;stroke-linejoin:round;}
	.st1{fill:#FFFFFF;}
	.st2{fill:#010101;}
	.st3{font-family:'ArialMT';}
	.st4{font-size:9.29px;}
	.st5{fill:none;stroke:#ED2224;stroke-width:1.24;stroke-linecap:round;stroke-linejoin:round;}
	.st6{fill:none;stroke:#3A53A4;stroke-width:1.24;stroke-linecap:round;stroke-linejoin:round;}
</style>
<title>Untitled-1</title>
<line class="st0" x1="162.2" y1="51.3" x2="99.7" y2="87.2"/>
<line class="st0" x1="136.2" y1="24.7" x2="99.7" y2="87.2"/>
<line class="st0" x1="63.8" y1="24.7" x2="99.7" y2="87.2"/>
<line class="st0" x1="37.1" y1="51.3" x2="99.7" y2="87.2"/>
<line class="st0" x1="37.1" y1="123.8" x2="99.7" y2="87.2"/>
<line class="st0" x1="63.1" y1="149.8" x2="99.7" y2="87.2"/>
<line class="st0" x1="136.2" y1="149.8" x2="99.7" y2="87.2"/>
<line class="st0" x1="162.2" y1="123.8" x2="99.7" y2="87.2"/>
<line class="st0" x1="172.1" y1="87.2" x2="99.7" y2="87.2"/>
<line class="st0" x1="99.7" y1="14.8" x2="99.7" y2="87.2"/>
<line class="st0" x1="27.2" y1="87.2" x2="99.7" y2="87.2"/>
<line class="st0" x1="99.7" y1="159.7" x2="99.7" y2="87.2"/>
<line class="st0" x1="172.1" y1="87.2" x2="99.7" y2="87.2"/>
<ellipse class="st0" cx="99.7" cy="86.9" rx="24.2" ry="23.8"/>
<ellipse class="st0" cx="99.7" cy="86.9" rx="48.3" ry="48"/>
<ellipse class="st0" cx="99.7" cy="86.9" rx="72.4" ry="72.1"/>
<rect x="96" class="st1" width="6.7" height="13"/>
<text transform="matrix(1 0 0 1 97.2 10.44)" class="st2 st3 st4">0</text>
<rect x="173.4" y="80.4" class="st1" width="11.8" height="13.1"/>
<text transform="matrix(1 0 0 1 174.6 90.96)" class="st2 st3 st4">9</text>
<text transform="matrix(1 0 0 1 179.32 90.96)" class="st2 st3 st4">0</text>
<rect x="163.4" y="37.7" class="st1" width="11.8" height="13.1"/>
<text transform="matrix(1 0 0 1 164.64 48.24)" class="st2 st3 st4">6</text>
<text transform="matrix(1 0 0 1 169.36 48.24)" class="st2 st3 st4">0</text>
<rect x="135.6" y="9.8" class="st1" width="11.8" height="13.1"/>
<text transform="matrix(1 0 0 1 136.8 20.4)" class="st2 st3 st4">3</text>
<text transform="matrix(1 0 0 1 141.52 20.4)" class="st2 st3 st4">0</text>
<rect x="51.4" y="9.8" class="st1" width="11.8" height="13.1"/>
<text transform="matrix(1 0 0 1 52.56 20.4)" class="st2 st3 st4">3</text>
<text transform="matrix(1 0 0 1 57.28 20.4)" class="st2 st3 st4">0</text>
<rect x="23.5" y="37.7" class="st1" width="11.8" height="13.1"/>
<text transform="matrix(1 0 0 1 24.72 48.24)" class="st2 st3 st4">6</text>
<text transform="matrix(1 0 0 1 29.44 48.24)" class="st2 st3 st4">0</text>
<rect x="13.6" y="80.4" class="st1" width="11.8" height="13.1"/>
<text transform="matrix(1 0 0 1 14.88 90.96)" class="st2 st3 st4">9</text>
<text transform="matrix(1 0 0 1 19.6 90.96)" class="st2 st3 st4">0</text>
<rect x="18.6" y="123.1" class="st1" width="16.7" height="13.1"/>
<text transform="matrix(1 0 0 1 19.8 133.68)" class="st2 st3 st4">12</text>
<text transform="matrix(1 0 0 1 29.23 133.68)" class="st2 st3 st4">0</text>
<rect x="46.4" y="151" class="st1" width="16.7" height="13.1"/>
<text transform="matrix(1 0 0 1 47.64 161.52)" class="st2 st3 st4">15</text>
<text transform="matrix(1 0 0 1 57.07 161.52)" class="st2 st3 st4">0</text>
<rect x="91" y="160.9" class="st1" width="16.8" height="13"/>
<text transform="matrix(1 0 0 1 92.28 171.36)" class="st2 st3 st4">18</text>
<text transform="matrix(1 0 0 1 101.71 171.36)" class="st2 st3 st4">0</text>
<rect x="135.6" y="151" class="st1" width="16.7" height="13.1"/>
<text transform="matrix(1 0 0 1 136.8 161.52)" class="st2 st3 st4">15</text>
<text transform="matrix(1 0 0 1 146.23 161.52)" class="st2 st3 st4">0</text>
<rect x="163.4" y="123.1" class="st1" width="16.7" height="13.1"/>
<text transform="matrix(1 0 0 1 164.64 133.68)" class="st2 st3 st4">12</text>
<text transform="matrix(1 0 0 1 174.07 133.68)" class="st2 st3 st4">0</text>
<rect x="144.2" y="91" class="st1" width="6.8" height="13"/>
<text transform="matrix(1 0 0 1 145.44 101.4)" class="st2 st3 st4">0</text>
<rect x="91.6" y="91" class="st1" width="15.5" height="13"/>
<text transform="matrix(1 0 0 1 92.88 101.4)" class="st2 st3 st4">-</text>
<text transform="matrix(1 0 0 1 95.7 101.4)" class="st2 st3 st4">2</text>
<text transform="matrix(1 0 0 1 100.42 101.4)" class="st2 st3 st4">0</text>
<rect x="115.8" y="91" class="st1" width="15.5" height="13"/>
<text transform="matrix(1 0 0 1 117 101.4)" class="st2 st3 st4">-</text>
<text transform="matrix(1 0 0 1 119.82 101.4)" class="st2 st3 st4">1</text>
<text transform="matrix(1 0 0 1 124.54 101.4)" class="st2 st3 st4">0</text>
<line class="st5" x1="99.7" y1="22.9" x2="98.4" y2="22.9"/>
<line class="st5" x1="98.4" y1="22.9" x2="97.2" y2="22.9"/>
<line class="st5" x1="97.2" y1="22.9" x2="96.6" y2="22.9"/>
<line class="st5" x1="96.6" y1="22.9" x2="95.3" y2="22.9"/>
<line class="st5" x1="95.3" y1="22.9" x2="94.1" y2="22.9"/>
<line class="st5" x1="94.1" y1="22.9" x2="92.8" y2="23.5"/>
<line class="st5" x1="92.8" y1="23.5" x2="91.6" y2="23.5"/>
<line class="st5" x1="91.6" y1="23.5" x2="91" y2="23.5"/>
<line class="st5" x1="91" y1="23.5" x2="89.8" y2="24.1"/>
<line class="st5" x1="89.8" y1="24.1" x2="88.5" y2="24.1"/>
<line class="st5" x1="88.5" y1="24.1" x2="87.3" y2="24.7"/>
<line class="st5" x1="87.3" y1="24.7" x2="86.7" y2="24.7"/>
<line class="st5" x1="86.7" y1="24.7" x2="85.4" y2="25.3"/>
<line class="st5" x1="85.4" y1="25.3" x2="84.2" y2="25.3"/>
<line class="st5" x1="84.2" y1="25.3" x2="82.9" y2="26"/>
<line class="st5" x1="82.9" y1="26" x2="82.3" y2="26"/>
<line class="st5" x1="82.3" y1="26" x2="81.1" y2="26.6"/>
<line class="st5" x1="81.1" y1="26.6" x2="79.8" y2="27.2"/>
<line class="st5" x1="79.8" y1="27.2" x2="79.2" y2="27.8"/>
<line class="st5" x1="79.2" y1="27.8" x2="78" y2="28.4"/>
<line class="st5" x1="78" y1="28.4" x2="77.4" y2="28.4"/>
<line class="st5" x1="77.4" y1="28.4" x2="76.1" y2="29"/>
<line class="st5" x1="76.1" y1="29" x2="75.5" y2="29.7"/>
<line class="st5" x1="75.5" y1="29.7" x2="74.3" y2="30.3"/>
<line class="st5" x1="74.3" y1="30.3" x2="73.7" y2="30.9"/>
<line class="st5" x1="73.7" y1="30.9" x2="72.4" y2="31.5"/>
<line class="st5" x1="72.4" y1="31.5" x2="71.8" y2="32.1"/>
<line class="st5" x1="71.8" y1="32.1" x2="70.6" y2="32.8"/>
<line class="st5" x1="70.6" y1="32.8" x2="69.9" y2="34"/>
<line class="st5" x1="69.9" y1="34" x2="69.3" y2="34.6"/>
<line class="st5" x1="69.3" y1="34.6" x2="68.1" y2="35.2"/>
<line class="st5" x1="68.1" y1="35.2" x2="67.5" y2="35.9"/>
<line class="st5" x1="67.5" y1="35.9" x2="66.8" y2="36.5"/>
<line class="st5" x1="66.8" y1="36.5" x2="66.2" y2="37.7"/>
<line class="st5" x1="66.2" y1="37.7" x2="65.6" y2="38.3"/>
<line class="st5" x1="65.6" y1="38.3" x2="64.4" y2="39"/>
<line class="st5" x1="64.4" y1="39" x2="63.8" y2="40.2"/>
<line class="st5" x1="63.8" y1="40.2" x2="63.1" y2="40.8"/>
<line class="st5" x1="63.1" y1="40.8" x2="62.5" y2="41.4"/>
<line class="st5" x1="62.5" y1="41.4" x2="61.9" y2="42.7"/>
<line class="st5" x1="61.9" y1="42.7" x2="61.3" y2="43.3"/>
<line class="st5" x1="61.3" y1="43.3" x2="60.7" y2="43.9"/>
<line class="st5" x1="60.7" y1="43.9" x2="60.7" y2="45.1"/>
<line class="st5" x1="60.7" y1="45.1" x2="60" y2="45.8"/>
<line class="st5" x1="60" y1="45.8" x2="59.4" y2="47"/>
<line class="st5" x1="59.4" y1="47" x2="58.8" y2="47.6"/>
<line class="st5" x1="58.8" y1="47.6" x2="58.2" y2="48.9"/>
<line class="st5" x1="58.2" y1="48.9" x2="58.2" y2="49.5"/>
<line class="st5" x1="58.2" y1="49.5" x2="57.6" y2="50.7"/>
<line class="st5" x1="57.6" y1="50.7" x2="56.9" y2="51.3"/>
<line class="st5" x1="56.9" y1="51.3" x2="56.9" y2="52.6"/>
<line class="st5" x1="56.9" y1="52.6" x2="56.3" y2="53.8"/>
<line class="st5" x1="56.3" y1="53.8" x2="56.3" y2="54.4"/>
<line class="st5" x1="56.3" y1="54.4" x2="55.7" y2="55.7"/>
<line class="st5" x1="55.7" y1="55.7" x2="55.7" y2="56.3"/>
<line class="st5" x1="55.7" y1="56.3" x2="55.1" y2="57.5"/>
<line class="st5" x1="55.1" y1="57.5" x2="55.1" y2="58.2"/>
<line class="st5" x1="55.1" y1="58.2" x2="55.1" y2="59.4"/>
<line class="st5" x1="55.1" y1="59.4" x2="55.1" y2="60"/>
<line class="st5" x1="55.1" y1="60" x2="54.5" y2="61.2"/>
<line class="st5" x1="54.5" y1="61.2" x2="54.5" y2="62.5"/>
<line class="st5" x1="54.5" y1="62.5" x2="54.5" y2="63.1"/>
<line class="st5" x1="54.5" y1="63.1" x2="54.5" y2="64.3"/>
<line class="st5" x1="54.5" y1="64.3" x2="54.5" y2="65"/>
<line class="st5" x1="54.5" y1="65" x2="53.8" y2="66.2"/>
<line class="st5" x1="53.8" y1="66.2" x2="53.8" y2="66.8"/>
<line class="st5" x1="53.8" y1="66.8" x2="53.8" y2="68.1"/>
<line class="st5" x1="53.8" y1="68.1" x2="53.8" y2="68.7"/>
<line class="st5" x1="53.8" y1="68.7" x2="53.8" y2="69.9"/>
<line class="st5" x1="53.8" y1="69.9" x2="54.5" y2="70.5"/>
<line class="st5" x1="54.5" y1="70.5" x2="54.5" y2="71.8"/>
<line class="st5" x1="54.5" y1="71.8" x2="54.5" y2="72.4"/>
<line class="st5" x1="54.5" y1="72.4" x2="54.5" y2="73.6"/>
<line class="st5" x1="54.5" y1="73.6" x2="54.5" y2="74.2"/>
<line class="st5" x1="54.5" y1="74.2" x2="54.5" y2="75.5"/>
<line class="st5" x1="54.5" y1="75.5" x2="54.5" y2="76.1"/>
<line class="st5" x1="54.5" y1="76.1" x2="55.1" y2="76.7"/>
<line class="st5" x1="55.1" y1="76.7" x2="55.1" y2="77.9"/>
<line class="st5" x1="55.1" y1="77.9" x2="55.1" y2="78.6"/>
<line class="st5" x1="55.1" y1="78.6" x2="55.7" y2="79.2"/>
<line class="st5" x1="55.7" y1="79.2" x2="55.7" y2="80.4"/>
<line class="st5" x1="55.7" y1="80.4" x2="55.7" y2="81.1"/>
<line class="st5" x1="55.7" y1="81.1" x2="56.3" y2="81.7"/>
<line class="st5" x1="56.3" y1="81.7" x2="56.3" y2="82.9"/>
<line class="st5" x1="56.3" y1="82.9" x2="56.9" y2="83.5"/>
<line class="st5" x1="56.9" y1="83.5" x2="56.9" y2="84.1"/>
<line class="st5" x1="56.9" y1="84.1" x2="56.9" y2="84.8"/>
<line class="st5" x1="56.9" y1="84.8" x2="57.6" y2="86"/>
<line class="st5" x1="57.6" y1="86" x2="57.6" y2="86.6"/>
<line class="st5" x1="57.6" y1="86.6" x2="58.2" y2="87.2"/>
<line class="st5" x1="58.2" y1="87.2" x2="58.8" y2="87.9"/>
<line class="st5" x1="58.8" y1="87.9" x2="58.8" y2="88.5"/>
<line class="st5" x1="58.8" y1="88.5" x2="59.4" y2="89.1"/>
<line class="st5" x1="59.4" y1="89.1" x2="59.4" y2="90.3"/>
<line class="st5" x1="59.4" y1="90.3" x2="60" y2="90.9"/>
<line class="st5" x1="60" y1="90.9" x2="60" y2="91.6"/>
<line class="st5" x1="60" y1="91.6" x2="60.7" y2="92.2"/>
<line class="st5" x1="60.7" y1="92.2" x2="61.3" y2="92.8"/>
<line class="st5" x1="61.3" y1="92.8" x2="61.3" y2="93.4"/>
<line class="st5" x1="61.3" y1="93.4" x2="61.9" y2="94.1"/>
<line class="st5" x1="61.9" y1="94.1" x2="62.5" y2="94.7"/>
<line class="st5" x1="62.5" y1="94.7" x2="63.1" y2="95.3"/>
<line class="st5" x1="63.1" y1="95.3" x2="63.1" y2="95.9"/>
<line class="st5" x1="63.1" y1="95.9" x2="63.8" y2="95.9"/>
<line class="st5" x1="63.8" y1="95.9" x2="64.4" y2="96.5"/>
<line class="st5" x1="64.4" y1="96.5" x2="65" y2="97.2"/>
<line class="st5" x1="65" y1="97.2" x2="65" y2="97.8"/>
<line class="st5" x1="65" y1="97.8" x2="65.6" y2="98.4"/>
<line class="st5" x1="65.6" y1="98.4" x2="66.2" y2="99"/>
<line class="st5" x1="66.2" y1="99" x2="66.8" y2="99"/>
<line class="st5" x1="66.8" y1="99" x2="67.5" y2="99.6"/>
<line class="st5" x1="67.5" y1="99.6" x2="67.5" y2="100.2"/>
<line class="st5" x1="67.5" y1="100.2" x2="68.1" y2="100.9"/>
<line class="st5" x1="68.1" y1="100.9" x2="68.7" y2="100.9"/>
<line class="st5" x1="68.7" y1="100.9" x2="69.3" y2="101.5"/>
<line class="st5" x1="69.3" y1="101.5" x2="69.9" y2="101.5"/>
<line class="st5" x1="69.9" y1="101.5" x2="70.6" y2="102.1"/>
<line class="st5" x1="70.6" y1="102.1" x2="71.2" y2="102.1"/>
<line class="st5" x1="71.2" y1="102.1" x2="71.8" y2="102.7"/>
<line class="st5" x1="71.8" y1="102.7" x2="72.4" y2="102.7"/>
<line class="st5" x1="72.4" y1="102.7" x2="73" y2="103.3"/>
<line class="st5" x1="73" y1="103.3" x2="73.7" y2="103.3"/>
<line class="st5" x1="73.7" y1="103.3" x2="74.3" y2="104"/>
<line class="st5" x1="74.3" y1="104" x2="74.9" y2="104"/>
<line class="st5" x1="74.9" y1="104" x2="75.5" y2="104"/>
<line class="st5" x1="75.5" y1="104" x2="76.1" y2="104"/>
<line class="st5" x1="76.1" y1="104" x2="76.8" y2="104.6"/>
<line class="st5" x1="76.8" y1="104.6" x2="77.4" y2="104.6"/>
<line class="st5" x1="77.4" y1="104.6" x2="78.6" y2="104.6"/>
<line class="st5" x1="78.6" y1="104.6" x2="79.2" y2="104.6"/>
<line class="st5" x1="79.2" y1="104.6" x2="79.8" y2="104.6"/>
<line class="st5" x1="79.8" y1="104.6" x2="80.5" y2="104.6"/>
<line class="st5" x1="80.5" y1="104.6" x2="81.1" y2="104.6"/>
<line class="st5" x1="81.1" y1="104.6" x2="82.3" y2="104"/>
<line class="st5" x1="82.3" y1="104" x2="82.9" y2="104"/>
<line class="st5" x1="82.9" y1="104" x2="83.6" y2="104"/>
<line class="st5" x1="83.6" y1="104" x2="84.2" y2="104"/>
<line class="st5" x1="84.2" y1="104" x2="84.8" y2="103.3"/>
<line class="st5" x1="84.8" y1="103.3" x2="86" y2="103.3"/>
<line class="st5" x1="86" y1="103.3" x2="86.7" y2="102.7"/>
<line class="st5" x1="86.7" y1="102.7" x2="87.3" y2="102.1"/>
<line class="st5" x1="87.3" y1="102.1" x2="88.5" y2="102.1"/>
<line class="st5" x1="88.5" y1="102.1" x2="89.1" y2="101.5"/>
<line class="st5" x1="89.1" y1="101.5" x2="89.8" y2="100.9"/>
<line class="st5" x1="89.8" y1="100.9" x2="90.4" y2="100.2"/>
<line class="st5" x1="90.4" y1="100.2" x2="91.6" y2="99.6"/>
<line class="st5" x1="91.6" y1="99.6" x2="92.2" y2="99"/>
<line class="st5" x1="92.2" y1="99" x2="92.8" y2="97.8"/>
<line class="st5" x1="92.8" y1="97.8" x2="93.5" y2="97.2"/>
<line class="st5" x1="93.5" y1="97.2" x2="94.1" y2="96.5"/>
<line class="st5" x1="94.1" y1="96.5" x2="95.3" y2="95.3"/>
<line class="st5" x1="95.3" y1="95.3" x2="95.9" y2="94.7"/>
<line class="st5" x1="95.9" y1="94.7" x2="95.9" y2="94.1"/>
<line class="st5" x1="95.9" y1="94.1" x2="96.6" y2="93.4"/>
<line class="st5" x1="96.6" y1="93.4" x2="97.2" y2="92.8"/>
<line class="st5" x1="97.2" y1="92.8" x2="97.2" y2="92.2"/>
<line class="st5" x1="97.2" y1="92.2" x2="97.8" y2="91.6"/>
<line class="st5" x1="97.8" y1="91.6" x2="97.8" y2="91.6"/>
<line class="st5" x1="97.8" y1="91.6" x2="97.8" y2="92.2"/>
<line class="st5" x1="97.8" y1="92.2" x2="97.8" y2="92.8"/>
<line class="st5" x1="97.8" y1="92.8" x2="97.8" y2="93.4"/>
<line class="st5" x1="97.8" y1="93.4" x2="97.8" y2="94.1"/>
<line class="st5" x1="97.8" y1="94.1" x2="97.8" y2="94.7"/>
<line class="st5" x1="97.8" y1="94.7" x2="97.2" y2="95.9"/>
<line class="st5" x1="97.2" y1="95.9" x2="97.2" y2="96.5"/>
<line class="st5" x1="97.2" y1="96.5" x2="97.2" y2="97.8"/>
<line class="st5" x1="97.2" y1="97.8" x2="97.2" y2="99"/>
<line class="st5" x1="97.2" y1="99" x2="97.2" y2="99.6"/>
<line class="st5" x1="97.2" y1="99.6" x2="97.2" y2="100.9"/>
<line class="st5" x1="97.2" y1="100.9" x2="97.2" y2="101.5"/>
<line class="st5" x1="97.2" y1="101.5" x2="97.8" y2="102.7"/>
<line class="st5" x1="97.8" y1="102.7" x2="97.8" y2="103.3"/>
<line class="st5" x1="97.8" y1="103.3" x2="97.8" y2="104.6"/>
<line class="st5" x1="97.8" y1="104.6" x2="97.8" y2="105.2"/>
<line class="st5" x1="97.8" y1="105.2" x2="98.4" y2="105.8"/>
<line class="st5" x1="98.4" y1="105.8" x2="98.4" y2="106.4"/>
<line class="st5" x1="98.4" y1="106.4" x2="99" y2="107.1"/>
<line class="st5" x1="99" y1="107.1" x2="99" y2="107.7"/>
<line class="st5" x1="99" y1="107.7" x2="99.7" y2="108.3"/>
<line class="st5" x1="99.7" y1="108.3" x2="100.3" y2="108.9"/>
<line class="st5" x1="100.3" y1="108.9" x2="100.3" y2="109.5"/>
<line class="st5" x1="100.3" y1="109.5" x2="100.9" y2="110.1"/>
<line class="st5" x1="100.9" y1="110.1" x2="101.5" y2="110.8"/>
<line class="st5" x1="101.5" y1="110.8" x2="101.5" y2="110.8"/>
<line class="st5" x1="101.5" y1="110.8" x2="102.1" y2="111.4"/>
<line class="st5" x1="102.1" y1="111.4" x2="102.8" y2="111.4"/>
<line class="st5" x1="102.8" y1="111.4" x2="103.4" y2="112"/>
<line class="st5" x1="103.4" y1="112" x2="103.4" y2="112"/>
<line class="st5" x1="103.4" y1="112" x2="104" y2="112"/>
<line class="st5" x1="104" y1="112" x2="104.6" y2="112"/>
<line class="st5" x1="104.6" y1="112" x2="105.2" y2="112"/>
<line class="st5" x1="105.2" y1="112" x2="105.2" y2="112.6"/>
<line class="st5" x1="105.2" y1="112.6" x2="105.9" y2="112.6"/>
<line class="st5" x1="105.9" y1="112.6" x2="106.5" y2="112.6"/>
<line class="st5" x1="106.5" y1="112.6" x2="107.1" y2="112"/>
<line class="st5" x1="107.1" y1="112" x2="107.1" y2="112"/>
<line class="st5" x1="107.1" y1="112" x2="107.7" y2="112"/>
<line class="st5" x1="107.7" y1="112" x2="108.3" y2="112"/>
<line class="st5" x1="108.3" y1="112" x2="108.3" y2="112"/>
<line class="st5" x1="108.3" y1="112" x2="108.9" y2="111.4"/>
<line class="st5" x1="108.9" y1="111.4" x2="109.6" y2="111.4"/>
<line class="st5" x1="109.6" y1="111.4" x2="109.6" y2="110.8"/>
<line class="st5" x1="109.6" y1="110.8" x2="110.2" y2="110.8"/>
<line class="st5" x1="110.2" y1="110.8" x2="110.2" y2="110.1"/>
<line class="st5" x1="110.2" y1="110.1" x2="110.8" y2="110.1"/>
<line class="st5" x1="110.8" y1="110.1" x2="110.8" y2="109.5"/>
<line class="st5" x1="110.8" y1="109.5" x2="111.4" y2="108.9"/>
<line class="st5" x1="111.4" y1="108.9" x2="111.4" y2="108.9"/>
<line class="st5" x1="111.4" y1="108.9" x2="112" y2="108.3"/>
<line class="st5" x1="112" y1="108.3" x2="112" y2="107.7"/>
<line class="st5" x1="112" y1="107.7" x2="112" y2="107.1"/>
<line class="st5" x1="112" y1="107.1" x2="112.7" y2="106.4"/>
<line class="st5" x1="112.7" y1="106.4" x2="112.7" y2="105.8"/>
<line class="st5" x1="112.7" y1="105.8" x2="112.7" y2="105.2"/>
<line class="st5" x1="112.7" y1="105.2" x2="112.7" y2="104.6"/>
<line class="st5" x1="112.7" y1="104.6" x2="112.7" y2="104"/>
<line class="st5" x1="112.7" y1="104" x2="112.7" y2="103.3"/>
<line class="st5" x1="112.7" y1="103.3" x2="113.3" y2="102.7"/>
<line class="st5" x1="113.3" y1="102.7" x2="113.3" y2="102.1"/>
<line class="st5" x1="113.3" y1="102.1" x2="113.3" y2="101.5"/>
<line class="st5" x1="113.3" y1="101.5" x2="113.3" y2="100.9"/>
<line class="st5" x1="113.3" y1="100.9" x2="113.3" y2="100.2"/>
<line class="st5" x1="113.3" y1="100.2" x2="113.3" y2="99.6"/>
<line class="st5" x1="113.3" y1="99.6" x2="113.3" y2="99"/>
<line class="st5" x1="113.3" y1="99" x2="113.9" y2="99"/>
<line class="st5" x1="113.9" y1="99" x2="113.9" y2="99"/>
<line class="st5" x1="113.9" y1="99" x2="114.5" y2="99"/>
<line class="st5" x1="114.5" y1="99" x2="114.5" y2="98.4"/>
<line class="st5" x1="114.5" y1="98.4" x2="115.1" y2="98.4"/>
<line class="st5" x1="115.1" y1="98.4" x2="115.8" y2="98.4"/>
<line class="st5" x1="115.8" y1="98.4" x2="116.4" y2="98.4"/>
<line class="st5" x1="116.4" y1="98.4" x2="117" y2="98.4"/>
<line class="st5" x1="117" y1="98.4" x2="117.6" y2="98.4"/>
<line class="st5" x1="117.6" y1="98.4" x2="118.2" y2="98.4"/>
<line class="st5" x1="118.2" y1="98.4" x2="118.8" y2="98.4"/>
<line class="st5" x1="118.8" y1="98.4" x2="119.5" y2="98.4"/>
<line class="st5" x1="119.5" y1="98.4" x2="120.1" y2="98.4"/>
<line class="st5" x1="120.1" y1="98.4" x2="121.3" y2="98.4"/>
<line class="st5" x1="121.3" y1="98.4" x2="121.9" y2="98.4"/>
<line class="st5" x1="121.9" y1="98.4" x2="122.6" y2="97.8"/>
<line class="st5" x1="122.6" y1="97.8" x2="123.8" y2="97.8"/>
<line class="st5" x1="123.8" y1="97.8" x2="124.4" y2="97.8"/>
<line class="st5" x1="124.4" y1="97.8" x2="125.1" y2="97.8"/>
<line class="st5" x1="125.1" y1="97.8" x2="126.3" y2="97.2"/>
<line class="st5" x1="126.3" y1="97.2" x2="126.9" y2="97.2"/>
<line class="st5" x1="126.9" y1="97.2" x2="127.5" y2="97.2"/>
<line class="st5" x1="127.5" y1="97.2" x2="128.8" y2="96.5"/>
<line class="st5" x1="128.8" y1="96.5" x2="129.4" y2="96.5"/>
<line class="st5" x1="129.4" y1="96.5" x2="130" y2="95.9"/>
<line class="st5" x1="130" y1="95.9" x2="131.2" y2="95.9"/>
<line class="st5" x1="131.2" y1="95.9" x2="131.9" y2="95.3"/>
<line class="st5" x1="131.9" y1="95.3" x2="132.5" y2="94.7"/>
<line class="st5" x1="132.5" y1="94.7" x2="133.1" y2="94.7"/>
<line class="st5" x1="133.1" y1="94.7" x2="133.7" y2="94.1"/>
<line class="st5" x1="133.7" y1="94.1" x2="135" y2="93.4"/>
<line class="st5" x1="135" y1="93.4" x2="135.6" y2="92.8"/>
<line class="st5" x1="135.6" y1="92.8" x2="136.2" y2="92.2"/>
<line class="st5" x1="136.2" y1="92.2" x2="136.8" y2="91.6"/>
<line class="st5" x1="136.8" y1="91.6" x2="137.4" y2="90.9"/>
<line class="st5" x1="137.4" y1="90.9" x2="138.1" y2="90.3"/>
<line class="st5" x1="138.1" y1="90.3" x2="138.7" y2="89.7"/>
<line class="st5" x1="138.7" y1="89.7" x2="139.3" y2="89.1"/>
<line class="st5" x1="139.3" y1="89.1" x2="139.3" y2="88.5"/>
<line class="st5" x1="139.3" y1="88.5" x2="139.9" y2="87.9"/>
<line class="st5" x1="139.9" y1="87.9" x2="140.5" y2="87.2"/>
<line class="st5" x1="140.5" y1="87.2" x2="141.1" y2="86.6"/>
<line class="st5" x1="141.1" y1="86.6" x2="141.8" y2="86"/>
<line class="st5" x1="141.8" y1="86" x2="141.8" y2="84.8"/>
<line class="st5" x1="141.8" y1="84.8" x2="142.4" y2="84.1"/>
<line class="st5" x1="142.4" y1="84.1" x2="143" y2="83.5"/>
<line class="st5" x1="143" y1="83.5" x2="143" y2="82.9"/>
<line class="st5" x1="143" y1="82.9" x2="143.6" y2="81.7"/>
<line class="st5" x1="143.6" y1="81.7" x2="143.6" y2="81.1"/>
<line class="st5" x1="143.6" y1="81.1" x2="144.2" y2="80.4"/>
<line class="st5" x1="144.2" y1="80.4" x2="144.2" y2="79.2"/>
<line class="st5" x1="144.2" y1="79.2" x2="144.9" y2="78.6"/>
<line class="st5" x1="144.9" y1="78.6" x2="144.9" y2="77.3"/>
<line class="st5" x1="144.9" y1="77.3" x2="145.5" y2="76.7"/>
<line class="st5" x1="145.5" y1="76.7" x2="145.5" y2="76.1"/>
<line class="st5" x1="145.5" y1="76.1" x2="145.5" y2="74.9"/>
<line class="st5" x1="145.5" y1="74.9" x2="146.1" y2="74.2"/>
<line class="st5" x1="146.1" y1="74.2" x2="146.1" y2="73"/>
<line class="st5" x1="146.1" y1="73" x2="146.1" y2="72.4"/>
<line class="st5" x1="146.1" y1="72.4" x2="146.1" y2="71.1"/>
<line class="st5" x1="146.1" y1="71.1" x2="146.1" y2="70.5"/>
<line class="st5" x1="146.1" y1="70.5" x2="146.1" y2="69.3"/>
<line class="st5" x1="146.1" y1="69.3" x2="146.1" y2="68.7"/>
<line class="st5" x1="146.1" y1="68.7" x2="146.1" y2="67.4"/>
<line class="st5" x1="146.1" y1="67.4" x2="146.1" y2="66.2"/>
<line class="st5" x1="146.1" y1="66.2" x2="146.1" y2="65.6"/>
<line class="st5" x1="146.1" y1="65.6" x2="146.1" y2="64.3"/>
<line class="st5" x1="146.1" y1="64.3" x2="146.1" y2="63.7"/>
<line class="st5" x1="146.1" y1="63.7" x2="146.1" y2="62.5"/>
<line class="st5" x1="146.1" y1="62.5" x2="146.1" y2="61.9"/>
<line class="st5" x1="146.1" y1="61.9" x2="145.5" y2="60.6"/>
<line class="st5" x1="145.5" y1="60.6" x2="145.5" y2="60"/>
<line class="st5" x1="145.5" y1="60" x2="145.5" y2="58.8"/>
<line class="st5" x1="145.5" y1="58.8" x2="144.9" y2="57.5"/>
<line class="st5" x1="144.9" y1="57.5" x2="144.9" y2="56.9"/>
<line class="st5" x1="144.9" y1="56.9" x2="144.2" y2="55.7"/>
<line class="st5" x1="144.2" y1="55.7" x2="144.2" y2="55"/>
<line class="st5" x1="144.2" y1="55" x2="143.6" y2="53.8"/>
<line class="st5" x1="143.6" y1="53.8" x2="143.6" y2="53.2"/>
<line class="st5" x1="143.6" y1="53.2" x2="143" y2="52"/>
<line class="st5" x1="143" y1="52" x2="143" y2="51.3"/>
<line class="st5" x1="143" y1="51.3" x2="142.4" y2="50.1"/>
<line class="st5" x1="142.4" y1="50.1" x2="141.8" y2="49.5"/>
<line class="st5" x1="141.8" y1="49.5" x2="141.8" y2="48.2"/>
<line class="st5" x1="141.8" y1="48.2" x2="141.1" y2="47.6"/>
<line class="st5" x1="141.1" y1="47.6" x2="140.5" y2="46.4"/>
<line class="st5" x1="140.5" y1="46.4" x2="139.9" y2="45.8"/>
<line class="st5" x1="139.9" y1="45.8" x2="139.3" y2="44.5"/>
<line class="st5" x1="139.3" y1="44.5" x2="138.7" y2="43.9"/>
<line class="st5" x1="138.7" y1="43.9" x2="138.1" y2="42.7"/>
<line class="st5" x1="138.1" y1="42.7" x2="137.4" y2="42"/>
<line class="st5" x1="137.4" y1="42" x2="136.8" y2="41.4"/>
<line class="st5" x1="136.8" y1="41.4" x2="136.2" y2="40.2"/>
<line class="st5" x1="136.2" y1="40.2" x2="135.6" y2="39.6"/>
<line class="st5" x1="135.6" y1="39.6" x2="135" y2="39"/>
<line class="st5" x1="135" y1="39" x2="134.3" y2="37.7"/>
<line class="st5" x1="134.3" y1="37.7" x2="133.7" y2="37.1"/>
<line class="st5" x1="133.7" y1="37.1" x2="132.5" y2="36.5"/>
<line class="st5" x1="132.5" y1="36.5" x2="131.9" y2="35.9"/>
<line class="st5" x1="131.9" y1="35.9" x2="131.2" y2="34.6"/>
<line class="st5" x1="131.2" y1="34.6" x2="130.6" y2="34"/>
<line class="st5" x1="130.6" y1="34" x2="129.4" y2="33.4"/>
<line class="st5" x1="129.4" y1="33.4" x2="128.8" y2="32.8"/>
<line class="st5" x1="128.8" y1="32.8" x2="127.5" y2="32.1"/>
<line class="st5" x1="127.5" y1="32.1" x2="126.9" y2="31.5"/>
<line class="st5" x1="126.9" y1="31.5" x2="125.7" y2="30.9"/>
<line class="st5" x1="125.7" y1="30.9" x2="125.1" y2="30.3"/>
<line class="st5" x1="125.1" y1="30.3" x2="123.8" y2="29.7"/>
<line class="st5" x1="123.8" y1="29.7" x2="123.2" y2="29"/>
<line class="st5" x1="123.2" y1="29" x2="121.9" y2="28.4"/>
<line class="st5" x1="121.9" y1="28.4" x2="121.3" y2="27.8"/>
<line class="st5" x1="121.3" y1="27.8" x2="120.1" y2="27.8"/>
<line class="st5" x1="120.1" y1="27.8" x2="119.5" y2="27.2"/>
<line class="st5" x1="119.5" y1="27.2" x2="118.2" y2="26.6"/>
<line class="st5" x1="118.2" y1="26.6" x2="117" y2="26"/>
<line class="st5" x1="117" y1="26" x2="116.4" y2="26"/>
<line class="st5" x1="116.4" y1="26" x2="115.1" y2="25.3"/>
<line class="st5" x1="115.1" y1="25.3" x2="113.9" y2="25.3"/>
<line class="st5" x1="113.9" y1="25.3" x2="112.7" y2="24.7"/>
<line class="st5" x1="112.7" y1="24.7" x2="112" y2="24.1"/>
<line class="st5" x1="112" y1="24.1" x2="110.8" y2="24.1"/>
<line class="st5" x1="110.8" y1="24.1" x2="109.6" y2="24.1"/>
<line class="st5" x1="109.6" y1="24.1" x2="108.3" y2="23.5"/>
<line class="st5" x1="108.3" y1="23.5" x2="107.7" y2="23.5"/>
<line class="st5" x1="107.7" y1="23.5" x2="106.5" y2="23.5"/>
<line class="st5" x1="106.5" y1="23.5" x2="105.2" y2="22.9"/>
<line class="st5" x1="105.2" y1="22.9" x2="104" y2="22.9"/>
<line class="st5" x1="104" y1="22.9" x2="102.8" y2="22.9"/>
<line class="st5" x1="102.8" y1="22.9" x2="102.1" y2="22.9"/>
<line class="st5" x1="102.1" y1="22.9" x2="100.9" y2="22.9"/>
<line class="st5" x1="100.9" y1="22.9" x2="99.7" y2="22.9"/>
<line class="st6" x1="99.7" y1="14.8" x2="99.7" y2="87.2"/>
<text transform="matrix(1 0 0 1 53.88 196.8)" class="st2 st3 st4">T</text>
<text transform="matrix(1 0 0 1 58.47 196.8)" class="st2 st3 st4">h</text>
<text transform="matrix(1 0 0 1 63.64 196.8)" class="st2 st3 st4">e</text>
<text transform="matrix(1 0 0 1 68.24 196.8)" class="st2 st3 st4">t</text>
<text transform="matrix(1 0 0 1 71.36 196.8)" class="st2 st3 st4">a</text>
<text transform="matrix(1 0 0 1 75.79 196.8)" class="st2 st3 st4"> </text>
<text transform="matrix(1 0 0 1 77.65 196.8)" class="st2 st3 st4">/ </text>
<text transform="matrix(1 0 0 1 82.77 196.8)" class="st2 st3 st4">D</text>
<text transform="matrix(1 0 0 1 88.88 196.8)" class="st2 st3 st4">e</text>
<text transform="matrix(1 0 0 1 93.56 196.8)" class="st2 st3 st4">g</text>
<text transform="matrix(1 0 0 1 98.73 196.8)" class="st2 st3 st4">r</text>
<text transform="matrix(1 0 0 1 101.77 196.8)" class="st2 st3 st4">ee</text>
<text transform="matrix(1 0 0 1 111.13 196.8)" class="st2 st3 st4"> </text>
<text transform="matrix(1 0 0 1 113.08 196.8)" class="st2 st3 st4">v</text>
<text transform="matrix(1 0 0 1 117.47 196.8)" class="st2 st3 st4">s</text>
<text transform="matrix(1 0 0 1 121.09 196.8)" class="st2 st3 st4">. d</text>
<text transform="matrix(1 0 0 1 130.16 196.8)" class="st2 st3 st4">B</text>
<text transform="matrix(1 0 0 1 135.11 196.8)" class="st2 st3 st4">i</text>
</svg>
