<?xml version="1.0" encoding="utf-8"?>
<!-- Generator: Adobe Illustrator 21.0.0, SVG Export Plug-In . SVG Version: 6.00 Build 0)  -->
<svg version="1.1" id="Layer_1" xmlns="http://www.w3.org/2000/svg" xmlns:xlink="http://www.w3.org/1999/xlink" x="0px" y="0px"
	 viewBox="0 0 198.7 199.1" style="enable-background:new 0 0 198.7 199.1;" xml:space="preserve">
<style type="text/css">
	.st0{fill:none;stroke:#010101;stroke-width:0.62;stroke-linecap:round;stroke-linejoin:round;}
	.st1{fill:#FFFFFF;}
	.st2{fill:#010101;}
	.st3{font-family:'ArialMT';}
	.st4{font-size:9.29px;}
	.st5{fill:none;stroke:#ED2224;stroke-width:1.24;stroke-linecap:round;stroke-linejoin:round;}
	.st6{fill:none;stroke:#3A53A4;stroke-width:1.24;stroke-linecap:round;stroke-linejoin:round;}
</style>
<title>patternH_2.4G_Patch_EdgeFed_FR4</title>
<line class="st0" x1="159.8" y1="51.3" x2="97.3" y2="87.2"/>
<line class="st0" x1="133.8" y1="24.7" x2="97.3" y2="87.2"/>
<line class="st0" x1="61.3" y1="24.7" x2="97.3" y2="87.2"/>
<line class="st0" x1="34.7" y1="51.3" x2="97.3" y2="87.2"/>
<line class="st0" x1="34.7" y1="123.8" x2="97.3" y2="87.2"/>
<line class="st0" x1="60.7" y1="149.8" x2="97.3" y2="87.2"/>
<line class="st0" x1="133.8" y1="149.8" x2="97.3" y2="87.2"/>
<line class="st0" x1="159.8" y1="123.8" x2="97.3" y2="87.2"/>
<line class="st0" x1="169.7" y1="87.2" x2="97.3" y2="87.2"/>
<line class="st0" x1="97.3" y1="14.8" x2="97.3" y2="87.2"/>
<line class="st0" x1="24.8" y1="87.2" x2="97.3" y2="87.2"/>
<line class="st0" x1="97.3" y1="159.7" x2="97.3" y2="87.2"/>
<line class="st0" x1="169.7" y1="87.2" x2="97.3" y2="87.2"/>
<ellipse class="st0" cx="97.3" cy="86.9" rx="14.2" ry="13.9"/>
<ellipse class="st0" cx="97.3" cy="86.9" rx="29.1" ry="28.8"/>
<ellipse class="st0" cx="97.3" cy="86.9" rx="43.3" ry="43"/>
<ellipse class="st0" cx="97.3" cy="86.9" rx="58.2" ry="57.9"/>
<ellipse class="st0" cx="97.3" cy="86.9" rx="72.4" ry="72.1"/>
<rect x="93.6" class="st1" width="6.7" height="13"/>
<text transform="matrix(1 0 0 1 94.8 10.44)" class="st2 st3 st4">0</text>
<rect x="171" y="80.4" class="st1" width="11.8" height="13.1"/>
<text transform="matrix(1 0 0 1 172.2 90.96)" class="st2 st3 st4">9</text>
<text transform="matrix(1 0 0 1 176.92 90.96)" class="st2 st3 st4">0</text>
<rect x="161" y="37.7" class="st1" width="11.8" height="13.1"/>
<text transform="matrix(1 0 0 1 162.24 48.24)" class="st2 st3 st4">6</text>
<text transform="matrix(1 0 0 1 166.96 48.24)" class="st2 st3 st4">0</text>
<rect x="133.2" y="9.8" class="st1" width="11.8" height="13.1"/>
<text transform="matrix(1 0 0 1 134.4 20.4)" class="st2 st3 st4">3</text>
<text transform="matrix(1 0 0 1 139.12 20.4)" class="st2 st3 st4">0</text>
<rect x="49" y="9.8" class="st1" width="11.8" height="13.1"/>
<text transform="matrix(1 0 0 1 50.16 20.4)" class="st2 st3 st4">3</text>
<text transform="matrix(1 0 0 1 54.88 20.4)" class="st2 st3 st4">0</text>
<rect x="21.1" y="37.7" class="st1" width="11.8" height="13.1"/>
<text transform="matrix(1 0 0 1 22.32 48.24)" class="st2 st3 st4">6</text>
<text transform="matrix(1 0 0 1 27.04 48.24)" class="st2 st3 st4">0</text>
<rect x="11.2" y="80.4" class="st1" width="11.8" height="13.1"/>
<text transform="matrix(1 0 0 1 12.48 90.96)" class="st2 st3 st4">9</text>
<text transform="matrix(1 0 0 1 17.2 90.96)" class="st2 st3 st4">0</text>
<rect x="16.2" y="123.1" class="st1" width="16.7" height="13.1"/>
<text transform="matrix(1 0 0 1 17.4 133.68)" class="st2 st3 st4">12</text>
<text transform="matrix(1 0 0 1 26.83 133.68)" class="st2 st3 st4">0</text>
<rect x="44" y="151" class="st1" width="16.7" height="13.1"/>
<text transform="matrix(1 0 0 1 45.24 161.52)" class="st2 st3 st4">15</text>
<text transform="matrix(1 0 0 1 54.67 161.52)" class="st2 st3 st4">0</text>
<rect x="88.6" y="160.9" class="st1" width="16.8" height="13"/>
<text transform="matrix(1 0 0 1 89.88 171.36)" class="st2 st3 st4">18</text>
<text transform="matrix(1 0 0 1 99.31 171.36)" class="st2 st3 st4">0</text>
<rect x="133.2" y="151" class="st1" width="16.7" height="13.1"/>
<text transform="matrix(1 0 0 1 134.4 161.52)" class="st2 st3 st4">15</text>
<text transform="matrix(1 0 0 1 143.83 161.52)" class="st2 st3 st4">0</text>
<rect x="161" y="123.1" class="st1" width="16.7" height="13.1"/>
<text transform="matrix(1 0 0 1 162.24 133.68)" class="st2 st3 st4">12</text>
<text transform="matrix(1 0 0 1 171.67 133.68)" class="st2 st3 st4">0</text>
<rect x="136.9" y="91" class="st1" width="6.8" height="13"/>
<text transform="matrix(1 0 0 1 138.12 101.4)" class="st2 st3 st4">0</text>
<rect x="151.8" y="91" class="st1" width="6.7" height="13"/>
<text transform="matrix(1 0 0 1 153 101.4)" class="st2 st3 st4">5</text>
<rect x="120.8" y="91" class="st1" width="10.4" height="13"/>
<text transform="matrix(1 0 0 1 122.04 101.4)" class="st2 st3 st4">-</text>
<text transform="matrix(1 0 0 1 124.86 101.4)" class="st2 st3 st4">5</text>
<rect x="89.2" y="91" class="st1" width="15.5" height="13"/>
<text transform="matrix(1 0 0 1 90.48 101.4)" class="st2 st3 st4">-</text>
<text transform="matrix(1 0 0 1 93.3 101.4)" class="st2 st3 st4">1</text>
<text transform="matrix(1 0 0 1 98.02 101.4)" class="st2 st3 st4">5</text>
<text transform="matrix(1 0 0 1 193.89 23.4)" class="st2 st3 st4">0</text>
<text transform="matrix(1 0 0 1 188.87 23.4)" class="st2 st3 st4">8</text>
<text transform="matrix(1 0 0 1 183.84 23.4)" class="st2 st3 st4">1</text>
<text transform="matrix(1 0 0 1 177.14 23.4)" class="st2 st3 st4">=</text>
<text transform="matrix(1 0 0 1 175 23.4)" class="st2 st3 st4">i</text>
<text transform="matrix(1 0 0 1 169.79 23.4)" class="st2 st3 st4">h</text>
<text transform="matrix(1 0 0 1 164.77 23.4)" class="st2 st3 st4">P</text>
<text transform="matrix(1 0 0 1 24.84 23.4)" class="st2 st3 st4">0</text>
<text transform="matrix(1 0 0 1 12.37 23.4)" class="st2 st3 st4">=</text>
<text transform="matrix(1 0 0 1 10.23 23.4)" class="st2 st3 st4">i</text>
<text transform="matrix(1 0 0 1 5.02 23.4)" class="st2 st3 st4">h</text>
<text transform="matrix(1 0 0 1 0 23.4)" class="st2 st3 st4">P</text>
<line class="st5" x1="97.3" y1="24.1" x2="96" y2="24.1"/>
<line class="st5" x1="96" y1="24.1" x2="94.8" y2="24.7"/>
<line class="st5" x1="94.8" y1="24.7" x2="94.2" y2="24.7"/>
<line class="st5" x1="94.2" y1="24.7" x2="92.9" y2="24.7"/>
<line class="st5" x1="92.9" y1="24.7" x2="91.7" y2="24.7"/>
<line class="st5" x1="91.7" y1="24.7" x2="90.4" y2="24.7"/>
<line class="st5" x1="90.4" y1="24.7" x2="89.8" y2="25.3"/>
<line class="st5" x1="89.8" y1="25.3" x2="88.6" y2="25.3"/>
<line class="st5" x1="88.6" y1="25.3" x2="87.3" y2="25.3"/>
<line class="st5" x1="87.3" y1="25.3" x2="86.7" y2="26"/>
<line class="st5" x1="86.7" y1="26" x2="85.5" y2="26"/>
<line class="st5" x1="85.5" y1="26" x2="84.3" y2="26.6"/>
<line class="st5" x1="84.3" y1="26.6" x2="83" y2="26.6"/>
<line class="st5" x1="83" y1="26.6" x2="82.4" y2="27.2"/>
<line class="st5" x1="82.4" y1="27.2" x2="81.2" y2="27.8"/>
<line class="st5" x1="81.2" y1="27.8" x2="80.5" y2="27.8"/>
<line class="st5" x1="80.5" y1="27.8" x2="79.3" y2="28.4"/>
<line class="st5" x1="79.3" y1="28.4" x2="78.1" y2="29"/>
<line class="st5" x1="78.1" y1="29" x2="77.4" y2="29.7"/>
<line class="st5" x1="77.4" y1="29.7" x2="76.2" y2="30.3"/>
<line class="st5" x1="76.2" y1="30.3" x2="75.6" y2="30.3"/>
<line class="st5" x1="75.6" y1="30.3" x2="74.3" y2="30.9"/>
<line class="st5" x1="74.3" y1="30.9" x2="73.7" y2="31.5"/>
<line class="st5" x1="73.7" y1="31.5" x2="73.1" y2="32.1"/>
<line class="st5" x1="73.1" y1="32.1" x2="71.9" y2="32.8"/>
<line class="st5" x1="71.9" y1="32.8" x2="71.3" y2="34"/>
<line class="st5" x1="71.3" y1="34" x2="70" y2="34.6"/>
<line class="st5" x1="70" y1="34.6" x2="69.4" y2="35.2"/>
<line class="st5" x1="69.4" y1="35.2" x2="68.8" y2="35.9"/>
<line class="st5" x1="68.8" y1="35.9" x2="68.2" y2="36.5"/>
<line class="st5" x1="68.2" y1="36.5" x2="67.5" y2="37.1"/>
<line class="st5" x1="67.5" y1="37.1" x2="66.3" y2="38.3"/>
<line class="st5" x1="66.3" y1="38.3" x2="65.7" y2="39"/>
<line class="st5" x1="65.7" y1="39" x2="65.1" y2="39.6"/>
<line class="st5" x1="65.1" y1="39.6" x2="64.4" y2="40.8"/>
<line class="st5" x1="64.4" y1="40.8" x2="63.8" y2="41.4"/>
<line class="st5" x1="63.8" y1="41.4" x2="63.2" y2="42"/>
<line class="st5" x1="63.2" y1="42" x2="62.6" y2="43.3"/>
<line class="st5" x1="62.6" y1="43.3" x2="62" y2="43.9"/>
<line class="st5" x1="62" y1="43.9" x2="62" y2="45.1"/>
<line class="st5" x1="62" y1="45.1" x2="61.3" y2="45.8"/>
<line class="st5" x1="61.3" y1="45.8" x2="60.7" y2="46.4"/>
<line class="st5" x1="60.7" y1="46.4" x2="60.1" y2="47.6"/>
<line class="st5" x1="60.1" y1="47.6" x2="60.1" y2="48.2"/>
<line class="st5" x1="60.1" y1="48.2" x2="59.5" y2="49.5"/>
<line class="st5" x1="59.5" y1="49.5" x2="58.9" y2="50.1"/>
<line class="st5" x1="58.9" y1="50.1" x2="58.9" y2="51.3"/>
<line class="st5" x1="58.9" y1="51.3" x2="58.3" y2="52"/>
<line class="st5" x1="58.3" y1="52" x2="58.3" y2="53.2"/>
<line class="st5" x1="58.3" y1="53.2" x2="57.6" y2="54.4"/>
<line class="st5" x1="57.6" y1="54.4" x2="57.6" y2="55"/>
<line class="st5" x1="57.6" y1="55" x2="57" y2="56.3"/>
<line class="st5" x1="57" y1="56.3" x2="57" y2="56.9"/>
<line class="st5" x1="57" y1="56.9" x2="57" y2="58.2"/>
<line class="st5" x1="57" y1="58.2" x2="57" y2="58.8"/>
<line class="st5" x1="57" y1="58.8" x2="56.4" y2="60"/>
<line class="st5" x1="56.4" y1="60" x2="56.4" y2="60.6"/>
<line class="st5" x1="56.4" y1="60.6" x2="56.4" y2="61.9"/>
<line class="st5" x1="56.4" y1="61.9" x2="56.4" y2="62.5"/>
<line class="st5" x1="56.4" y1="62.5" x2="56.4" y2="63.7"/>
<line class="st5" x1="56.4" y1="63.7" x2="56.4" y2="64.3"/>
<line class="st5" x1="56.4" y1="64.3" x2="56.4" y2="65.6"/>
<line class="st5" x1="56.4" y1="65.6" x2="56.4" y2="66.2"/>
<line class="st5" x1="56.4" y1="66.2" x2="56.4" y2="67.4"/>
<line class="st5" x1="56.4" y1="67.4" x2="56.4" y2="68.1"/>
<line class="st5" x1="56.4" y1="68.1" x2="56.4" y2="69.3"/>
<line class="st5" x1="56.4" y1="69.3" x2="57" y2="69.9"/>
<line class="st5" x1="57" y1="69.9" x2="57" y2="71.1"/>
<line class="st5" x1="57" y1="71.1" x2="57" y2="71.8"/>
<line class="st5" x1="57" y1="71.8" x2="57" y2="72.4"/>
<line class="st5" x1="57" y1="72.4" x2="57.6" y2="73.6"/>
<line class="st5" x1="57.6" y1="73.6" x2="57.6" y2="74.2"/>
<line class="st5" x1="57.6" y1="74.2" x2="57.6" y2="75.5"/>
<line class="st5" x1="57.6" y1="75.5" x2="58.3" y2="76.1"/>
<line class="st5" x1="58.3" y1="76.1" x2="58.3" y2="76.7"/>
<line class="st5" x1="58.3" y1="76.7" x2="58.9" y2="77.3"/>
<line class="st5" x1="58.9" y1="77.3" x2="58.9" y2="78.6"/>
<line class="st5" x1="58.9" y1="78.6" x2="59.5" y2="79.2"/>
<line class="st5" x1="59.5" y1="79.2" x2="59.5" y2="79.8"/>
<line class="st5" x1="59.5" y1="79.8" x2="60.1" y2="80.4"/>
<line class="st5" x1="60.1" y1="80.4" x2="60.1" y2="81.7"/>
<line class="st5" x1="60.1" y1="81.7" x2="60.7" y2="82.3"/>
<line class="st5" x1="60.7" y1="82.3" x2="60.7" y2="82.9"/>
<line class="st5" x1="60.7" y1="82.9" x2="61.3" y2="83.5"/>
<line class="st5" x1="61.3" y1="83.5" x2="62" y2="84.1"/>
<line class="st5" x1="62" y1="84.1" x2="62" y2="84.8"/>
<line class="st5" x1="62" y1="84.8" x2="62.6" y2="85.4"/>
<line class="st5" x1="62.6" y1="85.4" x2="62.6" y2="86"/>
<line class="st5" x1="62.6" y1="86" x2="63.2" y2="86.6"/>
<line class="st5" x1="63.2" y1="86.6" x2="63.8" y2="87.2"/>
<line class="st5" x1="63.8" y1="87.2" x2="64.4" y2="87.9"/>
<line class="st5" x1="64.4" y1="87.9" x2="64.4" y2="88.5"/>
<line class="st5" x1="64.4" y1="88.5" x2="65.1" y2="89.1"/>
<line class="st5" x1="65.1" y1="89.1" x2="65.7" y2="89.7"/>
<line class="st5" x1="65.7" y1="89.7" x2="65.7" y2="89.7"/>
<line class="st5" x1="65.7" y1="89.7" x2="66.3" y2="90.3"/>
<line class="st5" x1="66.3" y1="90.3" x2="66.9" y2="90.9"/>
<line class="st5" x1="66.9" y1="90.9" x2="67.5" y2="91.6"/>
<line class="st5" x1="67.5" y1="91.6" x2="67.5" y2="92.2"/>
<line class="st5" x1="67.5" y1="92.2" x2="68.2" y2="92.2"/>
<line class="st5" x1="68.2" y1="92.2" x2="68.8" y2="92.8"/>
<line class="st5" x1="68.8" y1="92.8" x2="68.8" y2="93.4"/>
<line class="st5" x1="68.8" y1="93.4" x2="69.4" y2="93.4"/>
<line class="st5" x1="69.4" y1="93.4" x2="70" y2="94.1"/>
<line class="st5" x1="70" y1="94.1" x2="70.6" y2="94.7"/>
<line class="st5" x1="70.6" y1="94.7" x2="70.6" y2="94.7"/>
<line class="st5" x1="70.6" y1="94.7" x2="71.3" y2="95.3"/>
<line class="st5" x1="71.3" y1="95.3" x2="71.9" y2="95.3"/>
<line class="st5" x1="71.9" y1="95.3" x2="72.5" y2="95.9"/>
<line class="st5" x1="72.5" y1="95.9" x2="72.5" y2="95.9"/>
<line class="st5" x1="72.5" y1="95.9" x2="73.1" y2="96.5"/>
<line class="st5" x1="73.1" y1="96.5" x2="73.7" y2="96.5"/>
<line class="st5" x1="73.7" y1="96.5" x2="74.3" y2="97.2"/>
<line class="st5" x1="74.3" y1="97.2" x2="74.3" y2="97.2"/>
<line class="st5" x1="74.3" y1="97.2" x2="75" y2="97.8"/>
<line class="st5" x1="75" y1="97.8" x2="75.6" y2="97.8"/>
<line class="st5" x1="75.6" y1="97.8" x2="75.6" y2="98.4"/>
<line class="st5" x1="75.6" y1="98.4" x2="76.2" y2="98.4"/>
<line class="st5" x1="76.2" y1="98.4" x2="76.8" y2="98.4"/>
<line class="st5" x1="76.8" y1="98.4" x2="77.4" y2="99"/>
<line class="st5" x1="77.4" y1="99" x2="77.4" y2="99"/>
<line class="st5" x1="77.4" y1="99" x2="78.1" y2="99"/>
<line class="st5" x1="78.1" y1="99" x2="78.7" y2="99.6"/>
<line class="st5" x1="78.7" y1="99.6" x2="78.7" y2="99.6"/>
<line class="st5" x1="78.7" y1="99.6" x2="79.3" y2="99.6"/>
<line class="st5" x1="79.3" y1="99.6" x2="79.9" y2="99.6"/>
<line class="st5" x1="79.9" y1="99.6" x2="79.9" y2="100.2"/>
<line class="st5" x1="79.9" y1="100.2" x2="80.5" y2="100.2"/>
<line class="st5" x1="80.5" y1="100.2" x2="81.2" y2="100.2"/>
<line class="st5" x1="81.2" y1="100.2" x2="81.8" y2="100.2"/>
<line class="st5" x1="81.8" y1="100.2" x2="81.8" y2="100.9"/>
<line class="st5" x1="81.8" y1="100.9" x2="82.4" y2="100.9"/>
<line class="st5" x1="82.4" y1="100.9" x2="83" y2="100.9"/>
<line class="st5" x1="83" y1="100.9" x2="83" y2="100.9"/>
<line class="st5" x1="83" y1="100.9" x2="83.6" y2="100.9"/>
<line class="st5" x1="83.6" y1="100.9" x2="84.3" y2="100.9"/>
<line class="st5" x1="84.3" y1="100.9" x2="84.3" y2="100.9"/>
<line class="st5" x1="84.3" y1="100.9" x2="84.9" y2="100.9"/>
<line class="st5" x1="84.9" y1="100.9" x2="85.5" y2="100.9"/>
<line class="st5" x1="85.5" y1="100.9" x2="85.5" y2="100.9"/>
<line class="st5" x1="85.5" y1="100.9" x2="86.1" y2="100.9"/>
<line class="st5" x1="86.1" y1="100.9" x2="86.7" y2="100.9"/>
<line class="st5" x1="86.7" y1="100.9" x2="86.7" y2="100.9"/>
<line class="st5" x1="86.7" y1="100.9" x2="87.3" y2="100.9"/>
<line class="st5" x1="87.3" y1="100.9" x2="87.3" y2="100.9"/>
<line class="st5" x1="87.3" y1="100.9" x2="88" y2="100.9"/>
<line class="st5" x1="88" y1="100.9" x2="88.6" y2="100.9"/>
<line class="st5" x1="88.6" y1="100.9" x2="88.6" y2="100.9"/>
<line class="st5" x1="88.6" y1="100.9" x2="89.2" y2="100.9"/>
<line class="st5" x1="89.2" y1="100.9" x2="89.2" y2="100.9"/>
<line class="st5" x1="89.2" y1="100.9" x2="89.8" y2="100.9"/>
<line class="st5" x1="89.8" y1="100.9" x2="89.8" y2="100.9"/>
<line class="st5" x1="89.8" y1="100.9" x2="90.4" y2="100.9"/>
<line class="st5" x1="90.4" y1="100.9" x2="91.1" y2="100.2"/>
<line class="st5" x1="91.1" y1="100.2" x2="91.1" y2="100.2"/>
<line class="st5" x1="91.1" y1="100.2" x2="91.7" y2="100.2"/>
<line class="st5" x1="91.7" y1="100.2" x2="91.7" y2="100.2"/>
<line class="st5" x1="91.7" y1="100.2" x2="92.3" y2="100.2"/>
<line class="st5" x1="92.3" y1="100.2" x2="92.3" y2="100.2"/>
<line class="st5" x1="92.3" y1="100.2" x2="92.9" y2="99.6"/>
<line class="st5" x1="92.9" y1="99.6" x2="92.9" y2="99.6"/>
<line class="st5" x1="92.9" y1="99.6" x2="92.9" y2="99.6"/>
<line class="st5" x1="92.9" y1="99.6" x2="93.6" y2="99.6"/>
<line class="st5" x1="93.6" y1="99.6" x2="93.6" y2="99.6"/>
<line class="st5" x1="93.6" y1="99.6" x2="94.2" y2="99"/>
<line class="st5" x1="94.2" y1="99" x2="94.2" y2="99"/>
<line class="st5" x1="94.2" y1="99" x2="94.8" y2="99"/>
<line class="st5" x1="94.8" y1="99" x2="94.8" y2="99"/>
<line class="st5" x1="94.8" y1="99" x2="94.8" y2="99"/>
<line class="st5" x1="94.8" y1="99" x2="95.4" y2="99"/>
<line class="st5" x1="95.4" y1="99" x2="95.4" y2="99"/>
<line class="st5" x1="95.4" y1="99" x2="95.4" y2="98.4"/>
<line class="st5" x1="95.4" y1="98.4" x2="96" y2="98.4"/>
<line class="st5" x1="96" y1="98.4" x2="96" y2="98.4"/>
<line class="st5" x1="96" y1="98.4" x2="96.6" y2="98.4"/>
<line class="st5" x1="96.6" y1="98.4" x2="96.6" y2="98.4"/>
<line class="st5" x1="96.6" y1="98.4" x2="96.6" y2="98.4"/>
<line class="st5" x1="96.6" y1="98.4" x2="97.3" y2="98.4"/>
<line class="st5" x1="97.3" y1="98.4" x2="97.3" y2="98.4"/>
<line class="st5" x1="97.3" y1="98.4" x2="97.3" y2="98.4"/>
<line class="st5" x1="97.3" y1="98.4" x2="97.9" y2="98.4"/>
<line class="st5" x1="97.9" y1="98.4" x2="97.9" y2="98.4"/>
<line class="st5" x1="97.9" y1="98.4" x2="97.9" y2="98.4"/>
<line class="st5" x1="97.9" y1="98.4" x2="98.5" y2="98.4"/>
<line class="st5" x1="98.5" y1="98.4" x2="98.5" y2="98.4"/>
<line class="st5" x1="98.5" y1="98.4" x2="99.1" y2="98.4"/>
<line class="st5" x1="99.1" y1="98.4" x2="99.1" y2="99"/>
<line class="st5" x1="99.1" y1="99" x2="99.1" y2="99"/>
<line class="st5" x1="99.1" y1="99" x2="99.7" y2="99"/>
<line class="st5" x1="99.7" y1="99" x2="99.7" y2="99"/>
<line class="st5" x1="99.7" y1="99" x2="99.7" y2="99"/>
<line class="st5" x1="99.7" y1="99" x2="100.4" y2="99"/>
<line class="st5" x1="100.4" y1="99" x2="100.4" y2="99"/>
<line class="st5" x1="100.4" y1="99" x2="101" y2="99.6"/>
<line class="st5" x1="101" y1="99.6" x2="101" y2="99.6"/>
<line class="st5" x1="101" y1="99.6" x2="101.6" y2="99.6"/>
<line class="st5" x1="101.6" y1="99.6" x2="101.6" y2="99.6"/>
<line class="st5" x1="101.6" y1="99.6" x2="101.6" y2="99.6"/>
<line class="st5" x1="101.6" y1="99.6" x2="102.2" y2="100.2"/>
<line class="st5" x1="102.2" y1="100.2" x2="102.2" y2="100.2"/>
<line class="st5" x1="102.2" y1="100.2" x2="102.8" y2="100.2"/>
<line class="st5" x1="102.8" y1="100.2" x2="102.8" y2="100.2"/>
<line class="st5" x1="102.8" y1="100.2" x2="103.5" y2="100.2"/>
<line class="st5" x1="103.5" y1="100.2" x2="103.5" y2="100.2"/>
<line class="st5" x1="103.5" y1="100.2" x2="104.1" y2="100.9"/>
<line class="st5" x1="104.1" y1="100.9" x2="104.7" y2="100.9"/>
<line class="st5" x1="104.7" y1="100.9" x2="104.7" y2="100.9"/>
<line class="st5" x1="104.7" y1="100.9" x2="105.3" y2="100.9"/>
<line class="st5" x1="105.3" y1="100.9" x2="105.3" y2="100.9"/>
<line class="st5" x1="105.3" y1="100.9" x2="105.9" y2="100.9"/>
<line class="st5" x1="105.9" y1="100.9" x2="105.9" y2="100.9"/>
<line class="st5" x1="105.9" y1="100.9" x2="106.6" y2="100.9"/>
<line class="st5" x1="106.6" y1="100.9" x2="107.2" y2="100.9"/>
<line class="st5" x1="107.2" y1="100.9" x2="107.2" y2="100.9"/>
<line class="st5" x1="107.2" y1="100.9" x2="107.8" y2="100.9"/>
<line class="st5" x1="107.8" y1="100.9" x2="107.8" y2="100.9"/>
<line class="st5" x1="107.8" y1="100.9" x2="108.4" y2="100.9"/>
<line class="st5" x1="108.4" y1="100.9" x2="109" y2="100.9"/>
<line class="st5" x1="109" y1="100.9" x2="109" y2="100.9"/>
<line class="st5" x1="109" y1="100.9" x2="109.6" y2="100.9"/>
<line class="st5" x1="109.6" y1="100.9" x2="110.3" y2="100.9"/>
<line class="st5" x1="110.3" y1="100.9" x2="110.3" y2="100.9"/>
<line class="st5" x1="110.3" y1="100.9" x2="110.9" y2="100.9"/>
<line class="st5" x1="110.9" y1="100.9" x2="111.5" y2="100.9"/>
<line class="st5" x1="111.5" y1="100.9" x2="111.5" y2="100.9"/>
<line class="st5" x1="111.5" y1="100.9" x2="112.1" y2="100.9"/>
<line class="st5" x1="112.1" y1="100.9" x2="112.7" y2="100.9"/>
<line class="st5" x1="112.7" y1="100.9" x2="112.7" y2="100.2"/>
<line class="st5" x1="112.7" y1="100.2" x2="113.4" y2="100.2"/>
<line class="st5" x1="113.4" y1="100.2" x2="114" y2="100.2"/>
<line class="st5" x1="114" y1="100.2" x2="114.6" y2="100.2"/>
<line class="st5" x1="114.6" y1="100.2" x2="114.6" y2="99.6"/>
<line class="st5" x1="114.6" y1="99.6" x2="115.2" y2="99.6"/>
<line class="st5" x1="115.2" y1="99.6" x2="115.8" y2="99.6"/>
<line class="st5" x1="115.8" y1="99.6" x2="115.8" y2="99.6"/>
<line class="st5" x1="115.8" y1="99.6" x2="116.4" y2="99"/>
<line class="st5" x1="116.4" y1="99" x2="117.1" y2="99"/>
<line class="st5" x1="117.1" y1="99" x2="117.1" y2="99"/>
<line class="st5" x1="117.1" y1="99" x2="117.7" y2="98.4"/>
<line class="st5" x1="117.7" y1="98.4" x2="118.3" y2="98.4"/>
<line class="st5" x1="118.3" y1="98.4" x2="118.9" y2="98.4"/>
<line class="st5" x1="118.9" y1="98.4" x2="118.9" y2="97.8"/>
<line class="st5" x1="118.9" y1="97.8" x2="119.6" y2="97.8"/>
<line class="st5" x1="119.6" y1="97.8" x2="120.2" y2="97.2"/>
<line class="st5" x1="120.2" y1="97.2" x2="120.2" y2="97.2"/>
<line class="st5" x1="120.2" y1="97.2" x2="120.8" y2="96.5"/>
<line class="st5" x1="120.8" y1="96.5" x2="121.4" y2="96.5"/>
<line class="st5" x1="121.4" y1="96.5" x2="122" y2="95.9"/>
<line class="st5" x1="122" y1="95.9" x2="122" y2="95.9"/>
<line class="st5" x1="122" y1="95.9" x2="122.7" y2="95.3"/>
<line class="st5" x1="122.7" y1="95.3" x2="123.3" y2="95.3"/>
<line class="st5" x1="123.3" y1="95.3" x2="123.9" y2="94.7"/>
<line class="st5" x1="123.9" y1="94.7" x2="123.9" y2="94.7"/>
<line class="st5" x1="123.9" y1="94.7" x2="124.5" y2="94.1"/>
<line class="st5" x1="124.5" y1="94.1" x2="125.1" y2="93.4"/>
<line class="st5" x1="125.1" y1="93.4" x2="125.8" y2="93.4"/>
<line class="st5" x1="125.8" y1="93.4" x2="125.8" y2="92.8"/>
<line class="st5" x1="125.8" y1="92.8" x2="126.4" y2="92.2"/>
<line class="st5" x1="126.4" y1="92.2" x2="127" y2="92.2"/>
<line class="st5" x1="127" y1="92.2" x2="127" y2="91.6"/>
<line class="st5" x1="127" y1="91.6" x2="127.6" y2="90.9"/>
<line class="st5" x1="127.6" y1="90.9" x2="128.2" y2="90.3"/>
<line class="st5" x1="128.2" y1="90.3" x2="128.8" y2="89.7"/>
<line class="st5" x1="128.8" y1="89.7" x2="128.8" y2="89.7"/>
<line class="st5" x1="128.8" y1="89.7" x2="129.5" y2="89.1"/>
<line class="st5" x1="129.5" y1="89.1" x2="130.1" y2="88.5"/>
<line class="st5" x1="130.1" y1="88.5" x2="130.1" y2="87.9"/>
<line class="st5" x1="130.1" y1="87.9" x2="130.7" y2="87.2"/>
<line class="st5" x1="130.7" y1="87.2" x2="131.3" y2="86.6"/>
<line class="st5" x1="131.3" y1="86.6" x2="131.9" y2="86"/>
<line class="st5" x1="131.9" y1="86" x2="131.9" y2="85.4"/>
<line class="st5" x1="131.9" y1="85.4" x2="132.6" y2="84.8"/>
<line class="st5" x1="132.6" y1="84.8" x2="132.6" y2="84.1"/>
<line class="st5" x1="132.6" y1="84.1" x2="133.2" y2="83.5"/>
<line class="st5" x1="133.2" y1="83.5" x2="133.8" y2="82.9"/>
<line class="st5" x1="133.8" y1="82.9" x2="133.8" y2="82.3"/>
<line class="st5" x1="133.8" y1="82.3" x2="134.4" y2="81.7"/>
<line class="st5" x1="134.4" y1="81.7" x2="134.4" y2="80.4"/>
<line class="st5" x1="134.4" y1="80.4" x2="135" y2="79.8"/>
<line class="st5" x1="135" y1="79.8" x2="135" y2="79.2"/>
<line class="st5" x1="135" y1="79.2" x2="135.6" y2="78.6"/>
<line class="st5" x1="135.6" y1="78.6" x2="135.6" y2="77.3"/>
<line class="st5" x1="135.6" y1="77.3" x2="136.3" y2="76.7"/>
<line class="st5" x1="136.3" y1="76.7" x2="136.3" y2="76.1"/>
<line class="st5" x1="136.3" y1="76.1" x2="136.9" y2="75.5"/>
<line class="st5" x1="136.9" y1="75.5" x2="136.9" y2="74.2"/>
<line class="st5" x1="136.9" y1="74.2" x2="136.9" y2="73.6"/>
<line class="st5" x1="136.9" y1="73.6" x2="137.5" y2="72.4"/>
<line class="st5" x1="137.5" y1="72.4" x2="137.5" y2="71.8"/>
<line class="st5" x1="137.5" y1="71.8" x2="137.5" y2="71.1"/>
<line class="st5" x1="137.5" y1="71.1" x2="137.5" y2="69.9"/>
<line class="st5" x1="137.5" y1="69.9" x2="138.1" y2="69.3"/>
<line class="st5" x1="138.1" y1="69.3" x2="138.1" y2="68.1"/>
<line class="st5" x1="138.1" y1="68.1" x2="138.1" y2="67.4"/>
<line class="st5" x1="138.1" y1="67.4" x2="138.1" y2="66.2"/>
<line class="st5" x1="138.1" y1="66.2" x2="138.1" y2="65.6"/>
<line class="st5" x1="138.1" y1="65.6" x2="138.1" y2="64.3"/>
<line class="st5" x1="138.1" y1="64.3" x2="138.1" y2="63.7"/>
<line class="st5" x1="138.1" y1="63.7" x2="138.1" y2="62.5"/>
<line class="st5" x1="138.1" y1="62.5" x2="138.1" y2="61.9"/>
<line class="st5" x1="138.1" y1="61.9" x2="138.1" y2="60.6"/>
<line class="st5" x1="138.1" y1="60.6" x2="138.1" y2="60"/>
<line class="st5" x1="138.1" y1="60" x2="137.5" y2="58.8"/>
<line class="st5" x1="137.5" y1="58.8" x2="137.5" y2="58.2"/>
<line class="st5" x1="137.5" y1="58.2" x2="137.5" y2="56.9"/>
<line class="st5" x1="137.5" y1="56.9" x2="137.5" y2="56.3"/>
<line class="st5" x1="137.5" y1="56.3" x2="136.9" y2="55"/>
<line class="st5" x1="136.9" y1="55" x2="136.9" y2="54.4"/>
<line class="st5" x1="136.9" y1="54.4" x2="136.3" y2="53.2"/>
<line class="st5" x1="136.3" y1="53.2" x2="136.3" y2="52"/>
<line class="st5" x1="136.3" y1="52" x2="135.6" y2="51.3"/>
<line class="st5" x1="135.6" y1="51.3" x2="135.6" y2="50.1"/>
<line class="st5" x1="135.6" y1="50.1" x2="135" y2="49.5"/>
<line class="st5" x1="135" y1="49.5" x2="134.4" y2="48.2"/>
<line class="st5" x1="134.4" y1="48.2" x2="134.4" y2="47.6"/>
<line class="st5" x1="134.4" y1="47.6" x2="133.8" y2="46.4"/>
<line class="st5" x1="133.8" y1="46.4" x2="133.2" y2="45.8"/>
<line class="st5" x1="133.2" y1="45.8" x2="132.6" y2="45.1"/>
<line class="st5" x1="132.6" y1="45.1" x2="132.6" y2="43.9"/>
<line class="st5" x1="132.6" y1="43.9" x2="131.9" y2="43.3"/>
<line class="st5" x1="131.9" y1="43.3" x2="131.3" y2="42"/>
<line class="st5" x1="131.3" y1="42" x2="130.7" y2="41.4"/>
<line class="st5" x1="130.7" y1="41.4" x2="130.1" y2="40.8"/>
<line class="st5" x1="130.1" y1="40.8" x2="129.5" y2="39.6"/>
<line class="st5" x1="129.5" y1="39.6" x2="128.8" y2="39"/>
<line class="st5" x1="128.8" y1="39" x2="128.2" y2="38.3"/>
<line class="st5" x1="128.2" y1="38.3" x2="127" y2="37.1"/>
<line class="st5" x1="127" y1="37.1" x2="126.4" y2="36.5"/>
<line class="st5" x1="126.4" y1="36.5" x2="125.8" y2="35.9"/>
<line class="st5" x1="125.8" y1="35.9" x2="125.1" y2="35.2"/>
<line class="st5" x1="125.1" y1="35.2" x2="124.5" y2="34.6"/>
<line class="st5" x1="124.5" y1="34.6" x2="123.3" y2="34"/>
<line class="st5" x1="123.3" y1="34" x2="122.7" y2="32.8"/>
<line class="st5" x1="122.7" y1="32.8" x2="121.4" y2="32.1"/>
<line class="st5" x1="121.4" y1="32.1" x2="120.8" y2="31.5"/>
<line class="st5" x1="120.8" y1="31.5" x2="120.2" y2="30.9"/>
<line class="st5" x1="120.2" y1="30.9" x2="118.9" y2="30.3"/>
<line class="st5" x1="118.9" y1="30.3" x2="118.3" y2="30.3"/>
<line class="st5" x1="118.3" y1="30.3" x2="117.1" y2="29.7"/>
<line class="st5" x1="117.1" y1="29.7" x2="116.4" y2="29"/>
<line class="st5" x1="116.4" y1="29" x2="115.2" y2="28.4"/>
<line class="st5" x1="115.2" y1="28.4" x2="114" y2="27.8"/>
<line class="st5" x1="114" y1="27.8" x2="113.4" y2="27.8"/>
<line class="st5" x1="113.4" y1="27.8" x2="112.1" y2="27.2"/>
<line class="st5" x1="112.1" y1="27.2" x2="111.5" y2="26.6"/>
<line class="st5" x1="111.5" y1="26.6" x2="110.3" y2="26.6"/>
<line class="st5" x1="110.3" y1="26.6" x2="109" y2="26"/>
<line class="st5" x1="109" y1="26" x2="107.8" y2="26"/>
<line class="st5" x1="107.8" y1="26" x2="107.2" y2="25.3"/>
<line class="st5" x1="107.2" y1="25.3" x2="105.9" y2="25.3"/>
<line class="st5" x1="105.9" y1="25.3" x2="104.7" y2="25.3"/>
<line class="st5" x1="104.7" y1="25.3" x2="104.1" y2="24.7"/>
<line class="st5" x1="104.1" y1="24.7" x2="102.8" y2="24.7"/>
<line class="st5" x1="102.8" y1="24.7" x2="101.6" y2="24.7"/>
<line class="st5" x1="101.6" y1="24.7" x2="100.4" y2="24.7"/>
<line class="st5" x1="100.4" y1="24.7" x2="99.7" y2="24.7"/>
<line class="st5" x1="99.7" y1="24.7" x2="98.5" y2="24.1"/>
<line class="st5" x1="98.5" y1="24.1" x2="97.3" y2="24.1"/>
<line class="st6" x1="97.3" y1="14.8" x2="97.3" y2="87.2"/>
<text transform="matrix(1 0 0 1 51.48 196.8)" class="st2 st3 st4">T</text>
<text transform="matrix(1 0 0 1 56.07 196.8)" class="st2 st3 st4">h</text>
<text transform="matrix(1 0 0 1 61.24 196.8)" class="st2 st3 st4">e</text>
<text transform="matrix(1 0 0 1 65.84 196.8)" class="st2 st3 st4">t</text>
<text transform="matrix(1 0 0 1 68.96 196.8)" class="st2 st3 st4">a</text>
<text transform="matrix(1 0 0 1 73.39 196.8)" class="st2 st3 st4"> </text>
<text transform="matrix(1 0 0 1 75.25 196.8)" class="st2 st3 st4">/ </text>
<text transform="matrix(1 0 0 1 80.37 196.8)" class="st2 st3 st4">D</text>
<text transform="matrix(1 0 0 1 86.48 196.8)" class="st2 st3 st4">e</text>
<text transform="matrix(1 0 0 1 91.16 196.8)" class="st2 st3 st4">g</text>
<text transform="matrix(1 0 0 1 96.33 196.8)" class="st2 st3 st4">r</text>
<text transform="matrix(1 0 0 1 99.37 196.8)" class="st2 st3 st4">ee</text>
<text transform="matrix(1 0 0 1 108.73 196.8)" class="st2 st3 st4"> </text>
<text transform="matrix(1 0 0 1 110.68 196.8)" class="st2 st3 st4">v</text>
<text transform="matrix(1 0 0 1 115.07 196.8)" class="st2 st3 st4">s</text>
<text transform="matrix(1 0 0 1 118.69 196.8)" class="st2 st3 st4">. d</text>
<text transform="matrix(1 0 0 1 127.76 196.8)" class="st2 st3 st4">B</text>
<text transform="matrix(1 0 0 1 132.71 196.8)" class="st2 st3 st4">i</text>
</svg>
