<svg id="Layer_1" data-name="Layer 1" xmlns="http://www.w3.org/2000/svg" viewBox="0 0 201.08 199.12"><defs><style>.cls-1,.cls-10,.cls-9{fill:none;stroke-linecap:round;stroke-linejoin:round;}.cls-1{stroke:#010101;stroke-width:0.62px;}.cls-2{fill:#fff;}.cls-3,.cls-5,.cls-7{font-size:9.29px;fill:#010101;font-family:CIDFont+F2, CIDFont+F2;}.cls-4{letter-spacing:0em;}.cls-5,.cls-8{letter-spacing:0em;}.cls-6{letter-spacing:0em;}.cls-11,.cls-7{letter-spacing:0em;}.cls-9{stroke:#ed2224;}.cls-10,.cls-9{stroke-width:1.24px;}.cls-10{stroke:#3a53a4;}.cls-12{letter-spacing:0em;}.cls-13{letter-spacing:-0.01em;}.cls-14{letter-spacing:0em;}.cls-15{letter-spacing:0em;}.cls-16{letter-spacing:-0.01em;}.cls-17{letter-spacing:0em;}.cls-18{letter-spacing:-0.01em;}.cls-19{letter-spacing:0em;}.cls-20{letter-spacing:0em;}.cls-21{letter-spacing:-0.01em;}.cls-22{letter-spacing:-0.01em;}</style></defs><title>Untitled-1</title><line class="cls-1" x1="162.2" y1="51.34" x2="99.66" y2="87.24"/><line class="cls-1" x1="136.19" y1="24.71" x2="99.66" y2="87.24"/><line class="cls-1" x1="63.75" y1="24.71" x2="99.66" y2="87.24"/><line class="cls-1" x1="37.13" y1="51.34" x2="99.66" y2="87.24"/><line class="cls-1" x1="37.13" y1="123.76" x2="99.66" y2="87.24"/><line class="cls-1" x1="63.13" y1="149.77" x2="99.66" y2="87.24"/><line class="cls-1" x1="136.19" y1="149.77" x2="99.66" y2="87.24"/><line class="cls-1" x1="162.2" y1="123.76" x2="99.66" y2="87.24"/><line class="cls-1" x1="172.1" y1="87.24" x2="99.66" y2="87.24"/><line class="cls-1" x1="99.66" y1="14.81" x2="99.66" y2="87.24"/><line class="cls-1" x1="27.22" y1="87.24" x2="99.66" y2="87.24"/><line class="cls-1" x1="99.66" y1="159.67" x2="99.66" y2="87.24"/><line class="cls-1" x1="172.1" y1="87.24" x2="99.66" y2="87.24"/><ellipse class="cls-1" cx="99.66" cy="86.93" rx="24.15" ry="23.84"/><ellipse class="cls-1" cx="99.66" cy="86.93" rx="48.3" ry="47.98"/><ellipse class="cls-1" cx="99.66" cy="86.93" rx="72.44" ry="72.12"/><rect class="cls-2" x="96" width="6.72" height="12.96"/><text class="cls-3" transform="translate(97.2 10.44)">0</text><rect class="cls-2" x="173.4" y="80.4" width="11.76" height="13.08"/><text class="cls-3" transform="translate(174.6 90.96)"><tspan class="cls-4">9</tspan><tspan x="4.72" y="0">0</tspan></text><rect class="cls-2" x="163.44" y="37.68" width="11.76" height="13.08"/><text class="cls-3" transform="translate(164.64 48.24)"><tspan class="cls-4">6</tspan><tspan x="4.72" y="0">0</tspan></text><rect class="cls-2" x="135.6" y="9.84" width="11.76" height="13.08"/><text class="cls-5" transform="translate(136.8 20.4)">3<tspan class="cls-6" x="4.72" y="0">0</tspan></text><rect class="cls-2" x="51.36" y="9.84" width="11.76" height="13.08"/><text class="cls-5" transform="translate(52.56 20.4)">3<tspan class="cls-6" x="4.72" y="0">0</tspan></text><rect class="cls-2" x="23.52" y="37.68" width="11.76" height="13.08"/><text class="cls-5" transform="translate(24.72 48.24)">6<tspan class="cls-6" x="4.72" y="0">0</tspan></text><rect class="cls-2" x="13.56" y="80.4" width="11.76" height="13.08"/><text class="cls-5" transform="translate(14.88 90.96)">9<tspan class="cls-6" x="4.72" y="0">0</tspan></text><rect class="cls-2" x="18.6" y="123.12" width="16.68" height="13.08"/><text class="cls-5" transform="translate(19.8 133.68)">12<tspan class="cls-6" x="9.43" y="0">0</tspan></text><rect class="cls-2" x="46.44" y="150.96" width="16.68" height="13.08"/><text class="cls-5" transform="translate(47.64 161.52)">15<tspan class="cls-6" x="9.43" y="0">0</tspan></text><rect class="cls-2" x="90.96" y="160.92" width="16.8" height="12.96"/><text class="cls-5" transform="translate(92.28 171.36)">18<tspan class="cls-6" x="9.43" y="0">0</tspan></text><rect class="cls-2" x="135.6" y="150.96" width="16.68" height="13.08"/><text class="cls-5" transform="translate(136.8 161.52)">15<tspan class="cls-6" x="9.43" y="0">0</tspan></text><rect class="cls-2" x="163.44" y="123.12" width="16.68" height="13.08"/><text class="cls-3" transform="translate(164.64 133.68)"><tspan class="cls-4">12</tspan><tspan x="9.43" y="0">0</tspan></text><rect class="cls-2" x="144.24" y="90.96" width="6.84" height="12.96"/><text class="cls-3" transform="translate(145.44 101.4)">0</text><rect class="cls-2" x="91.56" y="90.96" width="15.48" height="12.96"/><text class="cls-7" transform="translate(92.88 101.4)">-<tspan class="cls-8" x="2.82" y="0">2</tspan><tspan class="cls-6" x="7.54" y="0">0</tspan></text><rect class="cls-2" x="115.8" y="90.96" width="15.48" height="12.96"/><text class="cls-7" transform="translate(117 101.4)">-<tspan class="cls-8" x="2.82" y="0">1</tspan><tspan class="cls-6" x="7.54" y="0">0</tspan></text><text class="cls-3" transform="translate(196.31 23.4)">0</text><text class="cls-3" transform="translate(191.28 23.4)">7</text><text class="cls-3" transform="translate(186.26 23.4)">2</text><text class="cls-3" transform="translate(179.56 23.4)">=</text><text class="cls-3" transform="translate(177.33 23.4)">i</text><text class="cls-3" transform="translate(172.21 23.4)">h</text><text class="cls-3" transform="translate(167.19 23.4)">P</text><text class="cls-3" transform="translate(26.98 23.4)">0</text><text class="cls-3" transform="translate(21.96 23.4)">9</text><text class="cls-3" transform="translate(19.07 23.4)"> </text><text class="cls-3" transform="translate(12.37 23.4)">=</text><text class="cls-3" transform="translate(10.23 23.4)">i</text><text class="cls-3" transform="translate(5.02 23.4)">h</text><text class="cls-3" transform="translate(0 23.4)">P</text><line class="cls-9" x1="99.66" y1="22.86" x2="98.42" y2="22.86"/><line class="cls-9" x1="98.42" y1="22.86" x2="97.19" y2="22.86"/><line class="cls-9" x1="97.19" y1="22.86" x2="96.56" y2="22.86"/><line class="cls-9" x1="96.56" y1="22.86" x2="95.33" y2="22.86"/><line class="cls-9" x1="95.33" y1="22.86" x2="94.09" y2="22.86"/><line class="cls-9" x1="94.09" y1="22.86" x2="92.85" y2="23.47"/><line class="cls-9" x1="92.85" y1="23.47" x2="91.61" y2="23.47"/><line class="cls-9" x1="91.61" y1="23.47" x2="90.99" y2="23.47"/><line class="cls-9" x1="90.99" y1="23.47" x2="89.75" y2="24.1"/><line class="cls-9" x1="89.75" y1="24.1" x2="88.52" y2="24.1"/><line class="cls-9" x1="88.52" y1="24.1" x2="87.28" y2="24.71"/><line class="cls-9" x1="87.28" y1="24.71" x2="86.66" y2="24.71"/><line class="cls-9" x1="86.66" y1="24.71" x2="85.42" y2="25.33"/><line class="cls-9" x1="85.42" y1="25.33" x2="84.18" y2="25.33"/><line class="cls-9" x1="84.18" y1="25.33" x2="82.94" y2="25.96"/><line class="cls-9" x1="82.94" y1="25.96" x2="82.32" y2="25.96"/><line class="cls-9" x1="82.32" y1="25.96" x2="81.08" y2="26.57"/><line class="cls-9" x1="81.08" y1="26.57" x2="79.85" y2="27.19"/><line class="cls-9" x1="79.85" y1="27.19" x2="79.23" y2="27.81"/><line class="cls-9" x1="79.23" y1="27.81" x2="77.99" y2="28.43"/><line class="cls-9" x1="77.99" y1="28.43" x2="77.37" y2="28.43"/><line class="cls-9" x1="77.37" y1="28.43" x2="76.13" y2="29.05"/><line class="cls-9" x1="76.13" y1="29.05" x2="75.51" y2="29.67"/><line class="cls-9" x1="75.51" y1="29.67" x2="74.27" y2="30.28"/><line class="cls-9" x1="74.27" y1="30.28" x2="73.66" y2="30.91"/><line class="cls-9" x1="73.66" y1="30.91" x2="72.41" y2="31.52"/><line class="cls-9" x1="72.41" y1="31.52" x2="71.8" y2="32.14"/><line class="cls-9" x1="71.8" y1="32.14" x2="70.56" y2="32.77"/><line class="cls-9" x1="70.56" y1="32.77" x2="69.94" y2="34"/><line class="cls-9" x1="69.94" y1="34" x2="69.32" y2="34.62"/><line class="cls-9" x1="69.32" y1="34.62" x2="68.08" y2="35.24"/><line class="cls-9" x1="68.08" y1="35.24" x2="67.46" y2="35.86"/><line class="cls-9" x1="67.46" y1="35.86" x2="66.84" y2="36.48"/><line class="cls-9" x1="66.84" y1="36.48" x2="66.23" y2="37.72"/><line class="cls-9" x1="66.23" y1="37.72" x2="65.6" y2="38.33"/><line class="cls-9" x1="65.6" y1="38.33" x2="64.37" y2="38.95"/><line class="cls-9" x1="64.37" y1="38.95" x2="63.75" y2="40.19"/><line class="cls-9" x1="63.75" y1="40.19" x2="63.13" y2="40.81"/><line class="cls-9" x1="63.13" y1="40.81" x2="62.51" y2="41.43"/><line class="cls-9" x1="62.51" y1="41.43" x2="61.89" y2="42.67"/><line class="cls-9" x1="61.89" y1="42.67" x2="61.27" y2="43.29"/><line class="cls-9" x1="61.27" y1="43.29" x2="60.65" y2="43.9"/><line class="cls-9" x1="60.65" y1="43.9" x2="60.65" y2="45.14"/><line class="cls-9" x1="60.65" y1="45.14" x2="60.03" y2="45.76"/><line class="cls-9" x1="60.03" y1="45.76" x2="59.42" y2="47"/><line class="cls-9" x1="59.42" y1="47" x2="58.79" y2="47.62"/><line class="cls-9" x1="58.79" y1="47.62" x2="58.18" y2="48.86"/><line class="cls-9" x1="58.18" y1="48.86" x2="58.18" y2="49.48"/><line class="cls-9" x1="58.18" y1="49.48" x2="57.56" y2="50.71"/><line class="cls-9" x1="57.56" y1="50.71" x2="56.93" y2="51.34"/><line class="cls-9" x1="56.93" y1="51.34" x2="56.93" y2="52.57"/><line class="cls-9" x1="56.93" y1="52.57" x2="56.32" y2="53.81"/><line class="cls-9" x1="56.32" y1="53.81" x2="56.32" y2="54.43"/><line class="cls-9" x1="56.32" y1="54.43" x2="55.7" y2="55.66"/><line class="cls-9" x1="55.7" y1="55.66" x2="55.7" y2="56.29"/><line class="cls-9" x1="55.7" y1="56.29" x2="55.08" y2="57.52"/><line class="cls-9" x1="55.08" y1="57.52" x2="55.08" y2="58.15"/><line class="cls-9" x1="55.08" y1="58.15" x2="55.08" y2="59.38"/><line class="cls-9" x1="55.08" y1="59.38" x2="55.08" y2="60"/><line class="cls-9" x1="55.08" y1="60" x2="54.46" y2="61.24"/><line class="cls-9" x1="54.46" y1="61.24" x2="54.46" y2="62.47"/><line class="cls-9" x1="54.46" y1="62.47" x2="54.46" y2="63.1"/><line class="cls-9" x1="54.46" y1="63.1" x2="54.46" y2="64.33"/><line class="cls-9" x1="54.46" y1="64.33" x2="54.46" y2="64.96"/><line class="cls-9" x1="54.46" y1="64.96" x2="53.84" y2="66.19"/><line class="cls-9" x1="53.84" y1="66.19" x2="53.84" y2="66.81"/><line class="cls-9" x1="53.84" y1="66.81" x2="53.84" y2="68.05"/><line class="cls-9" x1="53.84" y1="68.05" x2="53.84" y2="68.67"/><line class="cls-9" x1="53.84" y1="68.67" x2="53.84" y2="69.91"/><line class="cls-9" x1="53.84" y1="69.91" x2="54.46" y2="70.52"/><line class="cls-9" x1="54.46" y1="70.52" x2="54.46" y2="71.77"/><line class="cls-9" x1="54.46" y1="71.77" x2="54.46" y2="72.38"/><line class="cls-9" x1="54.46" y1="72.38" x2="54.46" y2="73.62"/><line class="cls-9" x1="54.46" y1="73.62" x2="54.46" y2="74.24"/><line class="cls-9" x1="54.46" y1="74.24" x2="54.46" y2="75.48"/><line class="cls-9" x1="54.46" y1="75.48" x2="54.46" y2="76.09"/><line class="cls-9" x1="54.46" y1="76.09" x2="55.08" y2="76.72"/><line class="cls-9" x1="55.08" y1="76.72" x2="55.08" y2="77.95"/><line class="cls-9" x1="55.08" y1="77.95" x2="55.08" y2="78.57"/><line class="cls-9" x1="55.08" y1="78.57" x2="55.7" y2="79.19"/><line class="cls-9" x1="55.7" y1="79.19" x2="55.7" y2="80.43"/><line class="cls-9" x1="55.7" y1="80.43" x2="55.7" y2="81.05"/><line class="cls-9" x1="55.7" y1="81.05" x2="56.32" y2="81.67"/><line class="cls-9" x1="56.32" y1="81.67" x2="56.32" y2="82.9"/><line class="cls-9" x1="56.32" y1="82.9" x2="56.93" y2="83.53"/><line class="cls-9" x1="56.93" y1="83.53" x2="56.93" y2="84.14"/><line class="cls-9" x1="56.93" y1="84.14" x2="56.93" y2="84.76"/><line class="cls-9" x1="56.93" y1="84.76" x2="57.56" y2="86"/><line class="cls-9" x1="57.56" y1="86" x2="57.56" y2="86.62"/><line class="cls-9" x1="57.56" y1="86.62" x2="58.18" y2="87.24"/><line class="cls-9" x1="58.18" y1="87.24" x2="58.79" y2="87.86"/><line class="cls-9" x1="58.79" y1="87.86" x2="58.79" y2="88.48"/><line class="cls-9" x1="58.79" y1="88.48" x2="59.42" y2="89.1"/><line class="cls-9" x1="59.42" y1="89.1" x2="59.42" y2="90.34"/><line class="cls-9" x1="59.42" y1="90.34" x2="60.03" y2="90.95"/><line class="cls-9" x1="60.03" y1="90.95" x2="60.03" y2="91.57"/><line class="cls-9" x1="60.03" y1="91.57" x2="60.65" y2="92.19"/><line class="cls-9" x1="60.65" y1="92.19" x2="61.27" y2="92.81"/><line class="cls-9" x1="61.27" y1="92.81" x2="61.27" y2="93.43"/><line class="cls-9" x1="61.27" y1="93.43" x2="61.89" y2="94.05"/><line class="cls-9" x1="61.89" y1="94.05" x2="62.51" y2="94.66"/><line class="cls-9" x1="62.51" y1="94.66" x2="63.13" y2="95.29"/><line class="cls-9" x1="63.13" y1="95.29" x2="63.13" y2="95.91"/><line class="cls-9" x1="63.13" y1="95.91" x2="63.75" y2="95.91"/><line class="cls-9" x1="63.75" y1="95.91" x2="64.37" y2="96.52"/><line class="cls-9" x1="64.37" y1="96.52" x2="64.99" y2="97.15"/><line class="cls-9" x1="64.99" y1="97.15" x2="64.99" y2="97.76"/><line class="cls-9" x1="64.99" y1="97.76" x2="65.6" y2="98.38"/><line class="cls-9" x1="65.6" y1="98.38" x2="66.23" y2="99"/><line class="cls-9" x1="66.23" y1="99" x2="66.84" y2="99"/><line class="cls-9" x1="66.84" y1="99" x2="67.46" y2="99.62"/><line class="cls-9" x1="67.46" y1="99.62" x2="67.46" y2="100.24"/><line class="cls-9" x1="67.46" y1="100.24" x2="68.08" y2="100.86"/><line class="cls-9" x1="68.08" y1="100.86" x2="68.7" y2="100.86"/><line class="cls-9" x1="68.7" y1="100.86" x2="69.32" y2="101.47"/><line class="cls-9" x1="69.32" y1="101.47" x2="69.94" y2="101.47"/><line class="cls-9" x1="69.94" y1="101.47" x2="70.56" y2="102.1"/><line class="cls-9" x1="70.56" y1="102.1" x2="71.18" y2="102.1"/><line class="cls-9" x1="71.18" y1="102.1" x2="71.8" y2="102.71"/><line class="cls-9" x1="71.8" y1="102.71" x2="72.41" y2="102.71"/><line class="cls-9" x1="72.41" y1="102.71" x2="73.04" y2="103.33"/><line class="cls-9" x1="73.04" y1="103.33" x2="73.66" y2="103.33"/><line class="cls-9" x1="73.66" y1="103.33" x2="74.27" y2="103.96"/><line class="cls-9" x1="74.27" y1="103.96" x2="74.9" y2="103.96"/><line class="cls-9" x1="74.9" y1="103.96" x2="75.51" y2="103.96"/><line class="cls-9" x1="75.51" y1="103.96" x2="76.13" y2="103.96"/><line class="cls-9" x1="76.13" y1="103.96" x2="76.75" y2="104.57"/><line class="cls-9" x1="76.75" y1="104.57" x2="77.37" y2="104.57"/><line class="cls-9" x1="77.37" y1="104.57" x2="78.61" y2="104.57"/><line class="cls-9" x1="78.61" y1="104.57" x2="79.23" y2="104.57"/><line class="cls-9" x1="79.23" y1="104.57" x2="79.85" y2="104.57"/><line class="cls-9" x1="79.85" y1="104.57" x2="80.47" y2="104.57"/><line class="cls-9" x1="80.47" y1="104.57" x2="81.08" y2="104.57"/><line class="cls-9" x1="81.08" y1="104.57" x2="82.32" y2="103.96"/><line class="cls-9" x1="82.32" y1="103.96" x2="82.94" y2="103.96"/><line class="cls-9" x1="82.94" y1="103.96" x2="83.56" y2="103.96"/><line class="cls-9" x1="83.56" y1="103.96" x2="84.18" y2="103.96"/><line class="cls-9" x1="84.18" y1="103.96" x2="84.8" y2="103.33"/><line class="cls-9" x1="84.8" y1="103.33" x2="86.04" y2="103.33"/><line class="cls-9" x1="86.04" y1="103.33" x2="86.66" y2="102.71"/><line class="cls-9" x1="86.66" y1="102.71" x2="87.28" y2="102.1"/><line class="cls-9" x1="87.28" y1="102.1" x2="88.52" y2="102.1"/><line class="cls-9" x1="88.52" y1="102.1" x2="89.13" y2="101.47"/><line class="cls-9" x1="89.13" y1="101.47" x2="89.75" y2="100.86"/><line class="cls-9" x1="89.75" y1="100.86" x2="90.38" y2="100.24"/><line class="cls-9" x1="90.38" y1="100.24" x2="91.61" y2="99.62"/><line class="cls-9" x1="91.61" y1="99.62" x2="92.23" y2="99"/><line class="cls-9" x1="92.23" y1="99" x2="92.85" y2="97.76"/><line class="cls-9" x1="92.85" y1="97.76" x2="93.47" y2="97.15"/><line class="cls-9" x1="93.47" y1="97.15" x2="94.09" y2="96.52"/><line class="cls-9" x1="94.09" y1="96.52" x2="95.33" y2="95.29"/><line class="cls-9" x1="95.33" y1="95.29" x2="95.95" y2="94.66"/><line class="cls-9" x1="95.95" y1="94.66" x2="95.95" y2="94.05"/><line class="cls-9" x1="95.95" y1="94.05" x2="96.56" y2="93.43"/><line class="cls-9" x1="96.56" y1="93.43" x2="97.19" y2="92.81"/><line class="cls-9" x1="97.19" y1="92.81" x2="97.19" y2="92.19"/><line class="cls-9" x1="97.19" y1="92.19" x2="97.8" y2="91.57"/><line class="cls-9" x1="97.8" y1="91.57" x2="97.8" y2="91.57"/><line class="cls-9" x1="97.8" y1="91.57" x2="97.8" y2="92.19"/><line class="cls-9" x1="97.8" y1="92.19" x2="97.8" y2="92.81"/><line class="cls-9" x1="97.8" y1="92.81" x2="97.8" y2="93.43"/><line class="cls-9" x1="97.8" y1="93.43" x2="97.8" y2="94.05"/><line class="cls-9" x1="97.8" y1="94.05" x2="97.8" y2="94.66"/><line class="cls-9" x1="97.8" y1="94.66" x2="97.19" y2="95.91"/><line class="cls-9" x1="97.19" y1="95.91" x2="97.19" y2="96.52"/><line class="cls-9" x1="97.19" y1="96.52" x2="97.19" y2="97.76"/><line class="cls-9" x1="97.19" y1="97.76" x2="97.19" y2="99"/><line class="cls-9" x1="97.19" y1="99" x2="97.19" y2="99.62"/><line class="cls-9" x1="97.19" y1="99.62" x2="97.19" y2="100.86"/><line class="cls-9" x1="97.19" y1="100.86" x2="97.19" y2="101.47"/><line class="cls-9" x1="97.19" y1="101.47" x2="97.8" y2="102.71"/><line class="cls-9" x1="97.8" y1="102.71" x2="97.8" y2="103.33"/><line class="cls-9" x1="97.8" y1="103.33" x2="97.8" y2="104.57"/><line class="cls-9" x1="97.8" y1="104.57" x2="97.8" y2="105.19"/><line class="cls-9" x1="97.8" y1="105.19" x2="98.42" y2="105.81"/><line class="cls-9" x1="98.42" y1="105.81" x2="98.42" y2="106.43"/><line class="cls-9" x1="98.42" y1="106.43" x2="99.04" y2="107.05"/><line class="cls-9" x1="99.04" y1="107.05" x2="99.04" y2="107.67"/><line class="cls-9" x1="99.04" y1="107.67" x2="99.66" y2="108.28"/><line class="cls-9" x1="99.66" y1="108.28" x2="100.28" y2="108.91"/><line class="cls-9" x1="100.28" y1="108.91" x2="100.28" y2="109.52"/><line class="cls-9" x1="100.28" y1="109.52" x2="100.9" y2="110.14"/><line class="cls-9" x1="100.9" y1="110.14" x2="101.52" y2="110.77"/><line class="cls-9" x1="101.52" y1="110.77" x2="101.52" y2="110.77"/><line class="cls-9" x1="101.52" y1="110.77" x2="102.14" y2="111.38"/><line class="cls-9" x1="102.14" y1="111.38" x2="102.76" y2="111.38"/><line class="cls-9" x1="102.76" y1="111.38" x2="103.37" y2="112"/><line class="cls-9" x1="103.37" y1="112" x2="103.37" y2="112"/><line class="cls-9" x1="103.37" y1="112" x2="104" y2="112"/><line class="cls-9" x1="104" y1="112" x2="104.61" y2="112"/><line class="cls-9" x1="104.61" y1="112" x2="105.23" y2="112"/><line class="cls-9" x1="105.23" y1="112" x2="105.23" y2="112.62"/><line class="cls-9" x1="105.23" y1="112.62" x2="105.86" y2="112.62"/><line class="cls-9" x1="105.86" y1="112.62" x2="106.47" y2="112.62"/><line class="cls-9" x1="106.47" y1="112.62" x2="107.09" y2="112"/><line class="cls-9" x1="107.09" y1="112" x2="107.09" y2="112"/><line class="cls-9" x1="107.09" y1="112" x2="107.71" y2="112"/><line class="cls-9" x1="107.71" y1="112" x2="108.33" y2="112"/><line class="cls-9" x1="108.33" y1="112" x2="108.33" y2="112"/><line class="cls-9" x1="108.33" y1="112" x2="108.95" y2="111.38"/><line class="cls-9" x1="108.95" y1="111.38" x2="109.57" y2="111.38"/><line class="cls-9" x1="109.57" y1="111.38" x2="109.57" y2="110.77"/><line class="cls-9" x1="109.57" y1="110.77" x2="110.19" y2="110.77"/><line class="cls-9" x1="110.19" y1="110.77" x2="110.19" y2="110.14"/><line class="cls-9" x1="110.19" y1="110.14" x2="110.81" y2="110.14"/><line class="cls-9" x1="110.81" y1="110.14" x2="110.81" y2="109.52"/><line class="cls-9" x1="110.81" y1="109.52" x2="111.43" y2="108.91"/><line class="cls-9" x1="111.43" y1="108.91" x2="111.43" y2="108.91"/><line class="cls-9" x1="111.43" y1="108.91" x2="112.04" y2="108.28"/><line class="cls-9" x1="112.04" y1="108.28" x2="112.04" y2="107.67"/><line class="cls-9" x1="112.04" y1="107.67" x2="112.04" y2="107.05"/><line class="cls-9" x1="112.04" y1="107.05" x2="112.67" y2="106.43"/><line class="cls-9" x1="112.67" y1="106.43" x2="112.67" y2="105.81"/><line class="cls-9" x1="112.67" y1="105.81" x2="112.67" y2="105.19"/><line class="cls-9" x1="112.67" y1="105.19" x2="112.67" y2="104.57"/><line class="cls-9" x1="112.67" y1="104.57" x2="112.67" y2="103.96"/><line class="cls-9" x1="112.67" y1="103.96" x2="112.67" y2="103.33"/><line class="cls-9" x1="112.67" y1="103.33" x2="113.28" y2="102.71"/><line class="cls-9" x1="113.28" y1="102.71" x2="113.28" y2="102.1"/><line class="cls-9" x1="113.28" y1="102.1" x2="113.28" y2="101.47"/><line class="cls-9" x1="113.28" y1="101.47" x2="113.28" y2="100.86"/><line class="cls-9" x1="113.28" y1="100.86" x2="113.28" y2="100.24"/><line class="cls-9" x1="113.28" y1="100.24" x2="113.28" y2="99.62"/><line class="cls-9" x1="113.28" y1="99.62" x2="113.28" y2="99"/><line class="cls-9" x1="113.28" y1="99" x2="113.9" y2="99"/><line class="cls-9" x1="113.9" y1="99" x2="113.9" y2="99"/><line class="cls-9" x1="113.9" y1="99" x2="114.52" y2="99"/><line class="cls-9" x1="114.52" y1="99" x2="114.52" y2="98.38"/><line class="cls-9" x1="114.52" y1="98.38" x2="115.14" y2="98.38"/><line class="cls-9" x1="115.14" y1="98.38" x2="115.76" y2="98.38"/><line class="cls-9" x1="115.76" y1="98.38" x2="116.38" y2="98.38"/><line class="cls-9" x1="116.38" y1="98.38" x2="117" y2="98.38"/><line class="cls-9" x1="117" y1="98.38" x2="117.62" y2="98.38"/><line class="cls-9" x1="117.62" y1="98.38" x2="118.24" y2="98.38"/><line class="cls-9" x1="118.24" y1="98.38" x2="118.85" y2="98.38"/><line class="cls-9" x1="118.85" y1="98.38" x2="119.48" y2="98.38"/><line class="cls-9" x1="119.48" y1="98.38" x2="120.09" y2="98.38"/><line class="cls-9" x1="120.09" y1="98.38" x2="121.34" y2="98.38"/><line class="cls-9" x1="121.34" y1="98.38" x2="121.95" y2="98.38"/><line class="cls-9" x1="121.95" y1="98.38" x2="122.57" y2="97.76"/><line class="cls-9" x1="122.57" y1="97.76" x2="123.81" y2="97.76"/><line class="cls-9" x1="123.81" y1="97.76" x2="124.43" y2="97.76"/><line class="cls-9" x1="124.43" y1="97.76" x2="125.05" y2="97.76"/><line class="cls-9" x1="125.05" y1="97.76" x2="126.29" y2="97.15"/><line class="cls-9" x1="126.29" y1="97.15" x2="126.91" y2="97.15"/><line class="cls-9" x1="126.91" y1="97.15" x2="127.52" y2="97.15"/><line class="cls-9" x1="127.52" y1="97.15" x2="128.76" y2="96.52"/><line class="cls-9" x1="128.76" y1="96.52" x2="129.38" y2="96.52"/><line class="cls-9" x1="129.38" y1="96.52" x2="130" y2="95.91"/><line class="cls-9" x1="130" y1="95.91" x2="131.24" y2="95.91"/><line class="cls-9" x1="131.24" y1="95.91" x2="131.86" y2="95.29"/><line class="cls-9" x1="131.86" y1="95.29" x2="132.48" y2="94.66"/><line class="cls-9" x1="132.48" y1="94.66" x2="133.1" y2="94.66"/><line class="cls-9" x1="133.1" y1="94.66" x2="133.72" y2="94.05"/><line class="cls-9" x1="133.72" y1="94.05" x2="134.96" y2="93.43"/><line class="cls-9" x1="134.96" y1="93.43" x2="135.57" y2="92.81"/><line class="cls-9" x1="135.57" y1="92.81" x2="136.19" y2="92.19"/><line class="cls-9" x1="136.19" y1="92.19" x2="136.82" y2="91.57"/><line class="cls-9" x1="136.82" y1="91.57" x2="137.43" y2="90.95"/><line class="cls-9" x1="137.43" y1="90.95" x2="138.05" y2="90.34"/><line class="cls-9" x1="138.05" y1="90.34" x2="138.67" y2="89.71"/><line class="cls-9" x1="138.67" y1="89.71" x2="139.29" y2="89.1"/><line class="cls-9" x1="139.29" y1="89.1" x2="139.29" y2="88.48"/><line class="cls-9" x1="139.29" y1="88.48" x2="139.91" y2="87.86"/><line class="cls-9" x1="139.91" y1="87.86" x2="140.53" y2="87.24"/><line class="cls-9" x1="140.53" y1="87.24" x2="141.14" y2="86.62"/><line class="cls-9" x1="141.14" y1="86.62" x2="141.77" y2="86"/><line class="cls-9" x1="141.77" y1="86" x2="141.77" y2="84.76"/><line class="cls-9" x1="141.77" y1="84.76" x2="142.39" y2="84.14"/><line class="cls-9" x1="142.39" y1="84.14" x2="143" y2="83.53"/><line class="cls-9" x1="143" y1="83.53" x2="143" y2="82.9"/><line class="cls-9" x1="143" y1="82.9" x2="143.63" y2="81.67"/><line class="cls-9" x1="143.63" y1="81.67" x2="143.63" y2="81.05"/><line class="cls-9" x1="143.63" y1="81.05" x2="144.24" y2="80.43"/><line class="cls-9" x1="144.24" y1="80.43" x2="144.24" y2="79.19"/><line class="cls-9" x1="144.24" y1="79.19" x2="144.86" y2="78.57"/><line class="cls-9" x1="144.86" y1="78.57" x2="144.86" y2="77.33"/><line class="cls-9" x1="144.86" y1="77.33" x2="145.48" y2="76.72"/><line class="cls-9" x1="145.48" y1="76.72" x2="145.48" y2="76.09"/><line class="cls-9" x1="145.48" y1="76.09" x2="145.48" y2="74.86"/><line class="cls-9" x1="145.48" y1="74.86" x2="146.1" y2="74.24"/><line class="cls-9" x1="146.1" y1="74.24" x2="146.1" y2="73"/><line class="cls-9" x1="146.1" y1="73" x2="146.1" y2="72.38"/><line class="cls-9" x1="146.1" y1="72.38" x2="146.1" y2="71.14"/><line class="cls-9" x1="146.1" y1="71.14" x2="146.1" y2="70.52"/><line class="cls-9" x1="146.1" y1="70.52" x2="146.1" y2="69.28"/><line class="cls-9" x1="146.1" y1="69.28" x2="146.1" y2="68.67"/><line class="cls-9" x1="146.1" y1="68.67" x2="146.1" y2="67.43"/><line class="cls-9" x1="146.1" y1="67.43" x2="146.1" y2="66.19"/><line class="cls-9" x1="146.1" y1="66.19" x2="146.1" y2="65.57"/><line class="cls-9" x1="146.1" y1="65.57" x2="146.1" y2="64.33"/><line class="cls-9" x1="146.1" y1="64.33" x2="146.1" y2="63.71"/><line class="cls-9" x1="146.1" y1="63.71" x2="146.1" y2="62.47"/><line class="cls-9" x1="146.1" y1="62.47" x2="146.1" y2="61.86"/><line class="cls-9" x1="146.1" y1="61.86" x2="145.48" y2="60.62"/><line class="cls-9" x1="145.48" y1="60.62" x2="145.48" y2="60"/><line class="cls-9" x1="145.48" y1="60" x2="145.48" y2="58.76"/><line class="cls-9" x1="145.48" y1="58.76" x2="144.86" y2="57.52"/><line class="cls-9" x1="144.86" y1="57.52" x2="144.86" y2="56.91"/><line class="cls-9" x1="144.86" y1="56.91" x2="144.24" y2="55.66"/><line class="cls-9" x1="144.24" y1="55.66" x2="144.24" y2="55.05"/><line class="cls-9" x1="144.24" y1="55.05" x2="143.63" y2="53.81"/><line class="cls-9" x1="143.63" y1="53.81" x2="143.63" y2="53.19"/><line class="cls-9" x1="143.63" y1="53.19" x2="143" y2="51.95"/><line class="cls-9" x1="143" y1="51.95" x2="143" y2="51.34"/><line class="cls-9" x1="143" y1="51.34" x2="142.39" y2="50.1"/><line class="cls-9" x1="142.39" y1="50.1" x2="141.77" y2="49.48"/><line class="cls-9" x1="141.77" y1="49.48" x2="141.77" y2="48.24"/><line class="cls-9" x1="141.77" y1="48.24" x2="141.14" y2="47.62"/><line class="cls-9" x1="141.14" y1="47.62" x2="140.53" y2="46.38"/><line class="cls-9" x1="140.53" y1="46.38" x2="139.91" y2="45.76"/><line class="cls-9" x1="139.91" y1="45.76" x2="139.29" y2="44.53"/><line class="cls-9" x1="139.29" y1="44.53" x2="138.67" y2="43.9"/><line class="cls-9" x1="138.67" y1="43.9" x2="138.05" y2="42.67"/><line class="cls-9" x1="138.05" y1="42.67" x2="137.43" y2="42.05"/><line class="cls-9" x1="137.43" y1="42.05" x2="136.82" y2="41.43"/><line class="cls-9" x1="136.82" y1="41.43" x2="136.19" y2="40.19"/><line class="cls-9" x1="136.19" y1="40.19" x2="135.57" y2="39.57"/><line class="cls-9" x1="135.57" y1="39.57" x2="134.96" y2="38.95"/><line class="cls-9" x1="134.96" y1="38.95" x2="134.33" y2="37.72"/><line class="cls-9" x1="134.33" y1="37.72" x2="133.72" y2="37.09"/><line class="cls-9" x1="133.72" y1="37.09" x2="132.48" y2="36.48"/><line class="cls-9" x1="132.48" y1="36.48" x2="131.86" y2="35.86"/><line class="cls-9" x1="131.86" y1="35.86" x2="131.24" y2="34.62"/><line class="cls-9" x1="131.24" y1="34.62" x2="130.62" y2="34"/><line class="cls-9" x1="130.62" y1="34" x2="129.38" y2="33.38"/><line class="cls-9" x1="129.38" y1="33.38" x2="128.76" y2="32.77"/><line class="cls-9" x1="128.76" y1="32.77" x2="127.52" y2="32.14"/><line class="cls-9" x1="127.52" y1="32.14" x2="126.91" y2="31.52"/><line class="cls-9" x1="126.91" y1="31.52" x2="125.66" y2="30.91"/><line class="cls-9" x1="125.66" y1="30.91" x2="125.05" y2="30.28"/><line class="cls-9" x1="125.05" y1="30.28" x2="123.81" y2="29.67"/><line class="cls-9" x1="123.81" y1="29.67" x2="123.19" y2="29.05"/><line class="cls-9" x1="123.19" y1="29.05" x2="121.95" y2="28.43"/><line class="cls-9" x1="121.95" y1="28.43" x2="121.34" y2="27.81"/><line class="cls-9" x1="121.34" y1="27.81" x2="120.09" y2="27.81"/><line class="cls-9" x1="120.09" y1="27.81" x2="119.48" y2="27.19"/><line class="cls-9" x1="119.48" y1="27.19" x2="118.24" y2="26.57"/><line class="cls-9" x1="118.24" y1="26.57" x2="117" y2="25.96"/><line class="cls-9" x1="117" y1="25.96" x2="116.38" y2="25.96"/><line class="cls-9" x1="116.38" y1="25.96" x2="115.14" y2="25.33"/><line class="cls-9" x1="115.14" y1="25.33" x2="113.9" y2="25.33"/><line class="cls-9" x1="113.9" y1="25.33" x2="112.67" y2="24.71"/><line class="cls-9" x1="112.67" y1="24.71" x2="112.04" y2="24.1"/><line class="cls-9" x1="112.04" y1="24.1" x2="110.81" y2="24.1"/><line class="cls-9" x1="110.81" y1="24.1" x2="109.57" y2="24.1"/><line class="cls-9" x1="109.57" y1="24.1" x2="108.33" y2="23.47"/><line class="cls-9" x1="108.33" y1="23.47" x2="107.71" y2="23.47"/><line class="cls-9" x1="107.71" y1="23.47" x2="106.47" y2="23.47"/><line class="cls-9" x1="106.47" y1="23.47" x2="105.23" y2="22.86"/><line class="cls-9" x1="105.23" y1="22.86" x2="104" y2="22.86"/><line class="cls-9" x1="104" y1="22.86" x2="102.76" y2="22.86"/><line class="cls-9" x1="102.76" y1="22.86" x2="102.14" y2="22.86"/><line class="cls-9" x1="102.14" y1="22.86" x2="100.9" y2="22.86"/><line class="cls-9" x1="100.9" y1="22.86" x2="99.66" y2="22.86"/><line class="cls-10" x1="99.66" y1="14.81" x2="99.66" y2="87.24"/><text class="cls-3" transform="translate(53.88 196.8)"><tspan class="cls-11">T</tspan><tspan class="cls-12" x="4.59" y="0">h</tspan><tspan class="cls-13" x="9.76" y="0">e</tspan><tspan class="cls-14" x="14.36" y="0">t</tspan><tspan class="cls-15" x="17.48" y="0">a</tspan><tspan class="cls-16" x="21.91" y="0"> </tspan><tspan class="cls-17" x="23.77" y="0">/ </tspan><tspan class="cls-18" x="28.89" y="0">D</tspan><tspan class="cls-19" x="35" y="0">e</tspan><tspan class="cls-20" x="39.68" y="0">g</tspan><tspan x="44.85" y="0">r</tspan><tspan class="cls-19" x="47.89" y="0">ee</tspan><tspan class="cls-20" x="57.25" y="0"> </tspan><tspan class="cls-18" x="59.2" y="0">v</tspan><tspan class="cls-21" x="63.59" y="0">s</tspan><tspan class="cls-20" x="67.21" y="0">. d</tspan><tspan class="cls-22" x="76.28" y="0">B</tspan><tspan x="81.23" y="0">i</tspan></text></svg>