<?xml version="1.0" encoding="utf-8"?>
<!-- Generator: Adobe Illustrator 21.0.0, SVG Export Plug-In . SVG Version: 6.00 Build 0)  -->
<svg version="1.1" id="Layer_1" xmlns="http://www.w3.org/2000/svg" xmlns:xlink="http://www.w3.org/1999/xlink" x="0px" y="0px"
	 viewBox="0 0 201.6 199" style="enable-background:new 0 0 201.6 199;" xml:space="preserve">
<style type="text/css">
	.st0{fill:none;stroke:#010101;stroke-width:0.62;stroke-linecap:round;stroke-linejoin:round;}
	.st1{fill:#FFFFFF;}
	.st2{fill:#010101;}
	.st3{font-family:'ArialMT';}
	.st4{font-size:9.28px;}
	.st5{fill:none;stroke:#ED2224;stroke-width:1.24;stroke-linecap:round;stroke-linejoin:round;}
	.st6{fill:none;stroke:#3A53A4;stroke-width:1.24;stroke-linecap:round;stroke-linejoin:round;}
</style>
<title>patternE</title>
<line class="st0" x1="162.7" y1="51.3" x2="100.2" y2="87.2"/>
<line class="st0" x1="136.1" y1="24.7" x2="100.2" y2="87.2"/>
<line class="st0" x1="63.7" y1="24.7" x2="100.2" y2="87.2"/>
<line class="st0" x1="37.1" y1="51.3" x2="100.2" y2="87.2"/>
<line class="st0" x1="37.1" y1="123.7" x2="100.2" y2="87.2"/>
<line class="st0" x1="63.7" y1="149.7" x2="100.2" y2="87.2"/>
<line class="st0" x1="136.1" y1="149.7" x2="100.2" y2="87.2"/>
<line class="st0" x1="162.7" y1="123.7" x2="100.2" y2="87.2"/>
<line class="st0" x1="172.6" y1="87.2" x2="100.2" y2="87.2"/>
<line class="st0" x1="100.2" y1="14.8" x2="100.2" y2="87.2"/>
<line class="st0" x1="27.8" y1="87.2" x2="100.2" y2="87.2"/>
<line class="st0" x1="100.2" y1="159.6" x2="100.2" y2="87.2"/>
<line class="st0" x1="172.6" y1="87.2" x2="100.2" y2="87.2"/>
<ellipse class="st0" cx="99.9" cy="86.9" rx="14.5" ry="13.9"/>
<circle class="st0" cx="99.9" cy="86.9" r="28.8"/>
<ellipse class="st0" cx="99.9" cy="86.9" rx="43.6" ry="43"/>
<ellipse class="st0" cx="99.9" cy="86.9" rx="57.8" ry="57.8"/>
<ellipse class="st0" cx="100.2" cy="86.9" rx="72.4" ry="72.1"/>
<rect x="96.5" class="st1" width="6.8" height="13"/>
<text transform="matrix(1 0 0 1 97.68 10.44)" class="st2 st3 st4">0</text>
<rect x="173.2" y="80.4" class="st1" width="11.8" height="13"/>
<text transform="matrix(1 0 0 1 174.48 90.84)" class="st2 st3 st4">9</text>
<text transform="matrix(1 0 0 1 179.19 90.84)" class="st2 st3 st4">0</text>
<rect x="163.3" y="37.7" class="st1" width="11.8" height="13"/>
<text transform="matrix(1 0 0 1 164.52 48.12)" class="st2 st3 st4">6</text>
<text transform="matrix(1 0 0 1 169.23 48.12)" class="st2 st3 st4">0</text>
<rect x="136.1" y="9.8" class="st1" width="11.8" height="13"/>
<text transform="matrix(1 0 0 1 137.28 20.28)" class="st2 st3 st4">3</text>
<text transform="matrix(1 0 0 1 141.99 20.28)" class="st2 st3 st4">0</text>
<rect x="51.4" y="9.8" class="st1" width="11.8" height="13"/>
<text transform="matrix(1 0 0 1 52.56 20.28)" class="st2 st3 st4">3</text>
<text transform="matrix(1 0 0 1 57.27 20.28)" class="st2 st3 st4">0</text>
<rect x="24.1" y="37.7" class="st1" width="11.8" height="13"/>
<text transform="matrix(1 0 0 1 25.32 48.12)" class="st2 st3 st4">6</text>
<text transform="matrix(1 0 0 1 30.03 48.12)" class="st2 st3 st4">0</text>
<rect x="14.3" y="80.4" class="st1" width="11.6" height="13"/>
<text transform="matrix(1 0 0 1 15.48 90.84)" class="st2 st3 st4">9</text>
<text transform="matrix(1 0 0 1 20.19 90.84)" class="st2 st3 st4">0</text>
<rect x="19.2" y="123.1" class="st1" width="16.7" height="13"/>
<text transform="matrix(1 0 0 1 20.4 133.56)" class="st2 st3 st4">12</text>
<text transform="matrix(1 0 0 1 29.83 133.56)" class="st2 st3 st4">0</text>
<rect x="46.4" y="151" class="st1" width="16.7" height="13"/>
<text transform="matrix(1 0 0 1 47.64 161.4)" class="st2 st3 st4">15</text>
<text transform="matrix(1 0 0 1 57.07 161.4)" class="st2 st3 st4">0</text>
<rect x="91.6" y="160.8" class="st1" width="16.7" height="13"/>
<text transform="matrix(1 0 0 1 92.76 171.24)" class="st2 st3 st4">18</text>
<text transform="matrix(1 0 0 1 102.19 171.24)" class="st2 st3 st4">0</text>
<rect x="136.1" y="151" class="st1" width="16.7" height="13"/>
<text transform="matrix(1 0 0 1 137.28 161.4)" class="st2 st3 st4">15</text>
<text transform="matrix(1 0 0 1 146.71 161.4)" class="st2 st3 st4">0</text>
<rect x="163.3" y="123.1" class="st1" width="16.7" height="13"/>
<text transform="matrix(1 0 0 1 164.52 133.56)" class="st2 st3 st4">12</text>
<text transform="matrix(1 0 0 1 173.95 133.56)" class="st2 st3 st4">0</text>
<rect x="139.8" y="90.8" class="st1" width="6.8" height="13.1"/>
<text transform="matrix(1 0 0 1 141 101.4)" class="st2 st3 st4">0</text>
<rect x="151.6" y="90.8" class="st1" width="11.8" height="13.1"/>
<text transform="matrix(1 0 0 1 152.76 101.4)" class="st2 st3 st4">1</text>
<text transform="matrix(1 0 0 1 157.47 101.4)" class="st2 st3 st4">0</text>
<rect x="92.2" y="90.8" class="st1" width="15.5" height="13.1"/>
<text transform="matrix(1 0 0 1 93.36 101.4)" class="st2 st3 st4">-</text>
<text transform="matrix(1 0 0 1 96.18 101.4)" class="st2 st3 st4">3</text>
<text transform="matrix(1 0 0 1 100.9 101.4)" class="st2 st3 st4">0</text>
<rect x="120.6" y="90.8" class="st1" width="15.5" height="13.1"/>
<text transform="matrix(1 0 0 1 121.92 101.4)" class="st2 st3 st4">-</text>
<text transform="matrix(1 0 0 1 124.74 101.4)" class="st2 st3 st4">1</text>
<text transform="matrix(1 0 0 1 129.46 101.4)" class="st2 st3 st4">0</text>
<line class="st5" x1="100.2" y1="25.3" x2="99" y2="25.3"/>
<line class="st5" x1="99" y1="25.3" x2="97.7" y2="25.3"/>
<line class="st5" x1="97.7" y1="25.3" x2="96.5" y2="25.3"/>
<line class="st5" x1="96.5" y1="25.3" x2="95.9" y2="25.9"/>
<line class="st5" x1="95.9" y1="25.9" x2="94.6" y2="25.9"/>
<line class="st5" x1="94.6" y1="25.9" x2="93.4" y2="25.9"/>
<line class="st5" x1="93.4" y1="25.9" x2="92.2" y2="25.9"/>
<line class="st5" x1="92.2" y1="25.9" x2="91.6" y2="26.5"/>
<line class="st5" x1="91.6" y1="26.5" x2="90.3" y2="26.5"/>
<line class="st5" x1="90.3" y1="26.5" x2="89.1" y2="27.2"/>
<line class="st5" x1="89.1" y1="27.2" x2="88.5" y2="27.8"/>
<line class="st5" x1="88.5" y1="27.8" x2="87.2" y2="27.8"/>
<line class="st5" x1="87.2" y1="27.8" x2="86.6" y2="28.4"/>
<line class="st5" x1="86.6" y1="28.4" x2="85.4" y2="29"/>
<line class="st5" x1="85.4" y1="29" x2="84.7" y2="29.6"/>
<line class="st5" x1="84.7" y1="29.6" x2="83.5" y2="30.3"/>
<line class="st5" x1="83.5" y1="30.3" x2="82.9" y2="30.9"/>
<line class="st5" x1="82.9" y1="30.9" x2="81.7" y2="31.5"/>
<line class="st5" x1="81.7" y1="31.5" x2="81" y2="32.1"/>
<line class="st5" x1="81" y1="32.1" x2="79.8" y2="32.7"/>
<line class="st5" x1="79.8" y1="32.7" x2="79.2" y2="33.3"/>
<line class="st5" x1="79.2" y1="33.3" x2="78.6" y2="34"/>
<line class="st5" x1="78.6" y1="34" x2="77.9" y2="35.2"/>
<line class="st5" x1="77.9" y1="35.2" x2="77.3" y2="35.8"/>
<line class="st5" x1="77.3" y1="35.8" x2="76.1" y2="36.4"/>
<line class="st5" x1="76.1" y1="36.4" x2="75.5" y2="37.7"/>
<line class="st5" x1="75.5" y1="37.7" x2="74.8" y2="38.3"/>
<line class="st5" x1="74.8" y1="38.3" x2="74.2" y2="39.5"/>
<line class="st5" x1="74.2" y1="39.5" x2="74.2" y2="40.2"/>
<line class="st5" x1="74.2" y1="40.2" x2="73.6" y2="41.4"/>
<line class="st5" x1="73.6" y1="41.4" x2="73" y2="42.6"/>
<line class="st5" x1="73" y1="42.6" x2="72.4" y2="43.3"/>
<line class="st5" x1="72.4" y1="43.3" x2="72.4" y2="44.5"/>
<line class="st5" x1="72.4" y1="44.5" x2="71.8" y2="45.7"/>
<line class="st5" x1="71.8" y1="45.7" x2="71.8" y2="47"/>
<line class="st5" x1="71.8" y1="47" x2="71.1" y2="48.2"/>
<line class="st5" x1="71.1" y1="48.2" x2="71.1" y2="48.8"/>
<line class="st5" x1="71.1" y1="48.8" x2="71.1" y2="50"/>
<line class="st5" x1="71.1" y1="50" x2="71.1" y2="51.3"/>
<line class="st5" x1="71.1" y1="51.3" x2="71.1" y2="52.5"/>
<line class="st5" x1="71.1" y1="52.5" x2="71.1" y2="53.8"/>
<line class="st5" x1="71.1" y1="53.8" x2="71.1" y2="55.6"/>
<line class="st5" x1="71.1" y1="55.6" x2="71.8" y2="56.9"/>
<line class="st5" x1="71.8" y1="56.9" x2="71.8" y2="58.1"/>
<line class="st5" x1="71.8" y1="58.1" x2="72.4" y2="59.3"/>
<line class="st5" x1="72.4" y1="59.3" x2="73" y2="61.2"/>
<line class="st5" x1="73" y1="61.2" x2="73.6" y2="62.4"/>
<line class="st5" x1="73.6" y1="62.4" x2="74.2" y2="63.7"/>
<line class="st5" x1="74.2" y1="63.7" x2="74.8" y2="65.5"/>
<line class="st5" x1="74.8" y1="65.5" x2="76.1" y2="67.4"/>
<line class="st5" x1="76.1" y1="67.4" x2="77.3" y2="68.6"/>
<line class="st5" x1="77.3" y1="68.6" x2="78.6" y2="70.5"/>
<line class="st5" x1="78.6" y1="70.5" x2="80.4" y2="72.3"/>
<line class="st5" x1="80.4" y1="72.3" x2="82.3" y2="74.2"/>
<line class="st5" x1="82.3" y1="74.2" x2="84.7" y2="76.7"/>
<line class="st5" x1="84.7" y1="76.7" x2="86.6" y2="77.9"/>
<line class="st5" x1="86.6" y1="77.9" x2="87.8" y2="79.1"/>
<line class="st5" x1="87.8" y1="79.1" x2="87.2" y2="79.1"/>
<line class="st5" x1="87.2" y1="79.1" x2="85.4" y2="78.5"/>
<line class="st5" x1="85.4" y1="78.5" x2="83.5" y2="77.9"/>
<line class="st5" x1="83.5" y1="77.9" x2="81.7" y2="77.3"/>
<line class="st5" x1="81.7" y1="77.3" x2="79.8" y2="76.7"/>
<line class="st5" x1="79.8" y1="76.7" x2="78.6" y2="76"/>
<line class="st5" x1="78.6" y1="76" x2="77.3" y2="76"/>
<line class="st5" x1="77.3" y1="76" x2="76.1" y2="76"/>
<line class="st5" x1="76.1" y1="76" x2="74.8" y2="76"/>
<line class="st5" x1="74.8" y1="76" x2="74.2" y2="76"/>
<line class="st5" x1="74.2" y1="76" x2="73" y2="76.7"/>
<line class="st5" x1="73" y1="76.7" x2="72.4" y2="76.7"/>
<line class="st5" x1="72.4" y1="76.7" x2="71.8" y2="76.7"/>
<line class="st5" x1="71.8" y1="76.7" x2="71.1" y2="77.3"/>
<line class="st5" x1="71.1" y1="77.3" x2="70.5" y2="77.9"/>
<line class="st5" x1="70.5" y1="77.9" x2="70.5" y2="77.9"/>
<line class="st5" x1="70.5" y1="77.9" x2="69.9" y2="78.5"/>
<line class="st5" x1="69.9" y1="78.5" x2="69.3" y2="79.1"/>
<line class="st5" x1="69.3" y1="79.1" x2="69.3" y2="79.8"/>
<line class="st5" x1="69.3" y1="79.8" x2="68.7" y2="79.8"/>
<line class="st5" x1="68.7" y1="79.8" x2="68.7" y2="80.4"/>
<line class="st5" x1="68.7" y1="80.4" x2="68.7" y2="81"/>
<line class="st5" x1="68.7" y1="81" x2="68.7" y2="81.6"/>
<line class="st5" x1="68.7" y1="81.6" x2="68" y2="82.2"/>
<line class="st5" x1="68" y1="82.2" x2="68" y2="82.8"/>
<line class="st5" x1="68" y1="82.8" x2="68" y2="83.5"/>
<line class="st5" x1="68" y1="83.5" x2="68" y2="84.1"/>
<line class="st5" x1="68" y1="84.1" x2="68" y2="84.7"/>
<line class="st5" x1="68" y1="84.7" x2="68.7" y2="85.3"/>
<line class="st5" x1="68.7" y1="85.3" x2="68.7" y2="85.9"/>
<line class="st5" x1="68.7" y1="85.9" x2="68.7" y2="86.6"/>
<line class="st5" x1="68.7" y1="86.6" x2="68.7" y2="87.2"/>
<line class="st5" x1="68.7" y1="87.2" x2="68.7" y2="87.8"/>
<line class="st5" x1="68.7" y1="87.8" x2="69.3" y2="88.4"/>
<line class="st5" x1="69.3" y1="88.4" x2="69.3" y2="89"/>
<line class="st5" x1="69.3" y1="89" x2="69.3" y2="89"/>
<line class="st5" x1="69.3" y1="89" x2="69.3" y2="89.7"/>
<line class="st5" x1="69.3" y1="89.7" x2="69.9" y2="90.3"/>
<line class="st5" x1="69.9" y1="90.3" x2="69.9" y2="90.9"/>
<line class="st5" x1="69.9" y1="90.9" x2="69.9" y2="91.5"/>
<line class="st5" x1="69.9" y1="91.5" x2="69.9" y2="92.1"/>
<line class="st5" x1="69.9" y1="92.1" x2="70.5" y2="92.1"/>
<line class="st5" x1="70.5" y1="92.1" x2="70.5" y2="92.7"/>
<line class="st5" x1="70.5" y1="92.7" x2="70.5" y2="93.4"/>
<line class="st5" x1="70.5" y1="93.4" x2="70.5" y2="94"/>
<line class="st5" x1="70.5" y1="94" x2="70.5" y2="94.6"/>
<line class="st5" x1="70.5" y1="94.6" x2="70.5" y2="95.2"/>
<line class="st5" x1="70.5" y1="95.2" x2="70.5" y2="95.8"/>
<line class="st5" x1="70.5" y1="95.8" x2="70.5" y2="96.5"/>
<line class="st5" x1="70.5" y1="96.5" x2="70.5" y2="97.1"/>
<line class="st5" x1="70.5" y1="97.1" x2="70.5" y2="97.7"/>
<line class="st5" x1="70.5" y1="97.7" x2="69.9" y2="98.3"/>
<line class="st5" x1="69.9" y1="98.3" x2="69.9" y2="98.9"/>
<line class="st5" x1="69.9" y1="98.9" x2="69.9" y2="99.6"/>
<line class="st5" x1="69.9" y1="99.6" x2="69.9" y2="100.2"/>
<line class="st5" x1="69.9" y1="100.2" x2="69.9" y2="100.8"/>
<line class="st5" x1="69.9" y1="100.8" x2="69.9" y2="101.4"/>
<line class="st5" x1="69.9" y1="101.4" x2="69.9" y2="102"/>
<line class="st5" x1="69.9" y1="102" x2="69.9" y2="102.6"/>
<line class="st5" x1="69.9" y1="102.6" x2="69.9" y2="103.3"/>
<line class="st5" x1="69.9" y1="103.3" x2="69.9" y2="103.9"/>
<line class="st5" x1="69.9" y1="103.9" x2="69.9" y2="104.5"/>
<line class="st5" x1="69.9" y1="104.5" x2="69.9" y2="105.1"/>
<line class="st5" x1="69.9" y1="105.1" x2="69.9" y2="105.7"/>
<line class="st5" x1="69.9" y1="105.7" x2="69.9" y2="106.4"/>
<line class="st5" x1="69.9" y1="106.4" x2="69.9" y2="107"/>
<line class="st5" x1="69.9" y1="107" x2="70.5" y2="107.6"/>
<line class="st5" x1="70.5" y1="107.6" x2="70.5" y2="108.2"/>
<line class="st5" x1="70.5" y1="108.2" x2="70.5" y2="108.8"/>
<line class="st5" x1="70.5" y1="108.8" x2="71.1" y2="109.4"/>
<line class="st5" x1="71.1" y1="109.4" x2="71.1" y2="110.1"/>
<line class="st5" x1="71.1" y1="110.1" x2="71.8" y2="110.7"/>
<line class="st5" x1="71.8" y1="110.7" x2="72.4" y2="111.3"/>
<line class="st5" x1="72.4" y1="111.3" x2="72.4" y2="111.9"/>
<line class="st5" x1="72.4" y1="111.9" x2="73" y2="112.5"/>
<line class="st5" x1="73" y1="112.5" x2="73.6" y2="112.5"/>
<line class="st5" x1="73.6" y1="112.5" x2="73.6" y2="113.2"/>
<line class="st5" x1="73.6" y1="113.2" x2="74.2" y2="113.8"/>
<line class="st5" x1="74.2" y1="113.8" x2="74.8" y2="113.8"/>
<line class="st5" x1="74.8" y1="113.8" x2="75.5" y2="114.4"/>
<line class="st5" x1="75.5" y1="114.4" x2="76.1" y2="114.4"/>
<line class="st5" x1="76.1" y1="114.4" x2="76.7" y2="115"/>
<line class="st5" x1="76.7" y1="115" x2="77.3" y2="115"/>
<line class="st5" x1="77.3" y1="115" x2="77.9" y2="115"/>
<line class="st5" x1="77.9" y1="115" x2="78.6" y2="115"/>
<line class="st5" x1="78.6" y1="115" x2="79.2" y2="115"/>
<line class="st5" x1="79.2" y1="115" x2="80.4" y2="115"/>
<line class="st5" x1="80.4" y1="115" x2="81" y2="115"/>
<line class="st5" x1="81" y1="115" x2="81.7" y2="115"/>
<line class="st5" x1="81.7" y1="115" x2="82.9" y2="114.4"/>
<line class="st5" x1="82.9" y1="114.4" x2="83.5" y2="114.4"/>
<line class="st5" x1="83.5" y1="114.4" x2="84.7" y2="113.8"/>
<line class="st5" x1="84.7" y1="113.8" x2="85.4" y2="113.2"/>
<line class="st5" x1="85.4" y1="113.2" x2="86.6" y2="112.5"/>
<line class="st5" x1="86.6" y1="112.5" x2="87.2" y2="111.3"/>
<line class="st5" x1="87.2" y1="111.3" x2="88.5" y2="110.7"/>
<line class="st5" x1="88.5" y1="110.7" x2="89.7" y2="109.4"/>
<line class="st5" x1="89.7" y1="109.4" x2="90.9" y2="107.6"/>
<line class="st5" x1="90.9" y1="107.6" x2="92.2" y2="105.7"/>
<line class="st5" x1="92.2" y1="105.7" x2="93.4" y2="103.3"/>
<line class="st5" x1="93.4" y1="103.3" x2="94.6" y2="100.2"/>
<line class="st5" x1="94.6" y1="100.2" x2="95.9" y2="97.7"/>
<line class="st5" x1="95.9" y1="97.7" x2="97.1" y2="95.8"/>
<line class="st5" x1="97.1" y1="95.8" x2="96.5" y2="97.1"/>
<line class="st5" x1="96.5" y1="97.1" x2="95.9" y2="100.2"/>
<line class="st5" x1="95.9" y1="100.2" x2="95.3" y2="103.3"/>
<line class="st5" x1="95.3" y1="103.3" x2="94.6" y2="105.7"/>
<line class="st5" x1="94.6" y1="105.7" x2="94.6" y2="108.2"/>
<line class="st5" x1="94.6" y1="108.2" x2="94.6" y2="110.1"/>
<line class="st5" x1="94.6" y1="110.1" x2="94.6" y2="111.9"/>
<line class="st5" x1="94.6" y1="111.9" x2="94.6" y2="113.2"/>
<line class="st5" x1="94.6" y1="113.2" x2="95.3" y2="114.4"/>
<line class="st5" x1="95.3" y1="114.4" x2="95.3" y2="115.6"/>
<line class="st5" x1="95.3" y1="115.6" x2="95.9" y2="116.3"/>
<line class="st5" x1="95.9" y1="116.3" x2="96.5" y2="116.9"/>
<line class="st5" x1="96.5" y1="116.9" x2="96.5" y2="118.1"/>
<line class="st5" x1="96.5" y1="118.1" x2="97.1" y2="118.1"/>
<line class="st5" x1="97.1" y1="118.1" x2="97.7" y2="118.7"/>
<line class="st5" x1="97.7" y1="118.7" x2="98.4" y2="119.3"/>
<line class="st5" x1="98.4" y1="119.3" x2="99" y2="119.3"/>
<line class="st5" x1="99" y1="119.3" x2="99.6" y2="119.3"/>
<line class="st5" x1="99.6" y1="119.3" x2="100.2" y2="120"/>
<line class="st5" x1="100.2" y1="120" x2="100.2" y2="120"/>
<line class="st5" x1="100.2" y1="120" x2="100.8" y2="119.3"/>
<line class="st5" x1="100.8" y1="119.3" x2="101.4" y2="119.3"/>
<line class="st5" x1="101.4" y1="119.3" x2="102.1" y2="119.3"/>
<line class="st5" x1="102.1" y1="119.3" x2="102.7" y2="118.7"/>
<line class="st5" x1="102.7" y1="118.7" x2="103.3" y2="118.1"/>
<line class="st5" x1="103.3" y1="118.1" x2="103.9" y2="118.1"/>
<line class="st5" x1="103.9" y1="118.1" x2="103.9" y2="117.5"/>
<line class="st5" x1="103.9" y1="117.5" x2="104.5" y2="116.3"/>
<line class="st5" x1="104.5" y1="116.3" x2="105.2" y2="115.6"/>
<line class="st5" x1="105.2" y1="115.6" x2="105.2" y2="114.4"/>
<line class="st5" x1="105.2" y1="114.4" x2="105.8" y2="113.8"/>
<line class="st5" x1="105.8" y1="113.8" x2="105.8" y2="112.5"/>
<line class="st5" x1="105.8" y1="112.5" x2="105.8" y2="110.7"/>
<line class="st5" x1="105.8" y1="110.7" x2="105.8" y2="109.4"/>
<line class="st5" x1="105.8" y1="109.4" x2="105.8" y2="107.6"/>
<line class="st5" x1="105.8" y1="107.6" x2="105.8" y2="105.7"/>
<line class="st5" x1="105.8" y1="105.7" x2="105.2" y2="103.9"/>
<line class="st5" x1="105.2" y1="103.9" x2="105.2" y2="102.6"/>
<line class="st5" x1="105.2" y1="102.6" x2="105.2" y2="101.4"/>
<line class="st5" x1="105.2" y1="101.4" x2="105.8" y2="102"/>
<line class="st5" x1="105.8" y1="102" x2="106.4" y2="103.3"/>
<line class="st5" x1="106.4" y1="103.3" x2="107.6" y2="104.5"/>
<line class="st5" x1="107.6" y1="104.5" x2="108.3" y2="106.4"/>
<line class="st5" x1="108.3" y1="106.4" x2="109.5" y2="107.6"/>
<line class="st5" x1="109.5" y1="107.6" x2="110.7" y2="109.4"/>
<line class="st5" x1="110.7" y1="109.4" x2="112" y2="110.1"/>
<line class="st5" x1="112" y1="110.1" x2="112.6" y2="111.3"/>
<line class="st5" x1="112.6" y1="111.3" x2="113.8" y2="111.9"/>
<line class="st5" x1="113.8" y1="111.9" x2="114.4" y2="112.5"/>
<line class="st5" x1="114.4" y1="112.5" x2="115.7" y2="113.2"/>
<line class="st5" x1="115.7" y1="113.2" x2="116.3" y2="113.8"/>
<line class="st5" x1="116.3" y1="113.8" x2="117.5" y2="113.8"/>
<line class="st5" x1="117.5" y1="113.8" x2="118.2" y2="114.4"/>
<line class="st5" x1="118.2" y1="114.4" x2="118.8" y2="114.4"/>
<line class="st5" x1="118.8" y1="114.4" x2="119.4" y2="114.4"/>
<line class="st5" x1="119.4" y1="114.4" x2="120.6" y2="114.4"/>
<line class="st5" x1="120.6" y1="114.4" x2="121.3" y2="114.4"/>
<line class="st5" x1="121.3" y1="114.4" x2="121.9" y2="114.4"/>
<line class="st5" x1="121.9" y1="114.4" x2="122.5" y2="113.8"/>
<line class="st5" x1="122.5" y1="113.8" x2="123.1" y2="113.8"/>
<line class="st5" x1="123.1" y1="113.8" x2="123.7" y2="113.8"/>
<line class="st5" x1="123.7" y1="113.8" x2="124.3" y2="113.2"/>
<line class="st5" x1="124.3" y1="113.2" x2="125" y2="113.2"/>
<line class="st5" x1="125" y1="113.2" x2="125.6" y2="112.5"/>
<line class="st5" x1="125.6" y1="112.5" x2="125.6" y2="111.9"/>
<line class="st5" x1="125.6" y1="111.9" x2="126.2" y2="111.9"/>
<line class="st5" x1="126.2" y1="111.9" x2="126.8" y2="111.3"/>
<line class="st5" x1="126.8" y1="111.3" x2="126.8" y2="110.7"/>
<line class="st5" x1="126.8" y1="110.7" x2="127.4" y2="110.1"/>
<line class="st5" x1="127.4" y1="110.1" x2="128.1" y2="109.4"/>
<line class="st5" x1="128.1" y1="109.4" x2="128.1" y2="109.4"/>
<line class="st5" x1="128.1" y1="109.4" x2="128.1" y2="108.8"/>
<line class="st5" x1="128.1" y1="108.8" x2="128.7" y2="108.2"/>
<line class="st5" x1="128.7" y1="108.2" x2="128.7" y2="107.6"/>
<line class="st5" x1="128.7" y1="107.6" x2="129.3" y2="107"/>
<line class="st5" x1="129.3" y1="107" x2="129.3" y2="106.4"/>
<line class="st5" x1="129.3" y1="106.4" x2="129.3" y2="105.7"/>
<line class="st5" x1="129.3" y1="105.7" x2="129.3" y2="105.1"/>
<line class="st5" x1="129.3" y1="105.1" x2="129.3" y2="104.5"/>
<line class="st5" x1="129.3" y1="104.5" x2="129.9" y2="103.9"/>
<line class="st5" x1="129.9" y1="103.9" x2="129.9" y2="103.3"/>
<line class="st5" x1="129.9" y1="103.3" x2="129.9" y2="102.6"/>
<line class="st5" x1="129.9" y1="102.6" x2="129.9" y2="102"/>
<line class="st5" x1="129.9" y1="102" x2="129.9" y2="101.4"/>
<line class="st5" x1="129.9" y1="101.4" x2="129.9" y2="100.8"/>
<line class="st5" x1="129.9" y1="100.8" x2="129.9" y2="100.2"/>
<line class="st5" x1="129.9" y1="100.2" x2="129.9" y2="99.6"/>
<line class="st5" x1="129.9" y1="99.6" x2="129.9" y2="98.9"/>
<line class="st5" x1="129.9" y1="98.9" x2="129.9" y2="98.3"/>
<line class="st5" x1="129.9" y1="98.3" x2="129.9" y2="97.7"/>
<line class="st5" x1="129.9" y1="97.7" x2="129.9" y2="97.1"/>
<line class="st5" x1="129.9" y1="97.1" x2="130.5" y2="96.5"/>
<line class="st5" x1="130.5" y1="96.5" x2="130.5" y2="95.8"/>
<line class="st5" x1="130.5" y1="95.8" x2="130.5" y2="95.2"/>
<line class="st5" x1="130.5" y1="95.2" x2="130.5" y2="94.6"/>
<line class="st5" x1="130.5" y1="94.6" x2="130.5" y2="94"/>
<line class="st5" x1="130.5" y1="94" x2="131.1" y2="94"/>
<line class="st5" x1="131.1" y1="94" x2="131.1" y2="93.4"/>
<line class="st5" x1="131.1" y1="93.4" x2="131.1" y2="92.7"/>
<line class="st5" x1="131.1" y1="92.7" x2="131.1" y2="92.1"/>
<line class="st5" x1="131.1" y1="92.1" x2="131.8" y2="91.5"/>
<line class="st5" x1="131.8" y1="91.5" x2="131.8" y2="90.9"/>
<line class="st5" x1="131.8" y1="90.9" x2="131.8" y2="90.3"/>
<line class="st5" x1="131.8" y1="90.3" x2="132.4" y2="90.3"/>
<line class="st5" x1="132.4" y1="90.3" x2="132.4" y2="89.7"/>
<line class="st5" x1="132.4" y1="89.7" x2="132.4" y2="89"/>
<line class="st5" x1="132.4" y1="89" x2="133" y2="88.4"/>
<line class="st5" x1="133" y1="88.4" x2="133" y2="87.8"/>
<line class="st5" x1="133" y1="87.8" x2="133" y2="87.2"/>
<line class="st5" x1="133" y1="87.2" x2="133.6" y2="86.6"/>
<line class="st5" x1="133.6" y1="86.6" x2="133.6" y2="85.9"/>
<line class="st5" x1="133.6" y1="85.9" x2="133.6" y2="85.3"/>
<line class="st5" x1="133.6" y1="85.3" x2="133.6" y2="84.7"/>
<line class="st5" x1="133.6" y1="84.7" x2="133.6" y2="84.1"/>
<line class="st5" x1="133.6" y1="84.1" x2="133.6" y2="83.5"/>
<line class="st5" x1="133.6" y1="83.5" x2="133.6" y2="82.8"/>
<line class="st5" x1="133.6" y1="82.8" x2="133.6" y2="82.2"/>
<line class="st5" x1="133.6" y1="82.2" x2="133.6" y2="81.6"/>
<line class="st5" x1="133.6" y1="81.6" x2="133.6" y2="81"/>
<line class="st5" x1="133.6" y1="81" x2="133.6" y2="80.4"/>
<line class="st5" x1="133.6" y1="80.4" x2="133.6" y2="79.8"/>
<line class="st5" x1="133.6" y1="79.8" x2="133.6" y2="79.1"/>
<line class="st5" x1="133.6" y1="79.1" x2="133" y2="79.1"/>
<line class="st5" x1="133" y1="79.1" x2="133" y2="78.5"/>
<line class="st5" x1="133" y1="78.5" x2="133" y2="77.9"/>
<line class="st5" x1="133" y1="77.9" x2="132.4" y2="77.3"/>
<line class="st5" x1="132.4" y1="77.3" x2="132.4" y2="76.7"/>
<line class="st5" x1="132.4" y1="76.7" x2="131.8" y2="76"/>
<line class="st5" x1="131.8" y1="76" x2="131.1" y2="75.4"/>
<line class="st5" x1="131.1" y1="75.4" x2="131.1" y2="75.4"/>
<line class="st5" x1="131.1" y1="75.4" x2="130.5" y2="74.8"/>
<line class="st5" x1="130.5" y1="74.8" x2="129.9" y2="74.2"/>
<line class="st5" x1="129.9" y1="74.2" x2="129.3" y2="74.2"/>
<line class="st5" x1="129.3" y1="74.2" x2="128.7" y2="73.6"/>
<line class="st5" x1="128.7" y1="73.6" x2="128.1" y2="73.6"/>
<line class="st5" x1="128.1" y1="73.6" x2="126.8" y2="73.6"/>
<line class="st5" x1="126.8" y1="73.6" x2="126.2" y2="72.9"/>
<line class="st5" x1="126.2" y1="72.9" x2="125" y2="72.9"/>
<line class="st5" x1="125" y1="72.9" x2="124.3" y2="72.9"/>
<line class="st5" x1="124.3" y1="72.9" x2="123.1" y2="73.6"/>
<line class="st5" x1="123.1" y1="73.6" x2="121.9" y2="73.6"/>
<line class="st5" x1="121.9" y1="73.6" x2="120" y2="74.2"/>
<line class="st5" x1="120" y1="74.2" x2="118.8" y2="74.2"/>
<line class="st5" x1="118.8" y1="74.2" x2="117.5" y2="74.8"/>
<line class="st5" x1="117.5" y1="74.8" x2="116.3" y2="75.4"/>
<line class="st5" x1="116.3" y1="75.4" x2="115.7" y2="74.8"/>
<line class="st5" x1="115.7" y1="74.8" x2="116.3" y2="74.2"/>
<line class="st5" x1="116.3" y1="74.2" x2="117.5" y2="72.9"/>
<line class="st5" x1="117.5" y1="72.9" x2="118.8" y2="71.1"/>
<line class="st5" x1="118.8" y1="71.1" x2="120.6" y2="69.2"/>
<line class="st5" x1="120.6" y1="69.2" x2="121.9" y2="67.4"/>
<line class="st5" x1="121.9" y1="67.4" x2="123.1" y2="65.5"/>
<line class="st5" x1="123.1" y1="65.5" x2="123.7" y2="64.3"/>
<line class="st5" x1="123.7" y1="64.3" x2="124.3" y2="62.4"/>
<line class="st5" x1="124.3" y1="62.4" x2="125.6" y2="60.6"/>
<line class="st5" x1="125.6" y1="60.6" x2="125.6" y2="59.3"/>
<line class="st5" x1="125.6" y1="59.3" x2="126.2" y2="58.1"/>
<line class="st5" x1="126.2" y1="58.1" x2="126.8" y2="56.2"/>
<line class="st5" x1="126.8" y1="56.2" x2="126.8" y2="55"/>
<line class="st5" x1="126.8" y1="55" x2="126.8" y2="53.8"/>
<line class="st5" x1="126.8" y1="53.8" x2="127.4" y2="52.5"/>
<line class="st5" x1="127.4" y1="52.5" x2="127.4" y2="50.7"/>
<line class="st5" x1="127.4" y1="50.7" x2="127.4" y2="49.4"/>
<line class="st5" x1="127.4" y1="49.4" x2="126.8" y2="48.2"/>
<line class="st5" x1="126.8" y1="48.2" x2="126.8" y2="47"/>
<line class="st5" x1="126.8" y1="47" x2="126.8" y2="45.7"/>
<line class="st5" x1="126.8" y1="45.7" x2="126.2" y2="45.1"/>
<line class="st5" x1="126.2" y1="45.1" x2="126.2" y2="43.9"/>
<line class="st5" x1="126.2" y1="43.9" x2="125.6" y2="42.6"/>
<line class="st5" x1="125.6" y1="42.6" x2="125" y2="41.4"/>
<line class="st5" x1="125" y1="41.4" x2="125" y2="40.8"/>
<line class="st5" x1="125" y1="40.8" x2="124.3" y2="39.5"/>
<line class="st5" x1="124.3" y1="39.5" x2="123.7" y2="38.3"/>
<line class="st5" x1="123.7" y1="38.3" x2="123.1" y2="37.7"/>
<line class="st5" x1="123.1" y1="37.7" x2="122.5" y2="36.4"/>
<line class="st5" x1="122.5" y1="36.4" x2="121.9" y2="35.8"/>
<line class="st5" x1="121.9" y1="35.8" x2="121.3" y2="35.2"/>
<line class="st5" x1="121.3" y1="35.2" x2="120" y2="34"/>
<line class="st5" x1="120" y1="34" x2="119.4" y2="33.3"/>
<line class="st5" x1="119.4" y1="33.3" x2="118.8" y2="32.7"/>
<line class="st5" x1="118.8" y1="32.7" x2="118.2" y2="32.1"/>
<line class="st5" x1="118.2" y1="32.1" x2="116.9" y2="31.5"/>
<line class="st5" x1="116.9" y1="31.5" x2="116.3" y2="30.9"/>
<line class="st5" x1="116.3" y1="30.9" x2="115.1" y2="30.3"/>
<line class="st5" x1="115.1" y1="30.3" x2="114.4" y2="29.6"/>
<line class="st5" x1="114.4" y1="29.6" x2="113.2" y2="29"/>
<line class="st5" x1="113.2" y1="29" x2="112.6" y2="28.4"/>
<line class="st5" x1="112.6" y1="28.4" x2="111.3" y2="27.8"/>
<line class="st5" x1="111.3" y1="27.8" x2="110.7" y2="27.8"/>
<line class="st5" x1="110.7" y1="27.8" x2="109.5" y2="27.2"/>
<line class="st5" x1="109.5" y1="27.2" x2="108.3" y2="26.5"/>
<line class="st5" x1="108.3" y1="26.5" x2="107.6" y2="26.5"/>
<line class="st5" x1="107.6" y1="26.5" x2="106.4" y2="25.9"/>
<line class="st5" x1="106.4" y1="25.9" x2="105.2" y2="25.9"/>
<line class="st5" x1="105.2" y1="25.9" x2="103.9" y2="25.9"/>
<line class="st5" x1="103.9" y1="25.9" x2="103.3" y2="25.9"/>
<line class="st5" x1="103.3" y1="25.9" x2="102.1" y2="25.3"/>
<line class="st5" x1="102.1" y1="25.3" x2="100.8" y2="25.3"/>
<line class="st5" x1="100.8" y1="25.3" x2="100.2" y2="25.3"/>
<line class="st6" x1="98.4" y1="14.8" x2="100.2" y2="87.2"/>
<text transform="matrix(1 0 0 1 54.48 196.68)" class="st2 st3 st4">T</text>
<text transform="matrix(1 0 0 1 59.06 196.68)" class="st2 st3 st4">h</text>
<text transform="matrix(1 0 0 1 64.23 196.68)" class="st2 st3 st4">e</text>
<text transform="matrix(1 0 0 1 68.91 196.68)" class="st2 st3 st4">ta</text>
<text transform="matrix(1 0 0 1 76.38 196.68)" class="st2 st3 st4"> </text>
<text transform="matrix(1 0 0 1 78.33 196.68)" class="st2 st3 st4">/</text>
<text transform="matrix(1 0 0 1 81.4 196.68)" class="st2 st3 st4"> </text>
<text transform="matrix(1 0 0 1 83.35 196.68)" class="st2 st3 st4">D</text>
<text transform="matrix(1 0 0 1 89.46 196.68)" class="st2 st3 st4">e</text>
<text transform="matrix(1 0 0 1 94.14 196.68)" class="st2 st3 st4">g</text>
<text transform="matrix(1 0 0 1 99.39 196.68)" class="st2 st3 st4">r</text>
<text transform="matrix(1 0 0 1 102.42 196.68)" class="st2 st3 st4">ee</text>
<text transform="matrix(1 0 0 1 111.78 196.68)" class="st2 st3 st4"> </text>
<text transform="matrix(1 0 0 1 113.73 196.68)" class="st2 st3 st4">v</text>
<text transform="matrix(1 0 0 1 118.12 196.68)" class="st2 st3 st4">s</text>
<text transform="matrix(1 0 0 1 121.74 196.68)" class="st2 st3 st4">.</text>
<text transform="matrix(1 0 0 1 123.55 196.68)" class="st2 st3 st4"> </text>
<text transform="matrix(1 0 0 1 125.5 196.68)" class="st2 st3 st4">d</text>
<text transform="matrix(1 0 0 1 130.79 196.68)" class="st2 st3 st4">B</text>
<text transform="matrix(1 0 0 1 135.74 196.68)" class="st2 st3 st4">i</text>
</svg>
